<svg width="130" height="129" viewBox="0 0 130 129" fill="none" xmlns="http://www.w3.org/2000/svg">
<path d="M124.491 3.60156V26.9108H90.9295L89.7202 3.76279L124.491 3.60156Z" fill="#E0E0E0"/>
<path d="M89.7202 3.76285V26.8619L123.281 26.8619V3.76285L89.7202 3.76285Z" fill="white"/>
<path d="M123.443 27.0204H89.5615V3.60461H123.443V27.0204ZM89.8789 26.7037H123.123V3.92132H89.8789V26.7037Z" fill="#E0E0E0"/>
<path d="M119.648 6.6333H93.3569V23.9914H119.648V6.6333Z" fill="white"/>
<path d="M119.648 6.63334H119.518H119.145H117.702L112.285 6.65349L93.3598 6.69092L93.4348 6.61607C93.4348 11.9194 93.4348 17.7956 93.4348 23.9713L93.354 23.8878L119.645 23.9051L119.578 23.9713C119.593 18.6882 119.604 14.358 119.613 11.3407C119.613 9.83491 119.627 8.65735 119.63 7.84832C119.63 7.45101 119.63 7.14582 119.63 6.93277C119.63 6.72259 119.63 6.61319 119.63 6.61319C119.63 6.61319 119.63 6.71396 119.63 6.91837C119.63 7.12279 119.63 7.43085 119.63 7.82241C119.63 8.62856 119.63 9.80036 119.648 11.3004C119.648 14.3263 119.668 18.6709 119.682 23.9685V24.0347H119.616L93.3251 24.0519H93.2414V23.9685C93.2414 17.7928 93.2414 11.9165 93.2414 6.61319V6.53833H93.3194L112.348 6.59591L117.748 6.61607H119.177H119.541L119.648 6.63334Z" fill="#E0E0E0"/>
<path d="M89.7202 3.69946C89.9273 3.79903 90.1211 3.92378 90.2975 4.07087C90.6409 4.31847 91.1085 4.66972 91.6136 5.0728C92.1187 5.47587 92.5631 5.85592 92.8749 6.14383C93.0559 6.28563 93.2179 6.45014 93.3569 6.63327C92.7173 6.18465 92.1008 5.70419 91.5097 5.19372C90.8829 4.73282 90.2853 4.23379 89.7202 3.69946Z" fill="#E0E0E0"/>
<path d="M123.284 3.76282C122.731 4.30346 122.141 4.80469 121.518 5.26283C120.927 5.76271 120.302 6.22065 119.647 6.63329C120.2 6.09188 120.79 5.59059 121.414 5.13327C122.004 4.6334 122.629 4.17546 123.284 3.76282Z" fill="#E0E0E0"/>
<path d="M123.255 26.8648L119.503 23.8389L123.255 26.8648Z" fill="white"/>
<path d="M119.515 23.8389C120.187 24.275 120.829 24.7559 121.437 25.2784C122.079 25.7621 122.686 26.2893 123.255 26.8562C122.583 26.4201 121.941 25.9391 121.333 25.4166C120.691 24.9329 120.084 24.4058 119.515 23.8389Z" fill="#E0E0E0"/>
<path d="M89.7202 26.862C90.2669 26.3258 90.8514 25.8293 91.4693 25.3764C92.0519 24.8807 92.6702 24.4284 93.3193 24.0232C92.7729 24.5588 92.1884 25.0544 91.5703 25.5059C90.9873 26.002 90.3689 26.4552 89.7202 26.862Z" fill="#E0E0E0"/>
<path d="M98.6935 12.0402V17.8531H115.237V12.0402H98.6935Z" fill="#E0E0E0"/>
<path d="M100.134 128.523H129.891V42.3661H100.134L100.134 128.523Z" fill="#E0E0E0"/>
<path d="M84.1613 128.523H116.741L116.741 42.3661H84.1613V128.523Z" fill="#F5F5F5"/>
<path d="M104.163 108.419H95.458C95.2935 108.419 95.1356 108.353 95.0193 108.237C94.9029 108.121 94.8375 107.964 94.8375 107.8V107.284H104.783V107.8C104.783 107.964 104.718 108.121 104.602 108.237C104.485 108.353 104.327 108.419 104.163 108.419Z" fill="#E0E0E0"/>
<path d="M85.6015 107.284C85.6015 107.284 85.6015 107.388 85.6015 107.595C85.6015 107.802 85.6015 108.116 85.6015 108.519C85.6015 109.34 85.6015 110.535 85.5842 112.075C85.5842 115.17 85.564 119.621 85.5496 125.071V125.138H85.616L114.649 125.155H114.747V125.071C114.747 118.778 114.747 112.775 114.747 107.31V107.235H114.657L93.709 107.253L87.7316 107.267H86.147H85.7401H85.6073H85.7516H86.1644H87.7633L93.7609 107.293L114.657 107.35L114.579 107.273C114.579 112.743 114.579 118.74 114.579 125.034L114.663 124.953H114.646L85.6131 124.971L85.6766 125.034C85.6622 119.601 85.6506 115.161 85.642 112.078C85.642 110.535 85.642 109.331 85.6275 108.508C85.6275 108.099 85.6275 107.788 85.6275 107.572C85.6275 107.356 85.6015 107.284 85.6015 107.284Z" fill="#E0E0E0"/>
<path d="M95.23 113.961H103.874V111.632H95.23V113.961Z" fill="#E0E0E0"/>
<path d="M104.558 87.6888H95.8563C95.6918 87.6888 95.5339 87.6236 95.4176 87.5075C95.3012 87.3914 95.2358 87.234 95.2358 87.0698V86.5545H105.179V87.0698C105.179 87.234 105.113 87.3914 104.997 87.5075C104.881 87.6236 104.723 87.6888 104.558 87.6888Z" fill="#E0E0E0"/>
<path d="M85.6824 86.5516C85.6824 86.5516 85.6824 86.6553 85.6824 86.8626C85.6824 87.0699 85.6824 87.3866 85.6824 87.7868C85.6824 88.6073 85.6824 89.8021 85.6651 91.3425C85.6651 94.4375 85.6449 98.8886 85.6304 104.342V104.405H85.6968L114.729 104.422H114.827V104.342C114.827 98.045 114.827 92.0421 114.827 86.5804V86.5027H114.752L93.8042 86.52L87.8269 86.5372H86.2423H85.8354H85.7026H85.8469H86.2596H87.8586L93.8562 86.566L114.752 86.6207L114.675 86.5459C114.675 92.0162 114.675 98.0105 114.675 104.307L114.758 104.224H114.741L85.7084 104.241L85.7719 104.307C85.7574 98.8713 85.7459 94.4346 85.7372 91.3511C85.7372 89.8079 85.7372 88.6044 85.7372 87.781C85.7372 87.3751 85.7372 87.0612 85.7372 86.8453C85.7372 86.6294 85.6824 86.5516 85.6824 86.5516Z" fill="#E0E0E0"/>
<path d="M95.8823 93.0901H104.527V90.7609H95.8823V93.0901Z" fill="#E0E0E0"/>
<path d="M104.18 45.8525H95.4753C95.3108 45.8525 95.1529 45.7873 95.0366 45.6712C94.9202 45.5551 94.8548 45.3977 94.8548 45.2335V44.7182H104.801V45.2335C104.801 45.3148 104.785 45.3953 104.754 45.4704C104.722 45.5455 104.677 45.6138 104.619 45.6712C104.561 45.7287 104.493 45.7743 104.418 45.8054C104.342 45.8365 104.262 45.8525 104.18 45.8525Z" fill="#E0E0E0"/>
<path d="M85.616 44.7152C85.616 44.7152 85.616 44.8189 85.616 45.0261C85.616 45.2334 85.616 45.5501 85.616 45.9503C85.616 46.7709 85.616 47.9657 85.6015 49.506C85.6015 52.6011 85.5813 57.0522 85.5669 62.5052V62.5686H85.6304L114.666 62.5887H114.764V62.5052C114.764 56.2086 114.764 50.2057 114.764 44.744V44.6663H114.657L93.7118 44.6835L87.7316 44.7008H86.147H85.743H85.6073C85.6554 44.7033 85.7035 44.7033 85.7516 44.7008H86.1643H87.7662L93.7609 44.7267L114.657 44.7814L114.579 44.7066C114.579 50.1769 114.579 56.1712 114.579 62.4678L114.663 62.3843L85.6275 62.4016L85.6939 62.4678C85.6795 57.032 85.6679 52.5953 85.6593 49.5118C85.6593 47.9686 85.6448 46.7651 85.6419 45.9417C85.6419 45.5358 85.6419 45.2219 85.6419 45.006C85.6419 44.7901 85.616 44.7152 85.616 44.7152Z" fill="#E0E0E0"/>
<path d="M95.6601 50.8363H104.304V48.5071H95.6601V50.8363Z" fill="#E0E0E0"/>
<path d="M104.18 66.7634H95.4753C95.3107 66.7634 95.1529 66.6982 95.0365 66.5821C94.9202 66.466 94.8548 66.3086 94.8548 66.1444V65.6118H104.801V66.1271C104.803 66.2099 104.789 66.2922 104.759 66.3693C104.728 66.4464 104.683 66.5167 104.625 66.5761C104.567 66.6354 104.498 66.6825 104.422 66.7147C104.345 66.7469 104.263 66.7635 104.18 66.7634Z" fill="#E0E0E0"/>
<path d="M85.616 65.6176C85.616 65.6176 85.616 65.7213 85.616 65.9286C85.616 66.1359 85.616 66.4497 85.616 66.8528C85.616 67.6733 85.616 68.8681 85.6015 70.4085C85.6015 73.5035 85.5813 77.9546 85.5669 83.4048V83.4681H85.6304L114.666 83.4854H114.764V83.4019C114.764 77.1081 114.764 71.1052 114.764 65.6406V65.5658H114.657L93.7118 65.5831H87.7316H86.147H85.743H85.6073H85.7516H86.1643H87.7662L93.7609 65.609L114.657 65.6666L114.579 65.5888C114.579 71.0591 114.579 77.0563 114.579 83.35L114.663 83.2694L85.6275 83.2867L85.6939 83.35C85.6795 77.9172 85.6679 73.4776 85.6593 70.3941C85.6593 68.8509 85.6448 67.6474 85.6419 66.824C85.6419 66.4151 85.6419 66.1042 85.6419 65.8883C85.6419 65.6723 85.616 65.6176 85.616 65.6176Z" fill="#E0E0E0"/>
<path d="M95.6601 71.7416H104.304V69.4124H95.6601V71.7416Z" fill="#E0E0E0"/>
<path d="M38.354 3.02002H7.15681V30.861H38.354V3.02002Z" fill="#FAFAFA"/>
<path d="M38.354 30.8611C38.354 30.8611 38.354 30.6826 38.354 30.3429C38.354 30.0031 38.354 29.5022 38.354 28.8515C38.354 27.5444 38.354 25.6355 38.3338 23.1998C38.3338 18.337 38.3136 11.3955 38.2992 3.02014L38.3685 3.08923H7.17412L7.25782 3.00574C7.25782 13.1344 7.25782 22.6643 7.25782 30.8467L7.18278 30.7719L29.7473 30.8093L36.1114 30.8295H37.797H38.2299H38.38H38.2386H37.8114H36.1432L29.7935 30.8467L7.18278 30.8842H7.11063V30.8122C7.11063 22.6297 7.11063 13.0999 7.11063 2.97119V2.8877H7.19721H38.3915H38.4637V2.95967C38.4464 11.3436 38.4348 18.3082 38.4262 23.1854C38.4262 25.6125 38.4118 27.5041 38.4089 28.8198C38.4089 29.4648 38.4089 29.9715 38.4089 30.2997C38.4089 30.6279 38.354 30.8611 38.354 30.8611Z" fill="#E0E0E0"/>
<path d="M19.1231 7.96618C19.1231 8.01225 17.4808 8.04968 15.4547 8.04968C13.4286 8.04968 11.7892 8.01225 11.7892 7.96618C11.7892 7.92012 13.4286 7.88269 15.4547 7.88269C17.4808 7.88269 19.1231 7.92012 19.1231 7.96618Z" fill="#E0E0E0"/>
<path d="M32.3391 10.0508C32.3391 10.0968 27.828 10.1343 22.2633 10.1343C16.6987 10.1343 12.1962 10.1026 12.1962 10.0508C12.1962 9.99896 16.7073 9.96729 22.272 9.96729C27.8366 9.96729 32.3391 10.0105 32.3391 10.0508Z" fill="#E0E0E0"/>
<path d="M13.1515 13.5979H11.8383V14.9079H13.1515V13.5979Z" fill="#E0E0E0"/>
<path d="M16.387 13.5979H15.0737V14.9079H16.387V13.5979Z" fill="#E0E0E0"/>
<path d="M19.683 13.5375H18.3698V14.8475H19.683V13.5375Z" fill="#E0E0E0"/>
<path d="M22.8579 13.5979H21.5447V14.9079H22.8579V13.5979Z" fill="#E0E0E0"/>
<path d="M26.0933 13.5979H24.7801V14.9079H26.0933V13.5979Z" fill="#E0E0E0"/>
<path d="M29.3288 13.5979H28.0156V14.9079H29.3288V13.5979Z" fill="#E0E0E0"/>
<path d="M32.5643 13.5979H31.2511V14.9079H32.5643V13.5979Z" fill="#EBEBEB"/>
<path d="M13.1515 16.3848H11.8383V17.6948H13.1515V16.3848Z" fill="#EBEBEB"/>
<path d="M16.387 16.3848H15.0737V17.6948H16.387V16.3848Z" fill="#E0E0E0"/>
<path d="M19.6224 16.3848H18.3092V17.6948H19.6224V16.3848Z" fill="#EBEBEB"/>
<path d="M22.8579 16.3848H21.5447V17.6948H22.8579V16.3848Z" fill="#E0E0E0"/>
<path d="M26.0933 16.3848H24.7801V17.6948H26.0933V16.3848Z" fill="#E0E0E0"/>
<path d="M29.3865 16.3242H28.0733V17.6342H29.3865V16.3242Z" fill="#E0E0E0"/>
<path d="M32.5643 16.3848H31.2511V17.6948H32.5643V16.3848Z" fill="#E0E0E0"/>
<path d="M13.1515 19.1718H11.8383V20.4817H13.1515V19.1718Z" fill="#E0E0E0"/>
<path d="M16.4476 19.1112H15.1343V20.4212H16.4476V19.1112Z" fill="#E0E0E0"/>
<path d="M19.6224 19.1718H18.3092V20.4817H19.6224V19.1718Z" fill="#E0E0E0"/>
<path d="M22.8579 19.1718H21.5447V20.4817H22.8579V19.1718Z" fill="#EBEBEB"/>
<path d="M26.0933 19.1718H24.7801V20.4817H26.0933V19.1718Z" fill="#E0E0E0"/>
<path d="M29.3288 19.1718H28.0156V20.4817H29.3288V19.1718Z" fill="#E0E0E0"/>
<path d="M32.5643 19.1718H31.2511V20.4817H32.5643V19.1718Z" fill="#E0E0E0"/>
<path d="M13.1515 21.9587H11.8383V23.2687H13.1515V21.9587Z" fill="#E0E0E0"/>
<path d="M16.387 21.9587H15.0737V23.2687H16.387V21.9587Z" fill="#E0E0E0"/>
<path d="M19.6224 21.9587H18.3092V23.2687H19.6224V21.9587Z" fill="#E0E0E0"/>
<path d="M22.9185 21.9011H21.6053V23.2111H22.9185V21.9011Z" fill="#E0E0E0"/>
<path d="M26.0933 21.9587H24.7801V23.2687H26.0933V21.9587Z" fill="#E0E0E0"/>
<path d="M29.3288 21.9587H28.0156V23.2687H29.3288V21.9587Z" fill="#EBEBEB"/>
<path d="M32.5643 21.9587H31.2511V23.2687H32.5643V21.9587Z" fill="#E0E0E0"/>
<path d="M13.1515 24.7458H11.8383V26.0558H13.1515V24.7458Z" fill="#E0E0E0"/>
<path d="M16.387 24.7458H15.0737V26.0558H16.387V24.7458Z" fill="#EBEBEB"/>
<path d="M19.6224 24.7458H18.3092V26.0558H19.6224V24.7458Z" fill="#E0E0E0"/>
<path d="M22.8579 24.7458H21.5447V26.0558H22.8579V24.7458Z" fill="#E0E0E0"/>
<path d="M26.0933 24.7458H24.7801V26.0558H26.0933V24.7458Z" fill="#E0E0E0"/>
<path d="M29.3865 24.6881H28.0733V25.9981H29.3865V24.6881Z" fill="#E0E0E0"/>
<path d="M32.5643 24.7458H31.2511V26.0558H32.5643V24.7458Z" fill="#E0E0E0"/>
<path d="M64.5777 44.4737L53.8191 48.514L56.5495 55.7487L67.3081 51.7084L64.5777 44.4737Z" fill="#EBEBEB"/>
<path d="M64.6447 44.5541C64.6289 44.6015 64.6076 44.6469 64.5812 44.6894L64.382 45.0637C64.1973 45.3948 63.9405 45.8612 63.6259 46.4313C62.9736 47.5829 62.0788 49.1779 61.0917 50.9371L61.0715 50.9745H61.0283L60.9301 50.9428L55.9427 49.3104L54.4332 48.8036L54.0263 48.6626C53.9773 48.6483 53.9299 48.629 53.8848 48.605C53.9347 48.6142 53.9838 48.6267 54.032 48.6424L54.4477 48.7662L55.9658 49.2413L60.9734 50.8305L61.0715 50.8622L61.008 50.8881C62.0096 49.1347 62.9101 47.5512 63.571 46.3967L64.3532 45.0435L64.5725 44.6779C64.5928 44.6346 64.617 44.5931 64.6447 44.5541Z" fill="#E0E0E0"/>
<path d="M56.6152 55.8287C56.5892 55.8287 57.0222 54.5245 57.5879 52.9352C58.1536 51.346 58.6298 50.0561 58.6558 50.0763C58.6817 50.0964 58.2488 51.3834 57.686 52.9554C57.1232 54.5274 56.6441 55.8287 56.6152 55.8287Z" fill="#E0E0E0"/>
<path d="M62.2 48.6451C62.2145 48.6192 63.3863 49.3044 64.8149 50.171C66.2436 51.0377 67.3895 51.7632 67.375 51.7891C67.3606 51.815 66.1888 51.1298 64.7601 50.2603C63.3314 49.3908 62.1856 48.6682 62.2 48.6451Z" fill="#E0E0E0"/>
<path d="M78.5101 21.6391C78.785 21.4728 79.0811 21.344 79.3904 21.2562L79.5722 20.3925L81.0442 20.3666L81.2578 21.2303C81.5697 21.3063 81.8698 21.4245 82.1496 21.5816L82.8943 21.095L83.9535 22.1142L83.4917 22.8743C83.6583 23.1435 83.7875 23.4341 83.8756 23.738L84.7415 23.9165L84.7674 25.3877L83.9016 25.5979C83.8246 25.9093 83.7072 26.2094 83.5523 26.4904L84.0401 27.2304L83.0155 28.287L82.2564 27.8292C81.9808 27.9935 81.6849 28.1213 81.3761 28.2093L81.1943 29.073L79.7223 29.0989L79.5087 28.2352C79.1972 28.1579 78.8973 28.0398 78.6169 27.8839L77.8722 28.3705L76.813 27.3484L77.2748 26.5912C77.1075 26.3172 76.9784 26.0218 76.8909 25.7131L76.0251 25.5317L75.9991 24.0634L76.865 23.8503C76.9414 23.5396 77.0588 23.2405 77.2142 22.9607L76.7264 22.2178L77.751 21.1612L78.5101 21.6219V21.6391ZM79.2952 23.5941C79.0773 23.8182 78.9311 24.1019 78.8749 24.409C78.8188 24.7161 78.8552 25.033 78.9797 25.3194C79.1041 25.6059 79.311 25.8491 79.574 26.0182C79.8371 26.1874 80.1446 26.2749 80.4575 26.2696C80.7704 26.2644 81.0748 26.1666 81.332 25.9888C81.5892 25.8109 81.7877 25.5609 81.9025 25.2705C82.0172 24.98 82.043 24.6621 81.9765 24.357C81.91 24.052 81.7543 23.7734 81.5291 23.5566C81.3808 23.4119 81.2053 23.2977 81.0127 23.2207C80.8201 23.1437 80.6142 23.1053 80.4067 23.1077C80.1993 23.1101 79.9943 23.1532 79.8036 23.2347C79.6128 23.3162 79.4401 23.4344 79.2952 23.5825V23.5941Z" fill="#E0E0E0"/>
<path d="M79.2951 23.5828C79.3772 23.4827 79.4746 23.3962 79.5838 23.3265C79.7739 23.2035 79.9881 23.1221 80.2122 23.0879C80.4363 23.0537 80.6651 23.0674 80.8834 23.1282C81.1017 23.1889 81.3047 23.2952 81.4787 23.4401C81.6527 23.585 81.7938 23.7651 81.8928 23.9686C82.0356 24.2554 82.0888 24.5783 82.0457 24.8956C81.9993 25.2375 81.8458 25.5559 81.607 25.8054C81.3665 26.053 81.053 26.2174 80.7123 26.2747C80.5517 26.3006 80.388 26.3006 80.2274 26.2747C80.0718 26.2554 79.92 26.2127 79.7771 26.1481C79.5137 26.0288 79.2866 25.8421 79.1191 25.6068C78.9755 25.4009 78.8826 25.1642 78.8478 24.9158C78.7931 24.5567 78.8666 24.1898 79.0556 23.8793C79.1214 23.7709 79.2042 23.6737 79.3009 23.5914C79.3009 23.5914 79.2057 23.6951 79.0845 23.911C78.9149 24.219 78.8539 24.5749 78.9113 24.9216C78.9488 25.1586 79.0418 25.3835 79.1826 25.578C79.3438 25.8001 79.5608 25.9758 79.8118 26.0876C79.9467 26.1473 80.0896 26.1871 80.2361 26.2056C80.389 26.23 80.5449 26.23 80.6979 26.2056C81.0197 26.1509 81.3158 25.9957 81.5435 25.7623C81.7694 25.5249 81.9148 25.2228 81.9591 24.8985C81.9954 24.6031 81.9463 24.3034 81.8177 24.0348C81.698 23.7872 81.5148 23.5756 81.2866 23.4215C81.0869 23.2886 80.8584 23.2048 80.6199 23.1768C80.2713 23.1318 79.9176 23.2048 79.6155 23.3841C79.3962 23.4964 79.3038 23.6029 79.2951 23.5828Z" fill="#E0E0E0"/>
<path d="M78.5101 21.6393L78.461 21.6134L78.3167 21.5299L77.7394 21.1902H77.7568L76.7408 22.2555V22.2267L77.2315 22.9666C77.0774 23.2454 76.9619 23.5437 76.888 23.8534V23.8707H76.8707L76.0048 24.0866L76.0279 24.0549C76.0279 24.5156 76.0481 25.0079 76.0568 25.5233L76.0308 25.4887L76.8967 25.6672H76.9169V25.6874C77.005 25.9908 77.1331 26.2813 77.2979 26.5511V26.5713V26.5914L76.8476 27.3889V27.3371L77.9097 28.3563H77.8578L78.5995 27.8669L78.6226 27.8525L78.6457 27.8669C78.9235 28.0205 79.2205 28.1367 79.5289 28.2124H79.5549V28.2383L79.7656 29.102L79.7223 29.0703L81.1943 29.0444L81.151 29.079C81.2087 28.7911 81.2722 28.5031 81.3328 28.2152V28.1893H81.3588C81.6635 28.1041 81.9549 27.9772 82.2246 27.8122H82.2506H82.2737L83.0328 28.2728H82.9779L83.9997 27.2162V27.2709C83.8352 27.0204 83.6706 26.7728 83.5119 26.5281L83.4975 26.505V26.482C83.6528 26.2052 83.7702 25.9089 83.8467 25.601V25.5751H83.8727L84.7385 25.3649L84.7068 25.4081C84.7068 24.9071 84.6981 24.4177 84.6808 23.9398L84.7155 23.9801L83.8496 23.7958H83.8265V23.7699C83.7405 23.4666 83.6144 23.1761 83.4513 22.9062V22.886V22.8658L83.9131 22.1058V22.1518L82.8567 21.1297H82.9L82.1554 21.6134H82.1381H82.1207C81.8421 21.4589 81.5441 21.3417 81.2347 21.2651H81.2174V21.2478C81.1423 20.934 81.073 20.6518 81.0067 20.3841L81.0355 20.4042L79.5607 20.4215H79.5809C79.5058 20.767 79.4452 21.052 79.3933 21.2852C79.1608 21.3484 78.9354 21.4352 78.7208 21.5443L78.562 21.625L78.5072 21.6537C78.522 21.6401 78.5385 21.6285 78.5563 21.6192L78.7121 21.5299C78.9263 21.4161 79.1516 21.3244 79.3846 21.2564C79.4308 21.0203 79.4885 20.7353 79.5578 20.3927V20.3754H79.5751L81.0471 20.3438H81.0702V20.3639C81.1365 20.6317 81.2087 20.9138 81.2866 21.2276L81.2635 21.2075C81.579 21.2838 81.8829 21.4019 82.1669 21.5587H82.1323L82.8769 21.0722L82.9 21.0549L82.9202 21.075L83.9795 22.0942L84.0026 22.1144L83.9852 22.1403L83.5263 22.9004V22.8601C83.6952 23.1367 83.8253 23.4351 83.9131 23.7469L83.8842 23.7181L84.7501 23.8966H84.7818V23.9282C84.7818 24.4062 84.802 24.8956 84.8107 25.3966V25.4311H84.7761L83.9102 25.6442L83.9419 25.6125C83.8643 25.9273 83.7449 26.2304 83.5869 26.5137V26.4619L84.0776 27.2047L84.0949 27.2335L84.0718 27.2594L83.0472 28.316L83.0241 28.3419L82.9924 28.3246L82.2304 27.864H82.2766C81.9992 28.0321 81.7001 28.1619 81.3876 28.2498L81.4194 28.2152C81.3559 28.5031 81.2953 28.8112 81.2376 29.079V29.1164H81.2029L79.7309 29.1394H79.6963V29.1049C79.6213 28.817 79.5491 28.5118 79.4827 28.2411L79.5145 28.2728C79.1992 28.1943 78.8956 28.0752 78.6111 27.9187H78.6573L77.9126 28.4053L77.8838 28.4225L77.8607 28.3995L76.8014 27.3774L76.7783 27.3573L76.7957 27.3285C76.9573 27.0636 77.1131 26.8045 77.2575 26.5713V26.6116C77.0899 26.3336 76.9607 26.0344 76.8736 25.7219L76.8996 25.7478L76.0337 25.5665H76.0048V25.5377C76.0048 25.0223 75.9875 24.5329 75.9817 24.0693V24.0434H76.0048L76.8707 23.8332L76.8476 23.8707C76.9253 23.5568 77.0447 23.2547 77.2026 22.9724V23.0012C77.0266 22.7334 76.8649 22.4829 76.7177 22.2555L77.7452 21.2046L78.3225 21.5501L78.4639 21.6422C78.4956 21.625 78.5101 21.6365 78.5101 21.6393Z" fill="#E0E0E0"/>
<path d="M7.14526 125.595C6.61708 125.146 5.44239 123.715 6.34866 122.054C6.68058 121.446 7.3877 121.144 8.02556 120.876C8.66341 120.609 9.3359 120.375 9.86408 119.926C10.8627 119.08 11.1369 117.675 11.7979 116.546C12.5598 115.251 13.977 114.277 15.4749 114.346C17.2066 114.424 18.6209 115.823 19.2703 117.416C19.9197 119.008 19.9428 120.778 19.9543 122.5C19.9543 123.453 19.9197 124.515 19.2183 125.169C18.5747 125.762 17.6021 125.768 16.7275 125.745L7.35018 125.457" fill="#F5F5F5"/>
<path d="M25.0774 99.8792H0.420372L4.86227 126.298C4.95353 126.849 5.19975 127.362 5.57226 127.778C5.94477 128.195 6.42824 128.497 6.96633 128.65L7.05292 128.676C7.12508 128.693 7.19723 128.719 7.27227 128.731C7.43766 128.765 7.60571 128.784 7.77448 128.788V128.814L7.8957 128.794H18.8893C19.0918 128.794 19.2938 128.775 19.4926 128.736C20.1357 128.637 20.7282 128.329 21.1792 127.861C21.6302 127.393 21.9147 126.79 21.9891 126.145L24.1278 107.941L24.226 107.215L25.0745 100.017L25.0774 99.8792ZM20.4277 116.728H17.8965L18.1505 109.061H21.0829L20.4277 116.728ZM21.3282 109.061H23.7411L22.8377 116.728H20.673L21.3282 109.061ZM14.1126 125.23L13.9597 118.567H17.5905L17.3683 125.23H14.1126ZM10.1585 118.567H13.6999L13.8529 125.23H10.678L10.1585 118.567ZM10.4471 125.23H7.46565C7.17703 123.43 6.81625 121.092 6.41795 118.567H9.91317L10.4471 125.23ZM10.0315 116.728L9.43406 109.061H13.4805L13.6566 116.728H10.0315ZM13.9164 116.728L13.7403 109.061H17.9051L17.6511 116.728H13.9164ZM13.697 107.227L13.5325 100.127H18.2053L17.9686 107.221L13.697 107.227ZM13.4517 107.227H9.27531L8.7327 100.121H13.2756L13.4517 107.227ZM9.02133 107.221H4.6256C4.46975 106.242 4.32255 105.312 4.1869 104.477C3.72799 101.598 3.55481 100.527 3.45957 100.121H8.47583L9.02133 107.221ZM9.16564 109.061L9.76309 116.728H6.1351C6.01099 115.95 5.88688 115.164 5.76278 114.375L4.92288 109.061H9.16564ZM5.88111 116.728H3.49997L2.21272 109.061H4.6689C5.04411 111.43 5.46261 114.067 5.88111 116.728ZM6.16973 118.567C6.5334 120.871 6.8884 123.145 7.21743 125.23H4.93154L3.8088 118.567H6.16973ZM17.6136 125.23L17.8359 118.567H20.2776L19.7004 125.23H17.6136ZM18.2111 107.221L18.4477 100.121H21.8477L21.2416 107.221H18.2111ZM3.22578 100.121C3.32392 100.633 3.77417 103.429 4.38027 107.221H1.90389L0.708995 100.121H3.22578ZM21.8506 125.23H19.9428L20.5201 118.567H22.6385L21.8506 125.23ZM23.9691 107.221H21.4869L22.0959 100.121H24.8032L23.9691 107.221Z" fill="#E0E0E0"/>
<path d="M125.481 128.523C125.481 128.567 99.0543 128.598 66.4601 128.598C33.866 128.598 7.4339 128.567 7.4339 128.523C7.4339 128.48 33.8544 128.448 66.4601 128.448C99.0658 128.448 125.481 128.483 125.481 128.523Z" fill="#263238"/>
<path d="M100.339 62.9777C100.339 62.9777 103.747 59.065 105.035 55.1494C106.322 51.2338 105.71 51.6944 105.71 51.6944C105.71 51.6944 103.978 55.4949 102.656 57.3317C101.334 59.1686 98.9879 61.8635 98.9879 61.8635L100.339 62.9777Z" fill="#455A64"/>
<path d="M99.6488 52.2933C99.672 52.2535 99.7083 52.2231 99.7515 52.207C99.7947 52.191 99.8421 52.1904 99.8857 52.2054C99.9292 52.2203 99.9663 52.2499 99.9904 52.289C100.015 52.3281 100.024 52.3744 100.018 52.42C99.8105 53.7962 99.3602 57.0265 99.3775 59.1139C99.4006 61.8318 99.3775 62.8826 99.3775 62.8826H97.9575C97.9575 62.8826 98.2115 57.2626 98.5347 55.5495C98.7444 54.4156 99.1197 53.3185 99.6488 52.2933Z" fill="#455A64"/>
<path d="M98.8869 62.4274C98.2914 61.0834 97.8976 59.6593 97.718 58.2008C97.6025 57.1989 97.8103 55.8457 98.1191 54.0434C98.2391 53.3783 98.3 52.7038 98.301 52.028C98.2994 51.9534 98.2732 51.8815 98.2266 51.8232C98.1799 51.765 98.1153 51.7236 98.0427 51.7056C97.9702 51.6876 97.8937 51.6939 97.8251 51.7236C97.7565 51.7532 97.6996 51.8045 97.6631 51.8697C97.3198 52.5015 97.0543 53.1724 96.8723 53.8678C96.5288 55.6499 96.1392 56.5396 96.4365 58.2325C96.7338 59.9254 97.8334 62.5252 97.8334 62.5252L98.8869 62.4274Z" fill="#455A64"/>
<path d="M97.6083 62.5398C97.6083 62.5398 93.8562 54.5157 93.6051 53.3266C93.354 52.1376 92.465 49.3909 92.3611 49.5464C92.2572 49.7018 92.1014 51.1529 92.7767 52.8084C93.4521 54.4639 96.3297 62.7845 96.3297 62.7845H97.6083" fill="#455A64"/>
<path d="M99.2967 62.1827C99.2967 62.1827 99.3342 62.1597 99.4006 62.1108C99.467 62.0618 99.568 61.9898 99.6893 61.8891C100.039 61.6104 100.374 61.3144 100.694 61.0023C101.745 59.967 102.655 58.7987 103.401 57.5272C104.151 56.2566 104.775 54.9163 105.265 53.5253C105.456 52.9926 105.592 52.5579 105.681 52.2527C105.727 52.103 105.759 51.9849 105.779 51.9043C105.793 51.8642 105.803 51.8227 105.808 51.7805C105.808 51.7805 105.791 51.8208 105.765 51.8986L105.652 52.2441C105.554 52.532 105.407 52.9782 105.213 53.508C104.712 54.889 104.086 56.2218 103.343 57.4898C102.598 58.7575 101.695 59.9261 100.656 60.9678C100.258 61.3651 99.9144 61.6674 99.6719 61.8718L99.3833 62.1021C99.3521 62.1264 99.3232 62.1534 99.2967 62.1827Z" fill="#263238"/>
<path d="M98.8869 58.3335C98.9053 58.2559 98.9169 58.1769 98.9215 58.0974C98.9388 57.9304 98.9619 57.7145 98.9879 57.4525C99.0485 56.9112 99.1408 56.1626 99.2765 55.3392C99.4121 54.5158 99.5651 53.7758 99.6719 53.2432L99.8076 52.6098C99.8284 52.5335 99.8419 52.4554 99.848 52.3766C99.8197 52.451 99.7956 52.5269 99.7758 52.604C99.7354 52.7509 99.6806 52.9639 99.6142 53.2317C99.4872 53.7614 99.3256 54.5014 99.1986 55.3277C99.0716 56.154 98.9821 56.9025 98.9359 57.4467C98.9128 57.7202 98.8984 57.9419 98.8926 58.0945C98.8826 58.1738 98.8807 58.2538 98.8869 58.3335Z" fill="#263238"/>
<path d="M98.0094 51.8209C97.9921 51.8532 97.9776 51.8869 97.9661 51.9217L97.8536 52.2096C97.8045 52.3392 97.7468 52.4975 97.6919 52.6875C97.6371 52.8776 97.5649 53.0877 97.5101 53.3296C97.4812 53.4505 97.4495 53.5772 97.4177 53.7067C97.386 53.8363 97.3658 53.9774 97.3369 54.1213C97.2734 54.4092 97.2359 54.7144 97.1926 55.0369C97.1102 55.7429 97.0803 56.4541 97.1031 57.1645C97.1313 57.8756 97.2104 58.5838 97.3398 59.2836C97.4091 59.6032 97.4697 59.9083 97.5505 60.1876C97.5909 60.3287 97.6227 60.4755 97.6631 60.5936L97.7814 60.965C97.8536 61.2011 97.9402 61.4084 98.0094 61.5926C98.0787 61.7769 98.1451 61.9324 98.2057 62.0562L98.3384 62.3441C98.3526 62.3783 98.37 62.4111 98.3904 62.442C98.3904 62.442 98.3904 62.4045 98.3529 62.3354C98.3154 62.2663 98.2836 62.1627 98.2317 62.0475C98.1797 61.9324 98.1162 61.7596 98.0527 61.5782C97.9892 61.3968 97.9026 61.1867 97.8362 60.9506L97.7208 60.5792C97.6833 60.4525 97.6515 60.3143 97.614 60.1732C97.5361 59.8853 97.4784 59.5974 97.412 59.2721C97.2881 58.5763 97.2101 57.8733 97.1782 57.1674C97.1578 56.461 97.1858 55.7539 97.2619 55.0513C97.3052 54.7288 97.3398 54.4208 97.3975 54.1386C97.4264 53.9947 97.4466 53.8507 97.4755 53.7269C97.5043 53.6031 97.5361 53.4678 97.5621 53.3497C97.614 53.1079 97.6804 52.8948 97.7323 52.7048C97.7843 52.5148 97.8362 52.3564 97.8795 52.224L97.9777 51.9217C97.9923 51.8895 98.003 51.8557 98.0094 51.8209Z" fill="#263238"/>
<path d="M92.4044 49.7076C92.4044 49.7076 92.4044 49.7076 92.4044 49.7451V49.8487C92.4217 49.9408 92.4419 50.0762 92.4794 50.2489C92.5516 50.5944 92.6728 51.0896 92.8604 51.6885C93.048 52.2873 93.302 52.9956 93.6051 53.7729C93.9081 54.5503 94.2573 55.3968 94.5893 56.2979C94.9212 57.1991 95.1867 58.0743 95.432 58.8718C95.6774 59.6694 95.9025 60.3834 96.1247 60.9765C96.2918 61.4435 96.4845 61.901 96.702 62.3469C96.777 62.5053 96.8463 62.6348 96.8925 62.7068L96.9444 62.799C96.95 62.8093 96.9568 62.819 96.9646 62.8277C96.961 62.8158 96.9561 62.8042 96.9502 62.7932L96.9069 62.6982C96.8665 62.6147 96.803 62.4938 96.7308 62.3354C96.5147 61.886 96.322 61.4256 96.1536 60.9563C95.9371 60.3632 95.7149 59.6492 95.4753 58.8517C95.2358 58.0542 94.976 57.1732 94.6383 56.2605C94.3006 55.3478 93.9514 54.5129 93.6483 53.7384C93.3453 52.9639 93.0711 52.2614 92.8864 51.6626C92.7017 51.0637 92.566 50.5685 92.4823 50.223C92.4419 50.0531 92.4159 49.9178 92.3957 49.8286L92.3698 49.7249L92.4044 49.7076Z" fill="#263238"/>
<path d="M103.946 47.9372C103.998 47.8884 104.065 47.8581 104.136 47.851C104.207 47.8439 104.278 47.8603 104.338 47.8977C104.399 47.9351 104.445 47.9915 104.471 48.058C104.496 48.1245 104.498 48.1974 104.477 48.2654C104.347 48.6773 104.19 49.0803 104.007 49.4717C103.49 50.5629 101.987 54.4756 101.271 56.6263C100.555 58.777 99.568 62.7847 99.568 62.7847L98.0556 62.54C98.0556 62.54 99.4381 55.9526 100.789 53.5773C101.874 51.6685 102.959 48.9189 103.946 47.9372Z" fill="#455A64"/>
<path d="M100.858 57.9709C100.825 58.0273 100.799 58.0872 100.78 58.1495C100.737 58.2675 100.676 58.4374 100.607 58.6562C100.468 59.0852 100.298 59.6869 100.125 60.3548C99.9519 61.0228 99.8104 61.6274 99.7123 62.0679C99.6661 62.2781 99.6286 62.4508 99.5997 62.5919C99.5819 62.6548 99.5712 62.7195 99.568 62.7848C99.5953 62.7249 99.6156 62.6622 99.6286 62.5977C99.6661 62.4624 99.7123 62.2867 99.7671 62.0823L100.203 60.375C100.373 59.707 100.535 59.1053 100.662 58.6735C100.72 58.469 100.772 58.2963 100.809 58.161C100.833 58.0998 100.849 58.036 100.858 57.9709Z" fill="#263238"/>
<path d="M98.8089 62.6634V62.6231L98.8263 62.5051C98.8407 62.3986 98.8551 62.246 98.8869 62.0473C98.9417 61.65 99.0427 61.0799 99.2044 60.3861C99.397 59.5709 99.6331 58.7664 99.9115 57.9763C100.22 57.0837 100.61 56.1192 101.052 55.1202C101.94 53.125 102.827 51.3572 103.41 50.0472C103.698 49.3965 103.935 48.8639 104.085 48.4925C104.16 48.3053 104.215 48.1614 104.255 48.0635C104.273 48.0174 104.284 47.98 104.296 47.9512C104.307 47.9224 104.31 47.9109 104.296 47.9109L104.278 47.9483C104.264 47.9771 104.249 48.0117 104.229 48.0577C104.183 48.1585 104.122 48.2996 104.045 48.4781C103.886 48.8466 103.649 49.3764 103.349 50.0242C102.752 51.3255 101.857 53.0904 100.965 55.0885C100.523 56.0876 100.137 57.0549 99.8307 57.9532C99.5536 58.7455 99.3223 59.553 99.138 60.3717C99.0137 60.9241 98.9173 61.4824 98.8494 62.0444C98.8234 62.2402 98.8147 62.3986 98.8032 62.5022V62.6203C98.8051 62.649 98.807 62.6634 98.8089 62.6634Z" fill="#263238"/>
<path d="M98.0556 62.5399C98.0799 62.457 98.0973 62.3723 98.1076 62.2865C98.1364 62.1109 98.1769 61.8777 98.2259 61.5955C98.3298 61.0197 98.4886 60.2049 98.7166 59.3297C98.9446 58.4544 99.1986 57.6742 99.3948 57.1157C99.4901 56.845 99.5709 56.6233 99.6315 56.4535C99.664 56.3741 99.6901 56.2923 99.7094 56.2087C99.6681 56.2838 99.6325 56.3617 99.6026 56.4419C99.5363 56.5945 99.4439 56.8162 99.34 57.0955C99.0687 57.8212 98.8346 58.5601 98.6386 59.3095C98.4106 60.1733 98.2606 60.9967 98.1682 61.584C98.1249 61.8719 98.0931 62.1167 98.0758 62.2837C98.0625 62.3684 98.0558 62.4541 98.0556 62.5399Z" fill="#263238"/>
<path d="M94.9558 69.493H100.852V62.3241H94.9558V69.493Z" fill="#1D334A"/>
<g opacity="0.3">
<path opacity="0.3" d="M94.9558 69.493H100.852V62.3241H94.9558V69.493Z" fill="black"/>
</g>
<path d="M96.8347 69.493H102.067V62.3241H96.8347V69.493Z" fill="#1D334A"/>
<path d="M47.8569 3.28254L36.9083 6.77856L39.2709 14.141L50.2195 10.6449L47.8569 3.28254Z" fill="#1D334A"/>
<path d="M47.9219 3.354C47.9019 3.40023 47.8777 3.44456 47.8497 3.48644C47.7949 3.57857 47.7227 3.6995 47.6304 3.84921L46.8078 5.17936L44.0514 9.55272L44.0284 9.58727H43.9879L43.8927 9.54985L38.9861 7.67267L37.5055 7.09685L37.1043 6.93562C37.0563 6.91869 37.0099 6.89749 36.9658 6.87227C37.0151 6.88202 37.0635 6.89648 37.1101 6.91546L37.5199 7.05942L39.0121 7.60933L43.9187 9.46059L44.0168 9.49514L43.9533 9.51818L46.7385 5.1592C47.0935 4.61217 47.3822 4.16591 47.59 3.84921L47.8237 3.49508C47.8521 3.44518 47.8849 3.39796 47.9219 3.354Z" fill="#263238"/>
<path d="M39.3267 14.2139C39.3007 14.2139 39.8 12.9298 40.4408 11.3723C41.0815 9.81465 41.627 8.55936 41.653 8.57088C41.679 8.5824 41.1825 9.85496 40.5389 11.4126C39.8953 12.9702 39.3613 14.2254 39.3267 14.2139Z" fill="#263238"/>
<path d="M45.2723 7.31571C45.2896 7.29267 46.4268 8.03548 47.8064 8.97407C49.186 9.91266 50.3001 10.7015 50.2828 10.7015C50.2655 10.7015 49.1283 9.98464 47.7487 9.04605C46.3691 8.10746 45.255 7.34162 45.2723 7.31571Z" fill="#263238"/>
<path d="M96.2315 19.2438L88.0837 15.809C87.8174 15.6926 87.6077 15.4764 87.4997 15.2071C87.3917 14.9378 87.3942 14.637 87.5065 14.3695L92.286 3.11794C92.4022 2.85182 92.6189 2.64211 92.889 2.53431C93.1592 2.42652 93.4611 2.42932 93.7292 2.54212L98.8984 4.72448L101.15 10.5288L97.6862 18.6853C97.5663 18.9507 97.3462 19.1582 97.0739 19.2627C96.8016 19.3673 96.4989 19.3605 96.2315 19.2438Z" fill="#1D334A"/>
<path d="M98.8955 4.6958L97.5505 7.86282C97.4973 7.98698 97.4692 8.1204 97.4678 8.25543C97.4665 8.39046 97.4918 8.52442 97.5425 8.64963C97.5932 8.77484 97.6682 8.88882 97.7632 8.98503C97.8582 9.08124 97.9713 9.15778 98.096 9.21024L101.147 10.5001L98.8955 4.6958Z" fill="#1D334A"/>
<g opacity="0.2">
<path opacity="0.2" d="M97.4726 8.1593C97.3748 8.40012 97.3614 8.66686 97.4348 8.91619C97.5082 9.16551 97.6639 9.38276 97.8767 9.53264C97.9053 9.55631 97.9352 9.57842 97.9662 9.59886C98.3356 9.83782 100.76 11.4127 100.786 11.3522L101.147 10.4885L98.096 9.19866C98.096 9.19866 97.3398 8.8618 97.4726 8.1593Z" fill="black"/>
</g>
<g opacity="0.3">
<path opacity="0.3" d="M98.8955 4.6958L97.5505 7.86282C97.4973 7.98698 97.4692 8.1204 97.4678 8.25543C97.4665 8.39046 97.4918 8.52442 97.5425 8.64963C97.5932 8.77484 97.6682 8.88882 97.7632 8.98503C97.8582 9.08124 97.9713 9.15778 98.096 9.21024L101.147 10.5001L98.8955 4.6958Z" fill="white"/>
</g>
<path d="M96.9213 7.45968C96.2646 7.26898 95.6238 7.02736 95.0049 6.73702C94.3653 6.49617 93.7449 6.20744 93.149 5.87329C93.8073 6.06215 94.4492 6.30382 95.0684 6.59595C95.7078 6.83497 96.3273 7.12377 96.9213 7.45968Z" fill="#FAFAFA"/>
<path d="M98.5953 10.2638C98.578 10.3041 97.1753 9.75128 95.4609 9.02575C93.7465 8.30021 92.3726 7.68408 92.39 7.6409C92.4073 7.59771 93.81 8.15626 95.5244 8.87891C97.2388 9.60157 98.6127 10.2235 98.5953 10.2638Z" fill="#FAFAFA"/>
<path d="M98.5203 11.9971C98.503 12.0375 96.9733 11.4213 95.1059 10.6411C93.2385 9.86085 91.7377 9.18714 91.755 9.13819C91.7723 9.08925 93.2991 9.71401 95.1694 10.4943C97.0397 11.2745 98.5376 11.954 98.5203 11.9971Z" fill="#FAFAFA"/>
<path d="M97.9171 13.4079C97.8998 13.4483 96.373 12.8321 94.5056 12.0519C92.6382 11.2716 91.1373 10.5893 91.1518 10.549C91.1662 10.5087 92.6988 11.1248 94.5662 11.905C96.4336 12.6853 97.9373 13.3648 97.9171 13.4079Z" fill="#FAFAFA"/>
<path d="M97.3225 14.8158C97.3052 14.859 95.7755 14.24 93.9081 13.4627C92.0407 12.6853 90.5399 12.0001 90.5572 11.9598C90.5745 11.9194 92.1013 12.5356 93.9716 13.3158C95.8419 14.0961 97.3398 14.7755 97.3225 14.8158Z" fill="#FAFAFA"/>
<path d="M96.7222 16.2266C96.7049 16.2698 95.1752 15.6508 93.3078 14.8734C91.4404 14.0961 89.9396 13.4108 89.9569 13.3705C89.9742 13.3302 91.5039 13.9463 93.3713 14.7237C95.2387 15.5011 96.7395 16.1863 96.7222 16.2266Z" fill="#FAFAFA"/>
<path d="M68.8297 21.6306C74.7834 21.6306 79.6098 16.8161 79.6098 10.8771C79.6098 4.93815 74.7834 0.123657 68.8297 0.123657C62.8761 0.123657 58.0497 4.93815 58.0497 10.8771C58.0497 16.8161 62.8761 21.6306 68.8297 21.6306Z" fill="white"/>
<path d="M79.6098 10.8772C79.6098 10.8772 79.6098 10.8196 79.5925 10.7044C79.5751 10.5893 79.5723 10.4165 79.5578 10.1919C79.5578 10.0797 79.5434 9.95585 79.5347 9.81765C79.5261 9.67946 79.4914 9.52974 79.4683 9.36851C79.42 8.99412 79.3448 8.62368 79.2432 8.26005C78.9914 7.25432 78.5886 6.29238 78.0483 5.40686C77.2657 4.106 76.2157 2.98523 74.9676 2.1183C73.7194 1.25137 72.3014 0.657937 70.8068 0.377055C70.3597 0.294145 69.9074 0.242196 69.4531 0.221583C69.2222 0.221583 68.9885 0.189912 68.7547 0.192791L68.0447 0.23022C67.9263 0.23022 67.8051 0.230221 67.6868 0.253254L67.3289 0.307956C67.0922 0.348264 66.8498 0.377055 66.6102 0.426C65.6276 0.646162 64.6778 0.992631 63.7846 1.45672C63.5595 1.57764 63.343 1.7216 63.1179 1.85404C63.0082 1.92314 62.8928 1.9836 62.786 2.06133L62.4714 2.29742C61.5975 2.93048 60.8332 3.70168 60.2086 4.58055L59.9632 4.90877L59.7468 5.26002L59.5303 5.59976C59.454 5.71549 59.3864 5.83675 59.3283 5.96253C59.2099 6.21301 59.0887 6.46349 58.9646 6.71685L58.676 7.50573C58.3237 8.59569 58.137 9.73207 58.1218 10.8772C58.137 12.0213 58.3238 13.1567 58.676 14.2457C58.7712 14.5106 58.8693 14.7755 58.9646 15.0375C59.0598 15.2995 59.207 15.5413 59.3283 15.7889C59.3858 15.916 59.4533 16.0382 59.5303 16.1546L59.7468 16.5087L59.9603 16.86L60.2086 17.1882C60.5287 17.6245 60.8788 18.0382 61.2563 18.4262C61.638 18.7962 62.0439 19.1405 62.4714 19.4569L62.786 19.693C62.8928 19.7707 63.0082 19.8312 63.1179 19.9003C63.343 20.0327 63.5595 20.1882 63.7846 20.2976C64.6778 20.7617 65.6276 21.1082 66.6102 21.3283C66.8498 21.3802 67.0922 21.4061 67.3318 21.4464L67.6868 21.5011C67.808 21.5011 67.9263 21.5011 68.0447 21.5241L68.7662 21.5673C69 21.5673 69.2338 21.5471 69.4647 21.5414C69.919 21.5198 70.3713 21.4669 70.8183 21.383C72.3133 21.1032 73.7318 20.5102 74.9801 19.6432C76.2284 18.7761 77.2781 17.6548 78.0599 16.3532C78.5956 15.4688 78.9945 14.5089 79.2432 13.5058C79.3448 13.1422 79.42 12.7717 79.4683 12.3973C79.4914 12.2361 79.5203 12.0864 79.5347 11.9482C79.5492 11.81 79.5521 11.6862 79.5578 11.5739C79.5732 11.3513 79.5848 11.1814 79.5925 11.0643C79.5925 10.9491 79.6098 10.8887 79.6098 10.8887C79.6098 10.8887 79.6098 10.9491 79.6098 11.0643C79.6098 11.1795 79.6098 11.3522 79.5925 11.5739C79.5925 11.6891 79.5925 11.8129 79.5751 11.954C79.5578 12.095 79.5376 12.2419 79.5145 12.4031C79.4701 12.7753 79.3987 13.1438 79.3009 13.5058C79.0564 14.5197 78.6583 15.4906 78.1205 16.3849C77.3385 17.7044 76.284 18.8428 75.0269 19.7244C73.7699 20.606 72.3392 21.2107 70.8299 21.4982C70.378 21.5829 69.921 21.6367 69.4618 21.6594C69.228 21.6594 68.9913 21.6911 68.7547 21.6882L68.036 21.6537C67.9148 21.6537 67.7936 21.6537 67.6723 21.6306L67.3231 21.5673C67.0807 21.527 66.8353 21.5011 66.5929 21.4493C66.1028 21.3422 65.6206 21.2017 65.1498 21.0289C64.6639 20.856 64.1904 20.6501 63.7326 20.4128C63.5046 20.289 63.2824 20.145 63.0573 20.0097C62.9447 19.9377 62.8264 19.8773 62.7196 19.7995L62.4021 19.5606C61.9689 19.2403 61.5572 18.8922 61.1697 18.5183C60.7864 18.1246 60.4306 17.7052 60.1047 17.263L59.8536 16.9319L59.6342 16.5749L59.4177 16.215C59.3394 16.098 59.2708 15.9748 59.2128 15.8465C59.0916 15.5931 58.9675 15.3398 58.8463 15.0835L58.5576 14.2803C58.2018 13.1762 58.0131 12.0253 57.9977 10.8656C58.0066 9.70984 58.1885 8.56185 58.5374 7.45966L58.8261 6.65927L59.1955 5.89343C59.2531 5.76553 59.3207 5.64232 59.3975 5.5249L59.6169 5.16789L59.8334 4.81088L60.0845 4.47691C60.4111 4.03627 60.7669 3.61788 61.1495 3.22449C61.537 2.85063 61.9487 2.50247 62.3819 2.18226L62.6994 1.94329C62.8062 1.86555 62.9245 1.80509 63.0371 1.73312C63.2622 1.60068 63.4844 1.4452 63.7124 1.33292C64.6179 0.864841 65.5803 0.515493 66.5756 0.293561C66.818 0.244616 67.0633 0.215825 67.3058 0.175517L67.6666 0.120814C67.7878 0.120814 67.909 0.120814 68.0302 0.0977814L68.7489 0.0632324C68.9856 0.0632324 69.2194 0.0833857 69.4531 0.0920231C69.9132 0.115973 70.3711 0.169831 70.8241 0.253254C72.3334 0.540787 73.7642 1.14545 75.0212 2.02706C76.2782 2.90868 77.3327 4.04706 78.1147 5.36655C78.6525 6.26086 79.0506 7.23171 79.2952 8.24566C79.3926 8.6124 79.4631 8.98576 79.5059 9.36275C79.529 9.52686 79.5549 9.67658 79.5665 9.81477L79.5838 10.1919C79.5838 10.4136 79.5982 10.5835 79.6011 10.7044C79.604 10.8253 79.6098 10.8772 79.6098 10.8772Z" fill="#263238"/>
<path d="M73.9412 10.5749C73.8001 10.6266 73.6554 10.668 73.5083 10.6987L72.3047 10.9866C71.2859 11.2227 69.8717 11.5423 68.29 11.8877L68.2005 11.9079V11.4904C68.2005 9.80615 68.2005 8.28022 68.2207 7.17177C68.2207 6.64201 68.2409 6.20151 68.2467 5.86465C68.2424 5.70481 68.252 5.54489 68.2756 5.38672C68.2973 5.54507 68.3069 5.70484 68.3044 5.86465C68.3044 6.20151 68.3189 6.64201 68.3275 7.17177C68.3275 8.27734 68.3506 9.80327 68.3506 11.4904V11.8043L68.2583 11.7294C69.8399 11.3868 71.257 11.0845 72.2817 10.8657L73.4939 10.6267C73.6411 10.5956 73.7908 10.5783 73.9412 10.5749Z" fill="#263238"/>
<path d="M80.3804 15.3111C80.3908 15.2511 80.4072 15.1922 80.4294 15.1355C80.4612 15.0232 80.5276 14.8476 80.5853 14.646C80.771 14.042 80.9118 13.4252 81.0067 12.8005C81.3366 10.7365 81.1392 8.62289 80.4329 6.65517C79.7266 4.68745 78.5342 2.92923 76.966 1.5432C76.496 1.12396 75.9964 0.739078 75.4709 0.391559C75.2862 0.261999 75.1332 0.175626 75.038 0.103648C74.9852 0.0732522 74.935 0.0385864 74.8879 0C74.9464 0.0174194 75.0018 0.0436328 75.0524 0.0777361C75.1534 0.135318 75.3122 0.213054 75.5026 0.336855C76.0451 0.669761 76.5587 1.04728 77.0381 1.46547C78.6398 2.84783 79.8557 4.61997 80.5678 6.60969C81.2799 8.59941 81.4639 10.739 81.1019 12.8207C80.9996 13.4445 80.8461 14.0588 80.643 14.6575C80.5737 14.8706 80.4987 15.0318 80.4583 15.1412C80.4389 15.2006 80.4128 15.2576 80.3804 15.3111Z" fill="#263238"/>
<path d="M82.4469 10.0192C82.4239 10.0192 82.4094 9.59019 82.3228 8.90496C82.2072 8.01395 82.0042 7.13642 81.7167 6.28497C81.4265 5.4371 81.0524 4.6202 80.5998 3.84637C80.2476 3.25039 79.9937 2.9049 80.0225 2.8905C80.1003 2.95536 80.1683 3.03098 80.2246 3.11507C80.3429 3.27054 80.5132 3.49799 80.6979 3.78878C81.189 4.55441 81.5863 5.37603 81.8812 6.23603C82.1784 7.09593 82.3722 7.98797 82.4585 8.89344C82.4902 9.23894 82.4989 9.52109 82.4989 9.71687C82.4976 9.81973 82.48 9.92174 82.4469 10.0192Z" fill="#263238"/>
<path d="M58.067 4.64954C58.0497 4.70698 58.0255 4.7621 57.9948 4.81365C57.9429 4.92017 57.8534 5.06989 57.761 5.2743C56.6742 7.42825 56.2356 9.85001 56.4983 12.2471C56.7611 14.6443 57.7139 16.9143 59.2417 18.7831C59.6394 19.2737 60.0714 19.7355 60.5347 20.1651C60.6963 20.3205 60.8233 20.4299 60.9186 20.5105C60.9649 20.5495 61.0083 20.5919 61.0484 20.6372C60.9943 20.6091 60.9439 20.5742 60.8984 20.5336C60.806 20.4616 60.6646 20.358 60.4972 20.2082C60.0151 19.7926 59.5681 19.3381 59.1608 18.8493C57.7988 17.231 56.88 15.2883 56.4941 13.2106C56.1082 11.1329 56.2682 8.99084 56.9587 6.99313C57.1622 6.39136 57.4162 5.80773 57.7177 5.24839C57.8188 5.04685 57.9169 4.90002 57.9746 4.79925C58.0012 4.74688 58.0321 4.6968 58.067 4.64954Z" fill="#263238"/>
<path d="M55.1836 9.54724C55.2096 9.54724 55.1548 9.97623 55.1317 10.6672C55.101 11.5645 55.162 12.4626 55.3135 13.3477C55.4681 14.2336 55.7118 15.1017 56.0408 15.9389C56.2919 16.5809 56.4882 16.9638 56.4651 16.9753C56.4002 16.8974 56.3458 16.8112 56.3035 16.7191C56.2082 16.5492 56.0812 16.2988 55.9427 15.9792C55.5803 15.1495 55.3187 14.2796 55.1634 13.388C55.0102 12.4925 54.9637 11.5822 55.0249 10.6759C55.0509 10.3275 55.0855 10.0482 55.1172 9.85531C55.1253 9.7501 55.1477 9.64647 55.1836 9.54724Z" fill="#263238"/>
<path d="M77.7539 12.6421C77.3469 12.5586 77.0179 12.4866 77.0179 12.4837C77.0179 12.4809 77.3498 12.5442 77.7568 12.6277C78.1637 12.7112 78.4928 12.7803 78.4899 12.7832C78.487 12.786 78.158 12.7371 77.7539 12.6421Z" fill="#263238"/>
<path d="M76.7091 15.3629C76.3512 15.1527 76.0626 14.98 76.0626 14.9771C76.0626 14.9742 76.3512 15.1412 76.7149 15.3514C77.0786 15.5615 77.3614 15.7343 77.3585 15.7372C77.3556 15.7401 77.0641 15.5731 76.7091 15.3629Z" fill="#263238"/>
<path d="M74.8273 17.5856C74.556 17.2689 74.3395 17.0098 74.3424 17.0098C74.3453 17.0098 74.5676 17.2602 74.836 17.5856C75.1044 17.9109 75.3238 18.1614 75.318 18.1614C75.3122 18.1614 75.1159 17.8994 74.8273 17.5856Z" fill="#263238"/>
<path d="M72.3422 19.0827C72.1893 18.6969 72.0681 18.3831 72.0709 18.3831C72.0738 18.3831 72.2008 18.6911 72.3596 19.0769C72.5183 19.4627 72.6338 19.7737 72.628 19.7765C72.6222 19.7794 72.4952 19.4656 72.3422 19.0827Z" fill="#263238"/>
<path d="M69.4964 19.6901C69.4791 19.2755 69.4676 18.9415 69.4704 18.9415C69.4733 18.9415 69.4935 19.2755 69.5108 19.6901C69.5282 20.1047 69.5426 20.4387 69.5397 20.4387C69.5368 20.4387 69.5166 20.1047 69.4964 19.6901Z" fill="#263238"/>
<path d="M66.6073 19.3419C66.7228 18.9446 66.818 18.625 66.8238 18.625C66.8296 18.625 66.7372 18.9503 66.6217 19.3477C66.5063 19.745 66.4082 20.0646 66.4024 20.0646C66.3966 20.0646 66.489 19.7392 66.6073 19.3419Z" fill="#263238"/>
<path d="M63.9837 18.0807C64.2233 17.7409 64.4196 17.4703 64.4253 17.4732C64.4311 17.476 64.2348 17.7611 63.9953 18.0893C63.7557 18.4175 63.571 18.6882 63.571 18.6882C63.571 18.6882 63.7442 18.4175 63.9837 18.0807Z" fill="#263238"/>
<path d="M61.9201 16.0363C62.2549 15.7916 62.5291 15.5987 62.532 15.6016C62.5349 15.6045 62.2636 15.8031 61.9259 16.0479C61.5882 16.2926 61.3169 16.4826 61.314 16.4797C61.3111 16.4768 61.5824 16.2782 61.9201 16.0363Z" fill="#263238"/>
<path d="M60.6271 13.4337C61.0254 13.3128 61.3486 13.2178 61.3486 13.2206C61.3486 13.2235 61.0283 13.3272 60.63 13.4481C60.2317 13.569 59.9113 13.6611 59.9113 13.6583C59.9113 13.6554 60.2317 13.5546 60.6271 13.4337Z" fill="#263238"/>
<path d="M60.2548 10.5547C60.6704 10.5547 61.0052 10.5835 61.0052 10.5892C61.0052 10.595 60.6675 10.5892 60.2548 10.5691C59.842 10.5489 59.5015 10.5374 59.5043 10.5345C59.5072 10.5316 59.8391 10.5374 60.2548 10.5547Z" fill="#263238"/>
<path d="M60.8377 7.70726C61.2274 7.85697 61.5391 7.97789 61.5391 7.99517C61.5391 8.01244 61.2216 7.88 60.832 7.73317C60.4423 7.58633 60.1335 7.46253 60.1335 7.45965C60.1335 7.45677 60.451 7.56042 60.8377 7.70726Z" fill="#263238"/>
<path d="M62.3184 5.20543C62.6359 5.47318 62.8956 5.692 62.8956 5.69488C62.8956 5.69776 62.633 5.4847 62.3184 5.21694C62.0038 4.94919 61.7411 4.73325 61.7411 4.73038C61.7411 4.7275 61.998 4.94055 62.3184 5.20543Z" fill="#263238"/>
<path d="M64.5293 3.32229C64.7428 3.67642 64.916 3.96433 64.9131 3.96721C64.9102 3.97009 64.7313 3.6793 64.5177 3.32805C64.3041 2.9768 64.131 2.68601 64.1338 2.68313C64.1367 2.68025 64.3157 2.96816 64.5293 3.32229Z" fill="#263238"/>
<path d="M67.2336 2.25121C67.3202 2.65716 67.3895 2.98538 67.3866 2.98538C67.3837 2.98538 67.3087 2.66004 67.2192 2.25409C67.1297 1.84813 67.0633 1.5228 67.0691 1.51992C67.0749 1.51704 67.147 1.84813 67.2336 2.25121Z" fill="#263238"/>
<path d="M70.1401 2.11886C70.091 2.53057 70.0477 2.86167 70.0448 2.86167C70.0419 2.86167 70.0766 2.52769 70.1285 2.11598C70.1805 1.70427 70.2209 1.37317 70.2238 1.37317C70.2266 1.37317 70.192 1.70139 70.1401 2.11886Z" fill="#263238"/>
<path d="M72.9368 2.93364C72.7578 3.30505 72.6078 3.60735 72.6049 3.60447C72.602 3.60159 72.7434 3.29929 72.9224 2.925C73.1013 2.55072 73.2514 2.25129 73.2572 2.25417C73.2629 2.25705 73.1157 2.56511 72.9368 2.93364Z" fill="#263238"/>
<path d="M75.3122 4.60946C75.0235 4.89737 74.7811 5.13922 74.7782 5.13634C74.7753 5.13346 75.012 4.89162 75.3035 4.59795C75.595 4.30428 75.8346 4.06819 75.8375 4.07107C75.8403 4.07395 75.6066 4.31579 75.3122 4.60946Z" fill="#263238"/>
<path d="M77.0151 6.9616C76.6427 7.14587 76.3397 7.2927 76.3397 7.28982C76.3397 7.28694 76.6283 7.13435 77.0093 6.95009C77.3903 6.76582 77.6847 6.61899 77.6847 6.62187C77.6847 6.62475 77.3874 6.77734 77.0151 6.9616Z" fill="#263238"/>
<path d="M77.8636 9.73984L77.1161 9.82909C77.1161 9.82909 77.448 9.77727 77.8607 9.72545C78.2734 9.67362 78.6054 9.63044 78.6054 9.63331C78.6054 9.63619 78.2734 9.68514 77.8636 9.73984Z" fill="#263238"/>
<path d="M83.1974 8.7467C83.0373 9.23285 82.8304 9.70241 82.5797 10.1488L82.5624 10.1805L82.5047 10.2985L82.4325 10.1891C82.1421 9.78481 81.8927 9.35275 81.6879 8.8993C82.0208 9.27086 82.3166 9.67392 82.571 10.1028H82.4412L82.4585 10.0682C82.6613 9.6049 82.9088 9.16232 83.1974 8.7467Z" fill="#263238"/>
<path d="M88.1039 33.0608H54.1821C53.3853 33.0608 52.621 33.3766 52.0576 33.9386C51.4941 34.5007 51.1776 35.2631 51.1776 36.0579C51.1776 36.8528 51.4941 37.6152 52.0576 38.1773C52.621 38.7393 53.3853 39.0551 54.1821 39.0551H70.0564L73.6093 42.4323V39.0551H88.1039C88.4985 39.0551 88.8892 38.9776 89.2537 38.827C89.6183 38.6763 89.9495 38.4556 90.2285 38.1773C90.5075 37.8989 90.7288 37.5685 90.8798 37.2049C91.0308 36.8413 91.1085 36.4515 91.1085 36.0579C91.1085 35.6644 91.0308 35.2746 90.8798 34.911C90.7288 34.5474 90.5075 34.217 90.2285 33.9386C89.9495 33.6603 89.6183 33.4396 89.2537 33.2889C88.8892 33.1383 88.4985 33.0608 88.1039 33.0608Z" fill="#FAFAFA"/>
<path d="M88.1039 33.0609H88.2136C88.3238 33.062 88.4337 33.0707 88.5426 33.0868C88.9713 33.1441 89.3821 33.2945 89.7462 33.5273C90.0944 33.7485 90.3936 34.0384 90.6253 34.3793C90.8569 34.7201 91.0162 35.1047 91.0933 35.5093C91.1703 35.9138 91.1635 36.3299 91.0733 36.7317C90.9831 37.1336 90.8114 37.5128 90.5688 37.846C90.2408 38.3014 89.7934 38.658 89.2757 38.8767C88.9983 38.9887 88.7071 39.0633 88.4099 39.0984C88.101 39.1214 87.7951 39.1128 87.4776 39.1157H83.3907H73.6035L73.6699 39.0494C73.6699 40.1089 73.6699 41.2548 73.6699 42.4266V42.585L73.5545 42.4756L69.9986 39.0984L70.0477 39.1185H56.5575H54.2023C53.4161 39.1267 52.6566 38.8343 52.0797 38.3014C51.5028 37.7685 51.1523 37.0355 51.1003 36.2529C51.0482 35.4703 51.2984 34.6975 51.7996 34.0932C52.3008 33.4888 53.015 33.0989 53.7954 33.0033C54.1706 32.963 54.5313 32.9832 54.895 32.9774H60.1768L74.7118 32.9947L84.525 33.0177L87.189 33.0321H87.8817C88.0376 33.0321 88.1184 33.0321 88.1184 33.0321H87.8817H87.189L84.525 33.0465L74.7118 33.0724H60.1768H54.895C54.5342 33.0724 54.1648 33.0724 53.8156 33.0983C53.0926 33.1879 52.4295 33.5444 51.9568 34.0974C51.5928 34.5235 51.359 35.0449 51.2832 35.5996C51.2073 36.1544 51.2927 36.7192 51.5292 37.227C51.7656 37.7348 52.1432 38.1642 52.617 38.4643C53.0908 38.7643 53.6411 38.9225 54.2023 38.9199H56.5575H70.0477H70.0766L70.0968 38.9371L73.6497 42.3172L73.5343 42.3662C73.5343 41.1944 73.5343 40.0485 73.5343 38.989V38.9256H73.5978H83.385H87.4719C87.7864 38.9256 88.0982 38.9256 88.3954 38.9256C88.6855 38.8935 88.9699 38.8228 89.2411 38.7155C89.8394 38.4643 90.3392 38.0251 90.6646 37.4647C90.9899 36.9044 91.123 36.2534 91.0437 35.6107C90.9643 34.968 90.6768 34.3686 90.2249 33.9038C89.773 33.4389 89.1813 33.1338 88.5398 33.035C88.254 33.0638 88.1039 33.0839 88.1039 33.0609Z" fill="#263238"/>
<path d="M69.0173 38.1768H54.1619C53.8828 38.1772 53.6064 38.1226 53.3485 38.0163C53.0906 37.9099 52.8563 37.7538 52.659 37.557C52.4616 37.3602 52.3052 37.1264 52.1986 36.8691C52.0919 36.6119 52.0373 36.3362 52.0376 36.0578C52.0392 35.497 52.2637 34.9598 52.662 34.5641C53.0603 34.1684 53.5998 33.9466 54.1619 33.9474H69.0173C69.2961 33.947 69.5723 34.0015 69.83 34.1076C70.0877 34.2138 70.3219 34.3696 70.5192 34.5662C70.7165 34.7627 70.873 34.9961 70.9798 35.2531C71.0866 35.51 71.1416 35.7854 71.1416 36.0635C71.1412 36.3414 71.0859 36.6165 70.979 36.8731C70.872 37.1297 70.7154 37.3628 70.5182 37.559C70.3209 37.7553 70.0869 37.9108 69.8293 38.0168C69.5718 38.1228 69.2959 38.1772 69.0173 38.1768Z" fill="#1D334A"/>
<path d="M70.2613 29.9713L69.7591 31.503H69.3781L69.0404 30.4665L68.6912 31.503H68.3131L67.808 29.9713H68.189L68.5353 31.0481L68.8961 29.9713H69.2251L69.5773 31.0567L69.9323 29.9713H70.2613Z" fill="#263238"/>
<path d="M70.345 30.7372C70.3358 30.5698 70.3771 30.4035 70.4636 30.2598C70.5501 30.1161 70.6778 30.0016 70.8302 29.9311C70.9826 29.8605 71.1528 29.8372 71.3186 29.8642C71.4844 29.8911 71.6384 29.967 71.7605 30.0822C71.8826 30.1973 71.9673 30.3463 72.0037 30.51C72.04 30.6736 72.0263 30.8444 71.9643 31.0002C71.9023 31.1559 71.7949 31.2896 71.656 31.3839C71.517 31.4781 71.3529 31.5287 71.1849 31.5289C71.0768 31.5352 70.9686 31.5194 70.867 31.4824C70.7653 31.4454 70.6722 31.3881 70.5936 31.314C70.5149 31.2398 70.4523 31.1504 70.4095 31.0512C70.3668 30.952 70.3448 30.8451 70.345 30.7372ZM71.664 30.7372C71.6617 30.6432 71.6317 30.5519 71.5777 30.4748C71.5237 30.3978 71.4481 30.3383 71.3604 30.3039C71.2727 30.2695 71.1767 30.2617 71.0845 30.2814C70.9924 30.3011 70.9081 30.3475 70.8422 30.4148C70.7764 30.482 70.7319 30.5672 70.7143 30.6596C70.6967 30.752 70.7069 30.8475 70.7435 30.9341C70.78 31.0208 70.8414 31.0948 70.92 31.1468C70.9985 31.1988 71.0906 31.2266 71.1849 31.2266C71.2483 31.2267 71.311 31.2139 71.3693 31.189C71.4276 31.1642 71.4802 31.1277 71.524 31.082C71.5677 31.0362 71.6016 30.982 71.6237 30.9227C71.6458 30.8635 71.6556 30.8003 71.6525 30.7372H71.664Z" fill="#263238"/>
<path d="M73.2716 31.503L72.983 31.0769H72.6568V31.503H72.3018V29.9713H72.9657C73.3755 29.9713 73.6324 30.1844 73.6324 30.527C73.6369 30.6306 73.6087 30.7331 73.5518 30.8198C73.4948 30.9066 73.4119 30.9734 73.3149 31.0107L73.6612 31.503H73.2716ZM72.9368 30.2592H72.6482V30.7947H72.9368C73.1533 30.7947 73.2629 30.694 73.2629 30.527C73.2629 30.36 73.1533 30.2592 72.9368 30.2592Z" fill="#263238"/>
<path d="M74.4636 30.9013L74.2558 31.1143V31.503H73.9037V29.9713H74.25V30.6853L74.9312 29.9713H75.3266L74.6887 30.6537L75.3641 31.503H74.9485L74.4636 30.9013Z" fill="#263238"/>
<path d="M84.2133 36.619H83.7746L83.6678 37.1718H83.3561L83.4687 36.619H82.2218L82.2622 36.3974L83.688 34.9319H84.0632L82.698 36.3455H83.5437L83.6418 35.859H83.9305L83.8323 36.3455H84.2595L84.2133 36.619Z" fill="#263238"/>
<path d="M85.1369 35.2115L84.9522 35.8247H85.1686C85.7459 35.8247 86.0028 36.0608 86.0028 36.4236C86.0028 36.8871 85.6218 37.1952 85.0474 37.1952C84.9038 37.2036 84.7599 37.1823 84.6249 37.1328C84.4898 37.0832 84.3664 37.0065 84.2624 36.9073L84.4327 36.6597C84.5158 36.7428 84.6156 36.8075 84.7255 36.8497C84.8354 36.8919 84.9529 36.9105 85.0705 36.9044C85.4573 36.9044 85.6824 36.7345 85.6824 36.4495C85.6824 36.2278 85.5237 36.0954 85.1051 36.0954H84.5625L84.9118 34.9236H86.1759L86.124 35.2115H85.1369Z" fill="#263238"/>
<path d="M86.3722 35.6461C86.3627 35.5575 86.3712 35.4679 86.3972 35.3826C86.4232 35.2974 86.4662 35.2182 86.5236 35.1499C86.581 35.0817 86.6516 35.0256 86.7313 34.9852C86.8109 34.9448 86.8979 34.9209 86.987 34.9148C87.0501 34.9122 87.1129 34.9234 87.1713 34.9475C87.2296 34.9716 87.282 35.008 87.3248 35.0543C87.3676 35.1006 87.3998 35.1556 87.4193 35.2155C87.4387 35.2754 87.4448 35.3388 87.4372 35.4014C87.4472 35.4898 87.4391 35.5793 87.4134 35.6646C87.3877 35.7498 87.345 35.829 87.2878 35.8973C87.2307 35.9657 87.1602 36.0217 87.0807 36.0622C87.0012 36.1026 86.9144 36.1266 86.8254 36.1326C86.7622 36.1351 86.6992 36.1239 86.6407 36.0999C86.5823 36.0758 86.5298 36.0394 86.4867 35.9932C86.4437 35.947 86.4112 35.8921 86.3914 35.8321C86.3716 35.7722 86.3651 35.7087 86.3722 35.6461ZM88.3637 34.9321H88.6206L86.6608 37.172H86.3982L88.3637 34.9321ZM87.2381 35.4186C87.2381 35.2056 87.1399 35.0962 86.9783 35.0962C86.7186 35.0962 86.5916 35.3841 86.5916 35.6288C86.5916 35.8735 86.6897 35.9513 86.8513 35.9513C87.1082 35.9628 87.2381 35.6749 87.2381 35.4186ZM87.5931 36.7027C87.5831 36.6142 87.5913 36.5246 87.6172 36.4393C87.6431 36.354 87.6861 36.2749 87.7436 36.2068C87.8011 36.1386 87.872 36.0829 87.9518 36.0429C88.0316 36.0029 88.1187 35.9796 88.2078 35.9743C88.2708 35.9717 88.3336 35.9828 88.3918 36.0069C88.45 36.031 88.5023 36.0675 88.5449 36.1139C88.5875 36.1602 88.6194 36.2153 88.6385 36.2752C88.6575 36.3351 88.6633 36.3985 88.6552 36.4609C88.6652 36.5492 88.657 36.6386 88.6313 36.7236C88.6056 36.8087 88.5629 36.8877 88.5057 36.9558C88.4485 37.0239 88.378 37.0797 88.2985 37.1198C88.219 37.16 88.1322 37.1836 88.0433 37.1893C87.9799 37.1928 87.9165 37.1823 87.8575 37.1585C87.7986 37.1348 87.7456 37.0984 87.7024 37.052C87.6591 37.0056 87.6267 36.9502 87.6073 36.8898C87.5879 36.8295 87.5821 36.7656 87.5902 36.7027H87.5931ZM88.459 36.4753C88.459 36.2651 88.3579 36.1528 88.1992 36.1528C87.9423 36.1528 87.8096 36.4407 87.8096 36.6883C87.8096 36.9359 87.9135 37.0108 88.0693 37.0108C88.3146 37.0108 88.4445 36.72 88.4445 36.4753H88.459Z" fill="#263238"/>
<g opacity="0.3">
<path opacity="0.3" d="M54.7363 33.9417L53.3596 38.1768H54.7363L56.0293 33.9417H54.7363Z" fill="white"/>
</g>
<g opacity="0.3">
<path opacity="0.3" d="M58.1363 33.9417L56.7595 38.1768H58.1363L59.4293 33.9417H58.1363Z" fill="white"/>
</g>
<g opacity="0.3">
<path opacity="0.3" d="M61.5333 33.9417L60.1595 38.1768H61.5333L62.8293 33.9417H61.5333Z" fill="white"/>
</g>
<g opacity="0.3">
<path opacity="0.3" d="M64.9333 33.9417L63.5595 38.1768H64.9333L66.2293 33.9417H64.9333Z" fill="white"/>
</g>
<g opacity="0.3">
<path opacity="0.3" d="M68.3333 33.9417L66.9566 38.1768H68.3333L69.6292 33.9417H68.3333Z" fill="white"/>
</g>
<path d="M16.8141 93.8847C16.8141 93.8847 24.125 97.1698 31.7388 97.1698C38.787 97.1698 46.2479 93.6313 46.2479 93.6313L16.8141 93.8847Z" fill="#E0E0E0"/>
<path d="M32.5325 93.9481H29.5135V125.495H32.5325V93.9481Z" fill="#E0E0E0"/>
<path d="M44.418 123.643H17.6223V125.492H44.418V123.643Z" fill="#E0E0E0"/>
<path d="M20.901 126.099C20.9022 126.503 20.7831 126.899 20.5588 127.235C20.3345 127.572 20.0151 127.834 19.6411 127.989C19.2671 128.145 18.8554 128.186 18.458 128.107C18.0605 128.029 17.6954 127.835 17.4087 127.549C17.1221 127.264 16.9269 126.9 16.8478 126.503C16.7687 126.107 16.8093 125.696 16.9644 125.323C17.1196 124.95 17.3823 124.631 17.7193 124.407C18.0563 124.182 18.4525 124.063 18.8576 124.064C19.3988 124.064 19.9177 124.279 20.3007 124.66C20.6836 125.042 20.8995 125.559 20.901 126.099Z" fill="#263238"/>
<path d="M32.8096 126.099C32.8096 126.503 32.6896 126.897 32.4647 127.233C32.2399 127.569 31.9203 127.83 31.5464 127.985C31.1724 128.139 30.761 128.18 30.364 128.101C29.9671 128.022 29.6025 127.828 29.3163 127.542C29.0301 127.257 28.8352 126.893 28.7562 126.497C28.6773 126.101 28.7178 125.691 28.8727 125.318C29.0276 124.945 29.2899 124.626 29.6264 124.402C29.9629 124.177 30.3585 124.058 30.7633 124.058C31.306 124.058 31.8265 124.273 32.2102 124.656C32.594 125.038 32.8096 125.558 32.8096 126.099Z" fill="#263238"/>
<path d="M46.6029 126.099C46.6029 126.503 46.4829 126.897 46.258 127.233C46.0332 127.569 45.7136 127.83 45.3396 127.985C44.9657 128.139 44.5543 128.18 44.1573 128.101C43.7604 128.022 43.3958 127.828 43.1096 127.542C42.8234 127.257 42.6285 126.893 42.5495 126.497C42.4706 126.101 42.5111 125.691 42.666 125.318C42.8209 124.945 43.0831 124.626 43.4197 124.402C43.7562 124.177 44.1518 124.058 44.5565 124.058C45.0993 124.058 45.6198 124.273 46.0035 124.656C46.3873 125.038 46.6029 125.558 46.6029 126.099Z" fill="#263238"/>
<path d="M31.7359 105.301H27.6288V106.996H31.7359V105.301Z" fill="#E0E0E0"/>
<path d="M28.3764 104.114H26.8813V108.182H28.3764V104.114Z" fill="#E0E0E0"/>
<path d="M16.0983 45.8699H28.359V89.8713H12.7503V49.2068C12.7518 48.3217 13.1052 47.4734 13.7328 46.8479C14.3604 46.2223 15.2111 45.8706 16.0983 45.8699Z" fill="#455A64"/>
<path d="M16.2023 89.2032C16.1618 89.2032 16.1272 79.656 16.1272 67.8805C16.1272 56.1049 16.1618 46.5549 16.2023 46.5549C16.2427 46.5549 16.2773 56.1021 16.2773 67.8805C16.2773 79.6589 16.2369 89.2032 16.2023 89.2032Z" fill="#263238"/>
<path d="M12.7503 89.782H51.3709V94.5671H15.0449C14.4325 94.5671 13.8452 94.3244 13.4122 93.8925C12.9792 93.4605 12.7359 92.8747 12.7359 92.2638V89.7705L12.7503 89.782Z" fill="#455A64"/>
<path d="M34.6106 28.4772L32.9366 44.3958C32.648 47.105 32.7894 51.1386 37.1014 51.392C40.8535 51.3315 42.1696 47.9083 42.4323 45.3833C42.5593 44.1827 42.6632 43.1836 42.6863 43.0627C42.6863 43.0627 46.7876 43.1059 47.5034 39.1241C47.8497 37.2009 48.2365 33.1816 48.5453 29.5424C48.7051 27.6565 48.1469 25.7797 46.982 24.2858C45.8171 22.7919 44.1309 21.7905 42.2591 21.4809L41.8724 21.4147C37.6729 20.9598 34.9425 24.2679 34.6106 28.4772Z" fill="#FFBE9D"/>
<path d="M42.6863 43.054C40.8399 42.7427 39.1219 41.9094 37.7364 40.6528C37.7364 40.6528 38.5186 43.7767 42.5679 44.0819L42.6863 43.054Z" fill="#EB996E"/>
<path d="M41.5174 30.5442C41.4308 30.6162 41.0007 30.2016 40.3282 30.121C39.6557 30.0403 39.1218 30.3254 39.0583 30.2332C39.0265 30.1901 39.1247 30.049 39.3469 29.9165C39.6603 29.7452 40.0201 29.6777 40.3744 29.7236C40.7251 29.7676 41.0527 29.9219 41.3095 30.1641C41.5087 30.3513 41.5606 30.5096 41.5174 30.5442Z" fill="#263238"/>
<path d="M41.451 32.0847C41.4288 32.2255 41.3525 32.3521 41.2382 32.4376C41.124 32.5231 40.9808 32.5607 40.8391 32.5425C40.7697 32.5364 40.7023 32.5166 40.6407 32.4842C40.579 32.4519 40.5245 32.4076 40.4802 32.354C40.4359 32.3005 40.4027 32.2386 40.3825 32.1721C40.3624 32.1056 40.3557 32.0358 40.3629 31.9667C40.3857 31.8263 40.4622 31.7001 40.5763 31.6147C40.6904 31.5294 40.8332 31.4915 40.9747 31.5089C41.0441 31.515 41.1116 31.5349 41.1732 31.5672C41.2348 31.5996 41.2893 31.6438 41.3337 31.6974C41.378 31.751 41.4112 31.8128 41.4313 31.8793C41.4514 31.9458 41.4581 32.0157 41.451 32.0847Z" fill="#263238"/>
<path d="M42.7729 35.3871C43.1135 35.3403 43.4586 35.3355 43.8004 35.3727C43.9591 35.3727 44.115 35.3727 44.1582 35.2748C44.1977 35.1144 44.1876 34.9458 44.1294 34.7911L43.8667 33.5243C43.5031 31.7191 43.2693 30.2479 43.3443 30.2335C43.4194 30.2191 43.7686 31.6731 44.1294 33.4725C44.216 33.9188 44.2968 34.3362 44.3747 34.7479C44.4417 34.9533 44.4335 35.1757 44.3516 35.3756C44.3208 35.4262 44.2787 35.4691 44.2287 35.5011C44.1787 35.533 44.122 35.5531 44.063 35.5599C43.972 35.5717 43.8798 35.5717 43.7888 35.5599C43.4443 35.544 43.1031 35.486 42.7729 35.3871Z" fill="#263238"/>
<path d="M41.4654 27.9905C41.3846 28.1344 40.8564 27.9703 40.207 27.9444C39.5576 27.9185 39.015 28.0106 38.9515 27.8609C38.9255 27.7889 39.0381 27.6622 39.2719 27.55C39.5752 27.4108 39.9085 27.3494 40.2416 27.3714C40.5751 27.3889 40.8992 27.4878 41.1854 27.6594C41.4019 27.7832 41.5 27.9214 41.4654 27.9905Z" fill="#263238"/>
<path d="M47.7487 29.8244C47.6679 29.9396 47.1541 29.7553 46.5192 29.6776C45.8842 29.5998 45.3474 29.6315 45.2896 29.4991C45.2666 29.4357 45.382 29.3378 45.6129 29.2601C45.9238 29.1694 46.2504 29.1459 46.5711 29.191C46.8947 29.2324 47.2063 29.3403 47.4861 29.5077C47.6968 29.643 47.7862 29.7697 47.7487 29.8244Z" fill="#263238"/>
<path d="M34.4432 31.4773C34.3797 31.4341 31.8312 30.2104 31.4646 32.9514C31.098 35.6923 33.9323 35.4936 33.9468 35.4159C33.9612 35.3381 34.4432 31.4773 34.4432 31.4773Z" fill="#FFBE9D"/>
<path d="M33.2483 34.267C33.2483 34.267 33.1935 34.2929 33.1098 34.3188C32.9888 34.3522 32.8596 34.3377 32.749 34.2785C32.4604 34.1346 32.2901 33.6422 32.3449 33.147C32.3687 32.9103 32.4457 32.682 32.5701 32.4791C32.6071 32.3968 32.6639 32.3249 32.7353 32.2697C32.8068 32.2144 32.8908 32.1776 32.9799 32.1624C33.0364 32.155 33.0936 32.1677 33.1417 32.1982C33.1897 32.2288 33.2254 32.2752 33.2425 32.3294C33.2714 32.41 33.2425 32.4647 33.2599 32.4704C33.2772 32.4762 33.3262 32.433 33.3176 32.315C33.3129 32.2455 33.2832 32.18 33.2339 32.1307C33.1654 32.0632 33.0733 32.0249 32.977 32.0242C32.8612 32.0321 32.7493 32.0692 32.6518 32.1322C32.5544 32.1952 32.4746 32.2818 32.42 32.3841C32.2708 32.6049 32.1786 32.8591 32.1515 33.124C32.0967 33.6797 32.3103 34.2353 32.6913 34.4023C32.7622 34.4335 32.8392 34.4484 32.9166 34.4459C32.994 34.4435 33.0699 34.4236 33.1386 34.3879C33.2339 34.3332 33.2656 34.2728 33.2483 34.267Z" fill="#EB996E"/>
<path d="M41.9445 37.221C41.982 37.1547 41.4567 36.9331 41.1219 36.4004C40.9851 36.1645 40.8793 35.9119 40.8073 35.649C40.7467 35.4417 40.6976 35.3092 40.6659 35.315C40.6341 35.3208 40.6313 35.459 40.6659 35.6806C40.7002 35.9775 40.7987 36.2633 40.9545 36.5185C41.1131 36.7755 41.3398 36.9838 41.6097 37.1202C41.7944 37.2239 41.9243 37.244 41.9445 37.221Z" fill="#263238"/>
<path d="M31.1875 26.6833C31.8543 25.7648 32.0938 24.6189 32.5094 23.5652C32.9251 22.5114 33.6322 21.4462 34.7318 21.164L34.7549 21.1784C35.7449 20.8905 36.9225 20.9855 37.6411 21.7197C37.9673 20.306 39.3296 19.2897 40.764 19.0536C42.1985 18.8175 44.4209 19.2408 45.7139 19.9174C46.7126 20.4298 47.6361 21.3742 48.7387 22.7418C49.2061 23.3167 49.6251 23.9291 49.9913 24.5729L50.8572 28.4338L49.6334 30.3023C49.5591 30.433 49.4782 30.5598 49.391 30.6823L48.0691 34.739C48.1124 33.6046 48.5597 29.6833 48.603 28.546C47.7538 28.4424 46.9344 28.1686 46.1939 27.7411C45.4534 27.3137 44.8071 26.7413 44.2939 26.0585C43.7397 25.3186 43.3328 24.4174 42.542 23.9337C41.526 23.3089 40.233 23.5738 39.0583 23.8617L39.1102 23.8214C38.4984 24.0386 37.934 24.3709 37.4478 24.8003C37.4928 27.0531 37.0508 29.289 36.1519 31.3561C36.0162 31.667 35.6699 32.3004 35.3408 32.3954C34.7001 32.5768 34.5904 31.9319 34.2498 31.5633C33.9987 31.2927 33.5947 31.2207 33.1473 31.1833C32.9263 30.2187 32.7625 29.242 32.6566 28.2581C32.2745 28.3367 31.8794 28.3258 31.5021 28.2265L31.938 27.4088C31.7802 27.5037 31.6042 27.5645 31.4213 27.5873C31.3259 27.5992 31.2292 27.5802 31.1455 27.533C31.0618 27.4858 30.9956 27.413 30.9566 27.3253C30.8845 27.1036 31.049 26.8762 31.1875 26.6833Z" fill="#263238"/>
<path d="M38.8707 22.2959C38.7168 22.3959 38.5702 22.5065 38.432 22.627C38.079 22.981 37.8243 23.4206 37.6931 23.9024C37.5928 24.2317 37.526 24.5703 37.4939 24.913C37.4593 25.2844 37.4535 25.6817 37.442 26.1021C37.4388 26.5431 37.4079 26.9835 37.3496 27.4207C37.3152 27.6525 37.2641 27.8815 37.1967 28.1059C37.1382 28.3477 37.019 28.5706 36.8503 28.7537C36.7739 28.824 36.6808 28.8736 36.5797 28.8977C36.4787 28.9219 36.3731 28.9199 36.2731 28.8919C36.0787 28.8376 35.908 28.7201 35.7882 28.558C35.5989 28.2379 35.4992 27.873 35.4996 27.5013L35.5804 27.5186C35.4277 27.8109 35.2332 28.0796 35.0031 28.3161C34.7845 28.5345 34.4899 28.6604 34.1806 28.6674C34.0375 28.6684 33.8968 28.6306 33.7736 28.558C33.6598 28.4849 33.5703 28.3796 33.5167 28.2557C33.467 28.1406 33.4491 28.0143 33.4648 27.89C33.4831 27.7787 33.5391 27.6771 33.6235 27.6021L33.661 27.6453C33.3288 27.9676 32.913 28.191 32.4604 28.2902C32.4286 28.3001 32.3955 28.305 32.3622 28.3046C32.3921 28.2923 32.423 28.2827 32.4546 28.2758C32.5181 28.2557 32.6104 28.2297 32.7259 28.1837C33.0597 28.0532 33.3639 27.8574 33.6206 27.6079L33.661 27.651C33.5873 27.7291 33.5396 27.8281 33.5246 27.9343C33.5096 28.0405 33.528 28.1488 33.5773 28.2441C33.6265 28.3548 33.708 28.4481 33.8111 28.5119C33.9228 28.578 34.0507 28.6119 34.1806 28.6098C34.4691 28.5985 34.7426 28.478 34.9454 28.2729C35.1647 28.0404 35.3494 27.7776 35.4938 27.4927L35.5631 27.3689V27.51C35.5693 27.8662 35.6688 28.2145 35.8517 28.5205C35.9615 28.6601 36.1132 28.761 36.2846 28.8084C36.371 28.8336 36.4624 28.8359 36.5499 28.8152C36.6374 28.7945 36.7181 28.7515 36.7839 28.6904C36.9394 28.5185 37.0495 28.3107 37.1043 28.0858C37.1717 27.8652 37.2228 27.6401 37.2573 27.4121C37.3153 26.9787 37.3471 26.5422 37.3525 26.105C37.3525 25.6846 37.3756 25.2873 37.4131 24.913C37.4495 24.565 37.521 24.2216 37.6267 23.888C37.7673 23.3993 38.0363 22.9569 38.406 22.6068C38.5422 22.4778 38.6993 22.3727 38.8707 22.2959Z" fill="#455A64"/>
<path d="M50.9553 27.3485L50.9207 27.3715L50.8139 27.4349C50.7566 27.4708 50.6968 27.5025 50.6349 27.5299C50.5599 27.5616 50.4762 27.6047 50.3781 27.6364C49.8153 27.8292 49.2136 27.8806 48.6261 27.7861C47.7523 27.6472 46.9375 27.2593 46.2796 26.669C45.4888 25.9407 44.8553 25.0589 44.418 24.0778C44.1698 23.5653 43.9764 23.0442 43.7571 22.5605C43.5597 22.0897 43.2942 21.6503 42.9691 21.2563C42.6794 20.8982 42.3029 20.6198 41.8752 20.4473C41.682 20.3739 41.4785 20.3311 41.272 20.3206C41.078 20.313 40.8839 20.3314 40.6948 20.3753C40.1236 20.5124 39.6255 20.8601 39.3007 21.3484C39.1918 21.53 39.1037 21.7231 39.0381 21.9243C39.0362 21.9109 39.0362 21.8973 39.0381 21.8839C39.0381 21.8494 39.0554 21.812 39.0669 21.763C39.113 21.6084 39.179 21.4603 39.2632 21.3225C39.3975 21.1033 39.5683 20.9086 39.7683 20.7467C40.0332 20.5335 40.3415 20.3802 40.6717 20.2976C41.0744 20.1939 41.4992 20.215 41.8897 20.358C42.3305 20.5341 42.7196 20.8183 43.0211 21.1843C43.3521 21.5837 43.6233 22.0288 43.8263 22.5058C44.0486 22.9953 44.2419 23.5135 44.4873 24.0231C44.9216 24.9917 45.5457 25.8639 46.3229 26.5884C46.9697 27.1733 47.771 27.561 48.6319 27.7055C49.2105 27.8054 49.8047 27.7639 50.3636 27.5846C50.7562 27.4665 50.9495 27.3255 50.9553 27.3485Z" fill="#455A64"/>
<path d="M47.6362 31.3564C47.5496 31.4312 47.1195 31.0137 46.447 30.936C45.7746 30.8583 45.2406 31.1375 45.18 31.0454C45.1482 31.0022 45.2435 30.864 45.4686 30.7287C45.7824 30.5588 46.1421 30.4923 46.4961 30.5387C46.8471 30.5798 47.1752 30.7334 47.4312 30.9763C47.6275 31.1692 47.6795 31.3304 47.6362 31.3564Z" fill="#263238"/>
<path d="M47.0647 32.6058C47.0432 32.7469 46.9671 32.874 46.8526 32.9596C46.7382 33.0452 46.5946 33.0826 46.4528 33.0636C46.3835 33.0575 46.3162 33.0377 46.2547 33.0053C46.1933 32.9729 46.1389 32.9286 46.0948 32.8749C46.0507 32.8213 46.0178 32.7595 45.998 32.693C45.9782 32.6265 45.9719 32.5567 45.9795 32.4878C46.0016 32.3476 46.0775 32.2215 46.1911 32.136C46.3048 32.0506 46.4472 32.0126 46.5884 32.03C46.6578 32.0361 46.7253 32.056 46.7869 32.0883C46.8485 32.1207 46.903 32.1649 46.9474 32.2185C46.9917 32.2721 47.0249 32.3339 47.045 32.4004C47.0651 32.4669 47.0718 32.5367 47.0647 32.6058Z" fill="#263238"/>
<path d="M49.7171 24.0636C50.0057 24.5502 50.4935 25.0166 51.0621 25.0166C51.2705 24.9948 51.477 24.9573 51.6797 24.9043C51.8645 25.0425 51.749 25.7105 51.5932 25.8803C51.4489 26.0241 51.2925 26.1551 51.1256 26.2719C51.749 26.6951 52.3695 26.5828 53.0998 26.4014C52.9666 26.993 52.6804 27.5396 52.2698 27.9866C51.8591 28.4336 51.3383 28.7656 50.759 28.9494C50.5791 29.0228 50.3842 29.0525 50.1905 29.0359C49.9968 29.0194 49.8098 28.9572 49.6449 28.8544C49.4049 28.608 49.2642 28.2821 49.2495 27.9389C49.0591 26.7005 49.0233 25.4433 49.1427 24.196L49.7171 24.0636Z" fill="#263238"/>
<path d="M42.262 46.7882C42.262 46.7882 44.8019 47.816 46.2479 51.3228C47.2638 53.7873 52.9151 61.5667 52.9151 61.5667L67.9408 64.8949L68.4545 69.6771L44.4209 69.4785L41.0815 58.8689L42.262 46.7882Z" fill="#1D334A"/>
<path d="M32.1429 42.3688L29.476 43.4859C27.0083 44.5166 23.8507 46.8919 22.7915 49.3449C20.2487 55.2528 17.9455 62.845 17.0623 69.562C16.1705 76.3365 17.9455 86.3616 17.9455 86.3616L40.4985 73.5064L39.1795 72.5879L43.454 49.3938L42.6574 46.5867L43.1885 44.2114C43.1885 44.2114 37.2053 41.816 32.8471 40.0972L32.1429 42.3688Z" fill="#1D334A"/>
<g opacity="0.3">
<path opacity="0.3" d="M29.9897 79.659C30.0725 78.5073 30.1552 77.349 30.238 76.1839C29.9734 76.4352 29.6272 76.5833 29.2624 76.6014C29.8266 76.0642 30.3273 75.4643 30.7546 74.8134L29.7271 75.2539C30.0895 74.9759 30.3853 74.6208 30.593 74.2146C30.0417 73.7856 29.2653 73.8576 28.5726 73.9267C25.0081 74.2866 21.4119 74.0476 17.833 73.8086C17.4745 73.7882 17.1248 73.6899 16.8084 73.5207C16.8084 73.5207 16.7362 72.5418 16.8949 72.1762C17.0537 71.8105 17.3019 71.9171 17.6771 71.7817C18.058 71.6662 18.4537 71.6061 18.8518 71.6032C23.2071 71.3729 27.5711 71.7299 31.9177 72.0898C32.1888 72.0857 32.4549 72.1618 32.6826 72.3086C33.0376 72.5965 33.0059 73.1378 32.9452 73.5898C32.722 75.2136 32.5008 76.8365 32.2814 78.4584" fill="black"/>
</g>
<path d="M43.1885 48.4611C43.1882 48.5344 43.1814 48.6077 43.1683 48.6799L43.0759 49.2989C42.9951 49.8344 42.8652 50.6118 42.6949 51.5676C42.3543 53.4822 41.8435 56.1166 41.2518 59.0188C40.6601 61.9209 40.0598 64.5438 39.6298 66.4382C39.4133 67.3739 39.2372 68.1369 39.1102 68.681C39.0496 68.9344 39.0006 69.1359 38.963 69.2885C38.9496 69.3607 38.9283 69.4312 38.8995 69.4987C38.9071 69.4261 38.9186 69.3541 38.9342 69.2828C38.963 69.1273 39.0034 68.9229 39.0554 68.6695C39.168 68.1196 39.344 67.3566 39.5258 66.4152L41.0902 58.9957C41.6963 56.0936 42.2245 53.4621 42.591 51.5532C42.7671 50.6118 42.9143 49.843 43.0182 49.2931C43.0672 49.0398 43.1077 48.8353 43.1365 48.6799C43.1464 48.6054 43.1638 48.5321 43.1885 48.4611Z" fill="#263238"/>
<path d="M22.7915 81.3896C22.8319 81.3399 22.8773 81.2945 22.9272 81.2543L23.3312 80.8828C23.5044 80.7216 23.7238 80.5287 23.9864 80.307C24.249 80.0853 24.5377 79.8377 24.8782 79.5815C25.545 79.0489 26.3675 78.4529 27.3056 77.8281C28.2436 77.2033 29.3259 76.5699 30.4602 75.9596C31.5945 75.3492 32.7461 74.8425 33.7909 74.4135C34.8357 73.9845 35.794 73.6534 36.6108 73.4058C37.0148 73.2705 37.39 73.1726 37.7162 73.0805C38.0423 72.9883 38.3252 72.9164 38.5561 72.8617L39.0929 72.7407C39.1538 72.7214 39.2168 72.7098 39.2805 72.7062C39.2222 72.7334 39.1613 72.7546 39.0987 72.7695L38.5705 72.9192C38.3425 72.9826 38.0625 73.0603 37.7393 73.1611C37.416 73.2618 37.0466 73.3655 36.6425 73.5066C35.8344 73.7686 34.8819 74.1169 33.8429 74.543C32.8038 74.9692 31.6811 75.4903 30.5324 76.092C29.3836 76.6937 28.3244 77.3329 27.3806 77.9433C26.4368 78.5536 25.6142 79.1467 24.9417 79.6707C24.5983 79.9212 24.3039 80.1688 24.0384 80.3761C23.7728 80.5834 23.5506 80.7734 23.3687 80.926L22.9474 81.2744C22.8997 81.3182 22.8474 81.3569 22.7915 81.3896Z" fill="#263238"/>
<path d="M34.3682 72.8987C34.3884 72.9361 32.1948 74.1655 29.4616 75.6454C26.7283 77.1252 24.5117 78.297 24.4915 78.2596C24.4713 78.2222 26.6648 76.9957 29.3981 75.5129C32.1313 74.0302 34.348 72.8641 34.3682 72.8987Z" fill="#263238"/>
<g opacity="0.3">
<path opacity="0.3" d="M26.4426 55.129C27.8424 61.1752 32.1227 66.5706 37.8201 69.0322C33.7214 64.6558 29.9204 60.011 26.4426 55.129Z" fill="black"/>
</g>
<g opacity="0.3">
<path opacity="0.3" d="M42.8306 50.5341C43.3818 53.0907 42.972 56.2923 41.6761 58.5581L41.3557 57.8959C41.8089 55.9756 42.4583 52.5696 42.819 50.5341" fill="black"/>
</g>
<path d="M54.82 111.542L52.1156 119.656C52.1156 119.656 59.4783 125.126 59.1233 126.672L43.1625 122.008L46.854 109.19L54.82 111.542Z" fill="#455A64"/>
<g opacity="0.3">
<path opacity="0.3" d="M54.82 111.542L52.1156 119.656C52.1156 119.656 59.4783 125.126 59.1233 126.672L43.1625 122.008L46.854 109.19L54.82 111.542Z" fill="black"/>
</g>
<path d="M47.3822 117.525C47.215 117.526 47.0543 117.589 46.9312 117.702C46.808 117.815 46.7312 117.969 46.7154 118.135C46.7105 118.302 46.7702 118.464 46.882 118.588C46.9938 118.712 47.1492 118.788 47.3158 118.8C47.4931 118.798 47.6633 118.73 47.7934 118.61C47.9236 118.49 48.0043 118.326 48.02 118.15C48.0067 117.976 47.9261 117.813 47.7953 117.697C47.6645 117.581 47.4936 117.521 47.3187 117.528" fill="#E0E0E0"/>
<g opacity="0.6">
<path opacity="0.6" d="M43.1625 122.008L43.5839 120.73L58.7308 125.679C58.7308 125.679 59.3513 126.194 59.1233 126.672L43.1625 122.008Z" fill="white"/>
</g>
<path d="M52.3984 119.65C52.3724 119.727 51.9741 119.65 51.5152 119.788C51.0563 119.926 50.759 120.191 50.6955 120.139C50.632 120.087 50.8803 119.673 51.4373 119.517C51.9943 119.362 52.4359 119.583 52.3984 119.65Z" fill="#263238"/>
<path d="M53.8704 120.83C53.8704 120.911 53.4894 120.946 53.1286 121.196C52.7679 121.447 52.5889 121.772 52.511 121.746C52.4331 121.72 52.511 121.268 52.9699 120.963C53.4288 120.658 53.8906 120.756 53.8704 120.83Z" fill="#263238"/>
<path d="M54.234 123.108C54.159 123.108 54.1648 122.684 54.488 122.316C54.8113 121.947 55.2298 121.884 55.2413 121.959C55.2529 122.034 54.9527 122.195 54.7016 122.5C54.4505 122.805 54.3149 123.122 54.234 123.108Z" fill="#263238"/>
<path d="M52.8083 117.73C52.7563 117.793 52.4302 117.58 51.9799 117.482C51.5297 117.384 51.1458 117.421 51.114 117.341C51.0823 117.26 51.5037 117.082 52.0319 117.206C52.5601 117.329 52.866 117.683 52.8083 117.73Z" fill="#263238"/>
<path d="M59.4754 115.164L59.1378 123.709C59.1378 123.709 67.7329 126.92 67.8224 128.506L51.192 128.448L51.1602 115.112L59.4754 115.164Z" fill="#455A64"/>
<path d="M53.9974 122.972C53.8369 123.02 53.6998 123.125 53.6124 123.268C53.525 123.41 53.4936 123.58 53.524 123.744C53.5664 123.906 53.6694 124.045 53.8118 124.133C53.9542 124.221 54.125 124.25 54.2889 124.216C54.4581 124.165 54.6024 124.053 54.6936 123.902C54.7848 123.751 54.8165 123.572 54.7824 123.399C54.7217 123.235 54.5996 123.101 54.4418 123.025C54.2841 122.949 54.103 122.938 53.9368 122.993" fill="#E0E0E0"/>
<g opacity="0.6">
<path opacity="0.6" d="M51.192 128.449L51.241 127.104L67.1701 127.66C67.1701 127.66 67.909 127.985 67.8224 128.506L51.192 128.449Z" fill="white"/>
</g>
<path d="M59.4091 123.626C59.4091 123.706 58.9992 123.741 58.598 124C58.1969 124.259 57.9833 124.599 57.9082 124.576C57.8332 124.553 57.9573 124.075 58.448 123.77C58.9386 123.465 59.4264 123.551 59.4091 123.626Z" fill="#263238"/>
<path d="M61.1495 124.351C61.1668 124.429 60.8147 124.564 60.5376 124.907C60.2605 125.25 60.1797 125.612 60.0989 125.607C60.0181 125.601 59.969 125.146 60.3211 124.726C60.6732 124.305 61.1495 124.274 61.1495 124.351Z" fill="#263238"/>
<path d="M62.1279 126.436C62.0529 126.453 61.9432 126.047 62.151 125.607C62.3588 125.166 62.7427 124.988 62.7773 125.054C62.812 125.12 62.5753 125.359 62.4079 125.725C62.2405 126.09 62.2145 126.43 62.1279 126.436Z" fill="#263238"/>
<path d="M59.2676 121.668C59.233 121.743 58.8607 121.631 58.4018 121.668C57.9429 121.706 57.585 121.841 57.5359 121.772C57.4868 121.703 57.8245 121.415 58.3816 121.386C58.9386 121.357 59.308 121.605 59.2676 121.668Z" fill="#263238"/>
<path d="M39.5518 73.3194C39.5518 73.3194 59.487 78.5018 61.9634 81.9308C64.053 84.8416 53.0796 114.563 53.0796 114.563L44.4209 113.817L48.1557 88.9472L25.8192 81.8646L29.1932 73.3079L39.5518 73.3194Z" fill="#263238"/>
<path d="M40.9805 77.9778C40.9805 77.9778 61.3601 82.9155 63.4209 86.4251C64.382 88.0633 63.7499 93.4415 63.3921 95.9809C63.1496 97.6911 59.5476 121.622 59.5476 121.622H50.736L50.9293 94.5931L29.756 90.3349C29.756 90.3349 18.39 91.1987 17.9455 86.3618L22.6905 79.9471L33.8891 74.4279L40.9805 77.9778Z" fill="#263238"/>
<path d="M39.4277 77.3556C39.4277 77.3556 39.5287 77.3786 39.7163 77.4333L40.5822 77.6723L43.9071 78.5994C45.3502 79.0024 47.1166 79.4948 49.1572 80.0994C51.1977 80.704 53.5096 81.4353 56.0177 82.3825C57.2742 82.8509 58.5711 83.3845 59.9084 83.9833L60.9186 84.4382C61.2589 84.604 61.5904 84.7876 61.9114 84.9881C62.2398 85.1933 62.5498 85.4264 62.8379 85.6849C63.1373 85.9474 63.3883 86.2602 63.5797 86.6091C64.2666 89.7242 63.851 93.1302 63.3401 96.6111C63.1179 98.3645 62.8321 100.152 62.5637 101.981C62.2953 103.809 62.0095 105.68 61.7238 107.58C61.1466 111.384 60.5693 115.322 59.9574 119.353C59.842 120.116 59.7294 120.876 59.614 121.631V121.697H50.6667V121.622C50.7446 111.378 50.8168 102.102 50.8745 94.5957L50.9207 94.6504L35.8632 91.5957L31.7561 90.755L30.6882 90.5333C30.4458 90.4815 30.3246 90.4498 30.3246 90.4498L30.6911 90.516L31.7648 90.7233L35.8892 91.5294L50.9409 94.5295H50.987V94.5784C50.938 102.084 50.8774 111.361 50.811 121.608L50.7359 121.533H59.5447L59.4726 121.596C59.5851 120.839 59.7006 120.082 59.8131 119.319L61.5824 107.546C61.871 105.642 62.1519 103.775 62.4252 101.946C62.6965 100.118 62.9851 98.3299 63.2102 96.5765C63.3295 95.7013 63.4459 94.8375 63.5595 93.9853C63.6809 93.1465 63.7561 92.3016 63.7846 91.4546C63.8134 90.6196 63.8134 89.7972 63.7846 88.9872C63.7673 88.5812 63.7442 88.181 63.7095 87.7837C63.7062 87.394 63.6268 87.0087 63.4757 86.6494C63.2923 86.3134 63.0509 86.0123 62.7629 85.7597C62.4813 85.5063 62.1781 85.278 61.8566 85.0774C61.5401 84.8767 61.2124 84.6941 60.8753 84.5303L59.8708 84.0726C58.5374 83.4766 57.2415 82.9382 55.9889 82.4689C53.4865 81.5159 51.1747 80.7875 49.1399 80.1656C47.1051 79.5437 45.3387 79.0543 43.8985 78.6426L40.5793 77.7097L39.7134 77.4564C39.5258 77.3901 39.4277 77.3556 39.4277 77.3556Z" fill="#455A64"/>
<path d="M67.6521 65.1312C67.782 64.9354 69.4647 62.9978 69.9178 62.9978C70.3709 62.9978 70.8905 63.516 70.8905 63.516C71.1935 63.3773 71.5313 63.3322 71.8602 63.3865C72.2499 63.516 74.0624 65.065 74.0624 65.6466V66.6168C74.1034 66.8734 74.1034 67.1348 74.0624 67.3913C73.9989 67.8433 72.9079 68.6178 72.9079 68.6178H66.6824C66.6824 68.6178 65.4961 67.8203 65.6433 67.0689C65.7905 66.3174 67.6521 65.1312 67.6521 65.1312Z" fill="#FFBE9D"/>
<path d="M70.8905 63.5159C71.0255 63.5774 71.155 63.6506 71.2772 63.7347L72.3047 64.3825C72.4235 64.4513 72.5373 64.5283 72.6453 64.6128C72.7599 64.7186 72.8462 64.8512 72.8964 64.9986C72.9358 65.1548 72.9542 65.3155 72.9512 65.4765L72.9772 65.9718C73.0119 66.6483 73.0465 67.3911 73.084 68.1685L73.1013 68.5198V68.5831L73.0407 68.5975L72.6597 68.6896H72.6424C72.4643 68.6843 72.2928 68.6205 72.1546 68.5082C72.0274 68.4029 71.9207 68.2751 71.84 68.1311C71.6937 67.8689 71.584 67.588 71.5139 67.2961C71.3928 66.8084 71.3213 66.3097 71.3003 65.8076L71.335 65.8537L70.2469 65.4276C70.1121 65.3804 69.9818 65.3216 69.8572 65.252C69.9971 65.2803 70.1342 65.3208 70.2671 65.3729L71.3696 65.7558H71.4013V65.7904C71.4347 66.2843 71.5149 66.7741 71.6409 67.253C71.7117 67.5309 71.8194 67.7982 71.9613 68.0476C72.0234 68.1791 72.1185 68.2924 72.2373 68.3766C72.3561 68.4608 72.4946 68.5131 72.6395 68.5284H72.6222L73.0032 68.4334L72.9455 68.5111L72.9282 68.157C72.8964 67.3796 72.8618 66.6397 72.8329 65.9602C72.8329 65.7904 72.8329 65.6263 72.8156 65.465C72.8185 65.3151 72.804 65.1654 72.7723 65.0188C72.7324 64.8902 72.6598 64.7742 72.5616 64.6819C72.4591 64.5994 72.3522 64.5225 72.2412 64.4516L71.2397 63.7664C71.1164 63.6929 70.9995 63.6091 70.8905 63.5159Z" fill="#EB996E"/>
<path d="M66.6823 68.3961C66.8192 68.3668 66.9582 68.3485 67.098 68.3414L68.2322 68.2522H68.2496C68.6715 68.3511 69.0982 68.428 69.5282 68.4825C69.7761 68.5162 70.0256 68.5364 70.2757 68.543C70.3971 68.5629 70.5215 68.5557 70.6398 68.5218C70.7581 68.4879 70.8674 68.4283 70.9597 68.3472C71.0371 68.2372 71.0748 68.1042 71.0665 67.97C71.0665 67.829 71.0463 67.6821 71.0405 67.5324C71.024 67.4104 70.9647 67.2982 70.8731 67.2157C70.782 67.1243 70.6779 67.0467 70.5643 66.9854C70.1525 66.7785 69.6889 66.6964 69.2309 66.7493C69.0667 66.7646 68.9013 66.7407 68.7482 66.6797C68.5952 66.6186 68.4589 66.522 68.3506 66.398C68.2149 66.2051 68.2265 66.0641 68.2351 66.0669C68.2732 66.1709 68.3278 66.2681 68.3968 66.3548C68.5049 66.4627 68.6361 66.5446 68.7806 66.5945C68.9251 66.6444 69.0791 66.6609 69.2309 66.6428C69.7089 66.5719 70.1973 66.6483 70.6307 66.8616C70.7565 66.9283 70.8722 67.0127 70.9742 67.1121C71.0942 67.2204 71.1702 67.369 71.1877 67.5295C71.1877 67.662 71.2166 67.8174 71.2166 67.9672C71.2245 68.136 71.1746 68.3025 71.0752 68.4393C70.9746 68.5555 70.837 68.6338 70.6855 68.661C70.5495 68.6865 70.4109 68.6952 70.2728 68.6869C70.0073 68.6869 69.7533 68.6524 69.5108 68.6207C69.0761 68.5583 68.6453 68.4709 68.2207 68.3587H68.238L67.1037 68.399C66.9636 68.4129 66.8223 68.412 66.6823 68.3961Z" fill="#EB996E"/>
<path d="M73.0176 68.3701C73.1619 67.985 73.3296 67.609 73.5198 67.2443C73.6662 66.8573 73.8601 66.4898 74.0971 66.1503C73.9977 66.5499 73.8514 66.9364 73.6612 67.3019C73.5141 67.6943 73.296 68.0564 73.0176 68.3701Z" fill="#EB996E"/>
<path d="M59.5303 69.6801L81.9533 69.968L89.1689 49.7739C89.246 49.5718 89.2426 49.3479 89.1594 49.1482C89.0762 48.9485 88.9195 48.7881 88.7215 48.7C88.615 48.6507 88.4993 48.6239 88.3818 48.6215C88.2643 48.6191 88.1476 48.6411 88.039 48.686C87.9305 48.7309 87.8325 48.7978 87.7513 48.8825C87.67 48.9672 87.6073 49.0678 87.5671 49.1779L80.4525 68.301L59.51 68.5083C59.357 68.5083 59.2101 68.5689 59.1019 68.6769C58.9936 68.7849 58.9328 68.9314 58.9328 69.0841C58.93 69.1631 58.9435 69.2419 58.9725 69.3155C59.0016 69.389 59.0455 69.4559 59.1015 69.5118C59.1576 69.5677 59.2246 69.6115 59.2983 69.6405C59.3721 69.6694 59.451 69.6829 59.5303 69.6801Z" fill="#263238"/>
<path d="M26.1164 54.6772C26.1164 54.6772 37.0841 69.5507 38.7841 69.5507H54.7882V63.5046L42.6863 60.6571C42.6863 60.6571 36.7291 48.3633 35.4072 46.7884C34.0853 45.2136 30.5612 43.0917 27.9261 45.4641C25.291 47.8364 26.1164 54.6772 26.1164 54.6772Z" fill="#1D334A"/>
<path d="M54.7766 64.1004L57.4002 63.8902C57.4002 63.8902 57.455 62.92 58.0294 62.5773C58.6038 62.2347 58.5432 61.4919 58.8953 61.5495C59.0859 61.5869 59.2819 61.5869 59.4725 61.5495L61.6458 59.7241L63.4786 58.5264L64.9217 58.2385C64.9217 58.2385 65.7876 58.466 64.9217 59.2635L64.0039 59.7789L63.2044 60.5792L65.0343 59.681C65.1184 59.6404 65.2107 59.6194 65.3041 59.6194C65.3976 59.6194 65.4898 59.6404 65.574 59.681C66.0691 59.8943 66.5411 60.1577 66.9825 60.467C67.022 60.5039 67.0535 60.5484 67.075 60.598C67.0965 60.6475 67.1076 60.7009 67.1076 60.7549C67.1076 60.8088 67.0965 60.8622 67.075 60.9118C67.0535 60.9613 67.022 61.0059 66.9825 61.0428L67.782 61.728C67.782 61.728 67.9551 62.6436 67.0373 62.4132L66.2956 62.2434L65.3027 63.205C65.3027 63.205 68.6247 62.5198 68.8527 62.6292C69.0808 62.7386 69.3694 63.2568 68.8527 63.7117C68.3361 64.1666 66.3331 64.0543 65.8771 64.5121C65.421 64.9699 62.3905 67.7281 61.6458 67.8979C60.9012 68.0678 54.7939 69.5563 54.7939 69.5563L54.7766 64.1004Z" fill="#FFBE9D"/>
<path d="M67.7589 61.7191C67.602 61.6236 67.4516 61.5178 67.3087 61.4024C67.173 61.3017 67.02 61.1836 66.8238 61.0569C66.7314 60.9936 66.6352 60.9302 66.5351 60.8669C66.4453 60.8005 66.34 60.7579 66.2292 60.7431C66.0018 60.7921 65.7855 60.8829 65.5913 61.0109C65.3951 61.1174 65.2219 61.2182 65.0747 61.2988C64.9235 61.4048 64.7609 61.4937 64.5898 61.5637C64.711 61.4241 64.8543 61.3055 65.0141 61.2124C65.1555 61.1145 65.3258 61.0022 65.5221 60.8871C65.6202 60.8295 65.7241 60.7719 65.8338 60.7143C65.953 60.6455 66.0861 60.6042 66.2234 60.5934C66.2634 60.5854 66.3046 60.5854 66.3447 60.5934C66.3783 60.6046 66.411 60.618 66.4428 60.6337C66.5014 60.6619 66.5583 60.6937 66.6131 60.7287C66.7199 60.7949 66.818 60.8612 66.9017 60.9302C67.0835 61.0627 67.2423 61.1922 67.3721 61.3045C67.6348 61.5406 67.7762 61.7047 67.7589 61.7191Z" fill="#EB996E"/>
<path d="M59.7208 61.3278C59.7439 61.3623 59.4726 61.5984 59.1435 61.9036C58.8145 62.2088 58.5663 62.4621 58.5345 62.4305C58.6562 62.1853 58.8283 61.9685 59.0396 61.7942C59.2248 61.5853 59.4588 61.4251 59.7208 61.3278Z" fill="#EB996E"/>
<path d="M35.4072 46.7882C35.6425 47.0774 35.8548 47.3845 36.0422 47.7066C36.4203 48.3314 36.9542 49.2642 37.595 50.4706C38.8851 52.8833 40.6601 56.3814 42.7411 60.6396L42.7007 60.605L54.8055 63.4438H54.8633V69.6483H54.0638H40.461H38.914C38.8467 69.6524 38.7792 69.6524 38.7119 69.6483C38.6439 69.635 38.5779 69.6127 38.5157 69.5821C38.3947 69.5186 38.2798 69.4444 38.1722 69.3604C37.9711 69.2109 37.7783 69.0504 37.595 68.8796C36.8939 68.2212 36.2282 67.5264 35.6006 66.798C34.371 65.4045 33.2916 64.06 32.2959 62.8277C30.3274 60.3574 28.7891 58.3162 27.7327 56.9054L26.5234 55.2701C26.3906 55.0829 26.2896 54.9418 26.2146 54.8411C26.1395 54.7403 26.1136 54.6914 26.1136 54.6914C26.1136 54.6914 26.154 54.7374 26.229 54.8324L26.5494 55.2528L27.7818 56.8651C28.8526 58.2672 30.4054 60.297 32.3824 62.7586C33.3724 63.9851 34.4663 65.3239 35.6958 66.7145C36.3235 67.4364 36.9882 68.1255 37.6873 68.7788C37.8705 68.9463 38.0632 69.103 38.2646 69.2481C38.3631 69.3191 38.4673 69.3817 38.5763 69.4353C38.683 69.4866 38.8019 69.5075 38.9197 69.4957H40.4668H54.0695H54.794L54.7189 69.5706C54.7189 67.4976 54.7189 65.4707 54.7189 63.5245L54.7738 63.5964L42.6718 60.7231H42.643L42.6285 60.6972C40.562 56.4332 38.8014 52.9236 37.5315 50.508C36.8994 49.2959 36.377 48.3602 36.0075 47.7297C35.8199 47.4187 35.6785 47.1769 35.5659 47.0272C35.4534 46.8775 35.4072 46.7882 35.4072 46.7882Z" fill="#263238"/>
<path d="M33.814 45.815C33.814 45.8409 33.4388 45.6912 32.8269 45.553C32.4674 45.4735 32.1029 45.4187 31.7359 45.3889C31.2873 45.3545 30.8367 45.3545 30.388 45.3889C29.9407 45.4358 29.4978 45.5176 29.0633 45.6336C28.708 45.7304 28.3598 45.8516 28.0213 45.9964C27.4441 46.2469 27.1151 46.4599 27.1006 46.4369C27.1657 46.3715 27.2396 46.3153 27.32 46.2699C27.5303 46.1316 27.7502 46.0085 27.978 45.9014C28.3159 45.7393 28.6663 45.6045 29.0257 45.4983C29.4664 45.3725 29.9175 45.2868 30.3736 45.242C30.8306 45.2002 31.2905 45.2002 31.7475 45.242C32.1205 45.2801 32.49 45.3465 32.8529 45.4407C33.096 45.5041 33.3343 45.5849 33.5658 45.6826C33.7303 45.7517 33.8198 45.8035 33.814 45.815Z" fill="#263238"/>
<path d="M40.4812 63.4179C40.6599 62.9013 40.9373 62.4242 41.298 62.0129C41.6189 61.5692 42.0238 61.1926 42.49 60.9044C42.5189 60.939 41.9647 61.4111 41.4135 62.105C40.8622 62.7989 40.5245 63.438 40.4812 63.4179Z" fill="#263238"/>
<path d="M40.1147 61.5639C40.728 61.0221 41.5269 60.7365 42.3457 60.7664C42.3457 60.8125 41.8175 60.8672 41.1912 61.0918C40.5649 61.3163 40.1406 61.6014 40.1147 61.5639Z" fill="#263238"/>
<path d="M50.3983 92.6122C50.1674 92.1314 49.6074 91.9212 49.0966 91.7485C39.015 88.5066 28.1974 86.9519 17.7752 88.8406C16.5226 89.068 15.2296 89.3646 14.2338 90.1592C13.2381 90.9538 12.6407 92.3934 13.1717 93.545L15.3104 94.2303C25.9822 93.0452 36.7569 93.1206 47.411 94.4548C48.1297 94.547 48.8859 94.6362 49.5497 94.3541C50.2135 94.0719 50.7129 93.2571 50.3983 92.6122Z" fill="#455A64"/>
<path d="M38.7004 89.2868C38.6775 89.2912 38.654 89.2912 38.6311 89.2868L38.4377 89.2609L37.6902 89.1515C37.0437 89.0478 36.1057 88.8981 34.9396 88.7657C31.9076 88.4082 28.8542 88.2629 25.8018 88.3309C24.91 88.3482 24.0384 88.3914 23.2042 88.4605C22.3701 88.5296 21.5562 88.5699 20.7798 88.639C20.6838 88.6468 20.5872 88.6468 20.4912 88.639C20.401 88.6305 20.3101 88.6305 20.2199 88.639C20.0372 88.6515 19.8557 88.6785 19.6773 88.7196L18.6325 88.9384C17.96 89.0882 17.3423 89.2523 16.7853 89.4365C15.9053 89.7101 15.0651 90.0972 14.2858 90.5882C13.9972 90.7638 13.8067 90.9164 13.671 91.0229L13.5152 91.141C13.4805 91.1669 13.4603 91.1813 13.4575 91.1784L13.5036 91.1294L13.6508 90.9999C13.8428 90.8348 14.0442 90.681 14.2541 90.5392C15.0273 90.0222 15.8684 89.6144 16.7535 89.3271C17.3611 89.1234 17.9786 88.9505 18.6036 88.8089L19.6513 88.5843C19.8406 88.5369 20.0338 88.507 20.2285 88.4951C20.3246 88.4868 20.4211 88.4868 20.5172 88.4951C20.6131 88.506 20.7099 88.506 20.8058 88.4951C21.5706 88.4231 22.3903 88.3741 23.2302 88.3079C24.0701 88.2417 24.962 88.1927 25.8278 88.1755C28.8775 88.1061 31.9282 88.2649 34.9541 88.6505C36.1086 88.7974 37.0552 88.9644 37.6989 89.0853L38.4435 89.2235L38.634 89.2638L38.7004 89.2868Z" fill="#263238"/>
<path d="M13.4344 72.8988L30.619 73.4977C30.6788 73.4999 30.7375 73.5146 30.7913 73.541C30.8451 73.5673 30.8927 73.6046 30.9311 73.6505C30.9695 73.6964 30.9978 73.7498 31.0141 73.8073C31.0304 73.8648 31.0345 73.9251 31.0259 73.9842L28.5524 94.5411H32.4257L34.423 71.9113C34.4455 71.7287 34.4297 71.5434 34.3767 71.3672C34.3236 71.1911 34.2344 71.0278 34.1147 70.8878C33.995 70.7479 33.8475 70.6343 33.6814 70.5542C33.5154 70.4741 33.3345 70.4294 33.1502 70.4228L12.9726 69.703L13.4344 72.8988Z" fill="#455A64"/>
<path d="M104.763 71.4019H102.07V71.9978L107.999 128.523H110.764L104.763 71.4019Z" fill="#455A64"/>
<path d="M44.6431 71.4019H47.336V72.0094L41.8089 128.506H39.0439L44.6431 71.4019Z" fill="#455A64"/>
<path d="M44.6431 71.4018C44.6431 71.4018 44.6431 71.5025 44.62 71.6897C44.597 71.8768 44.5739 72.1763 44.5392 72.5534C44.4671 73.3106 44.3632 74.4277 44.2275 75.8615C43.9389 78.7406 43.5493 82.8952 43.0557 88.0488C42.0513 98.3445 40.663 112.61 39.116 128.503L39.0439 128.42H41.8089L41.7338 128.489C44.3545 101.949 46.574 79.4662 47.3129 71.9978C47.3129 71.7098 47.3129 71.5486 47.3129 71.3903L47.3331 71.4104H45.3127H44.8163H44.6518H44.8105H45.3012L47.3446 71.396H47.3648V71.4191C47.3648 71.5774 47.3648 71.7444 47.3648 72.0265C46.6404 79.495 44.4613 101.969 41.881 128.526V128.595H38.9659V128.512C40.536 112.602 41.9474 98.3186 42.9662 88.0114C43.4829 82.8664 43.8956 78.7147 44.1842 75.8442C44.3285 74.4047 44.4411 73.3106 44.5161 72.5534C44.5565 72.182 44.5854 71.897 44.6056 71.6897C44.6258 71.4824 44.6431 71.4018 44.6431 71.4018Z" fill="#263238"/>
<path d="M115.232 69.562H38.1635V71.9949H115.232V69.562Z" fill="#455A64"/>
<path d="M107.026 71.9978C107.026 72.0381 91.6655 72.0727 72.7232 72.0727C53.7809 72.0727 38.4147 72.0381 38.4147 71.9978C38.4147 71.9575 53.7723 71.923 72.7232 71.923C91.6742 71.923 107.026 71.9518 107.026 71.9978Z" fill="#263238"/>
</svg>
