<svg width="148" height="159" viewBox="0 0 148 159" fill="none" xmlns="http://www.w3.org/2000/svg">
<path d="M75.7086 158.962C115.433 158.962 147.636 136.956 147.636 109.811C147.636 82.6649 115.433 60.6589 75.7086 60.6589C35.984 60.6589 3.78079 82.6649 3.78079 109.811C3.78079 136.956 35.984 158.962 75.7086 158.962Z" fill="#F0F0F0"/>
<path d="M122.279 128.964C133.037 128.964 141.758 123.004 141.758 115.653C141.758 108.302 133.037 102.342 122.279 102.342C111.521 102.342 102.8 108.302 102.8 115.653C102.8 123.004 111.521 128.964 122.279 128.964Z" fill="#E0E0E0"/>
<path d="M14.0474 119.481L20.1527 123.661C20.4089 123.816 20.6927 123.898 20.9806 123.898C21.2685 123.898 21.5523 123.816 21.8085 123.661L93.1255 74.924C93.5844 74.612 93.5844 74.1056 93.1255 73.7936L87.0171 69.6172C86.761 69.4634 86.4779 69.3833 86.1907 69.3833C85.9036 69.3833 85.6205 69.4634 85.3644 69.6172L14.0474 118.358C13.5885 118.662 13.5885 119.169 14.0474 119.481Z" fill="#E0E0E0"/>
<path d="M96.31 136.935L68.915 155.652C68.7091 155.777 68.4812 155.842 68.2498 155.842C68.0185 155.842 67.7905 155.777 67.5847 155.652L30.6177 130.392C30.5375 130.359 30.4678 130.298 30.4184 130.217C30.3691 130.135 30.3425 130.037 30.3425 129.937C30.3425 129.836 30.3691 129.739 30.4184 129.657C30.4678 129.575 30.5375 129.514 30.6177 129.482L58.0096 110.765C58.2155 110.64 58.4435 110.575 58.6748 110.575C58.9061 110.575 59.1341 110.64 59.3399 110.765L96.31 136.025C96.3902 136.058 96.4599 136.119 96.5093 136.2C96.5586 136.282 96.5852 136.38 96.5852 136.48C96.5852 136.581 96.5586 136.678 96.5093 136.76C96.4599 136.842 96.3902 136.903 96.31 136.935Z" fill="#E0E0E0"/>
<path opacity="0.1" d="M112.415 87.7358L109.674 85.8641C109.421 85.6894 109.133 85.5973 108.84 85.5973C108.547 85.5973 108.259 85.6894 108.006 85.8641L73.8978 109.48L70.6855 113.954C70.6517 114.001 70.6315 114.061 70.6279 114.123C70.6243 114.185 70.6373 114.246 70.6653 114.299C70.6932 114.352 70.7345 114.392 70.7833 114.415C70.832 114.439 70.8857 114.443 70.9366 114.427L77.9288 112.225L112.415 88.6863C112.485 88.6378 112.544 88.5684 112.584 88.485C112.624 88.4016 112.646 88.3072 112.646 88.211C112.646 88.1149 112.624 88.0205 112.584 87.9371C112.544 87.8537 112.485 87.7843 112.415 87.7358Z" fill="#455A64"/>
<path d="M29.3154 7.41899L28.1061 7.89609V5.16198C28.1061 2.99671 26.4193 2.47558 24.5898 3.56188C22.7604 4.66286 21.2751 7.27587 21.2751 9.4338V9.83015C21.0162 9.74582 20.7455 9.72381 20.4792 9.76541C20.2129 9.80702 19.9564 9.91139 19.7248 10.0724C18.407 10.8504 17.3403 12.7478 17.3403 14.3075V14.4873L15.6721 15.4965C14.8039 16.0103 14.1 17.2581 14.1 18.2857C14.1 19.3133 14.8101 19.728 15.6721 19.2142L29.3154 11.1403C30.1836 10.6265 30.8874 9.37875 30.8874 8.35116C30.8874 7.32358 30.196 6.9052 29.3154 7.41899Z" fill="#EBEBEB"/>
<path d="M43.3897 13.5624L41.1943 14.8616C41.2067 14.7632 41.2129 14.6638 41.2129 14.5643V13.9294C41.2129 12.7734 40.4191 12.3036 39.4393 12.8835C39.0281 13.1392 38.6676 13.4958 38.382 13.9294C38.2238 12.4614 37.1076 11.9293 35.7525 12.733C34.2859 13.5991 33.0983 15.7093 33.0983 17.4416V18.4178C33.0901 18.8109 33.167 19.2 33.3215 19.5481L31.5014 20.6234C31.2271 20.7943 30.9932 21.0436 30.821 21.3487C30.6488 21.6538 30.5438 22.0049 30.5154 22.3703C30.5154 23.0125 30.9588 23.2731 31.5014 22.9538L43.3897 15.9185C43.6634 15.7472 43.8966 15.4977 44.0683 15.1926C44.2399 14.8876 44.3445 14.5366 44.3726 14.1716C44.3726 13.5147 43.9323 13.2541 43.3897 13.5624Z" fill="#EBEBEB"/>
<path d="M16.6024 109.396L19.1295 108.321C19.1295 108.321 19.8737 101.785 19.1853 96.4154C18.159 88.3783 12.4102 80.598 8.31415 79.0933C0.788658 76.3188 0.832068 84.7597 6.51572 89.4719C11.4614 93.5676 15.8676 99.689 16.6024 109.396Z" fill="#1D334A"/>
<path d="M17.8427 109.025H17.8117C17.7365 109.002 17.6715 108.946 17.6296 108.868C17.5876 108.791 17.5718 108.697 17.5853 108.607C18.9403 101.267 14.1249 87.3761 7.35286 83.2584C7.30371 83.2039 7.27091 83.1318 7.25944 83.0532C7.24797 82.9746 7.25844 82.8938 7.28928 82.8228C7.32012 82.7519 7.36964 82.6948 7.43034 82.6602C7.49105 82.6255 7.55964 82.6153 7.62573 82.6309C14.6148 86.877 19.576 101.179 18.1682 108.757C18.149 108.84 18.1058 108.912 18.0464 108.961C17.9869 109.01 17.9148 109.033 17.8427 109.025Z" fill="white"/>
<path d="M19.9232 115.881C20.0442 115.011 20.1217 113.73 20.1434 113.418C20.2337 112.304 20.1281 111.179 19.8333 110.115C19.6969 109.649 19.4271 109.198 19.3775 108.724C19.3279 108.251 19.4209 107.829 19.3186 107.359C19.2199 106.891 19.0439 106.451 18.8007 106.065C18.5575 105.678 18.2519 105.352 17.9016 105.106C17.2256 104.651 16.3512 104.445 15.9698 103.638C15.7155 103.095 15.7745 102.434 15.7962 101.803C15.8272 100.852 15.731 99.8321 15.2163 99.1054C14.5528 98.1696 13.3931 97.9824 12.3667 98.1072C11.3404 98.232 10.3234 98.599 9.29391 98.4962C7.5544 98.3311 6.06914 96.8668 4.33273 96.5695C3.72033 96.4709 3.09809 96.4995 2.49399 96.6539C1.60098 96.8741 0.686259 97.3879 0.270759 98.3494C0.10083 98.8029 0.0288632 99.2993 0.06134 99.7939C0.0938169 100.288 0.229718 100.766 0.456804 101.183C0.937419 102.122 1.6971 102.717 2.50019 103.234C3.30328 103.752 3.92033 104.313 3.51413 105.543C3.37196 105.889 3.28073 106.261 3.24437 106.644C3.25279 106.981 3.33526 107.31 3.48368 107.598C3.6321 107.887 3.84136 108.124 4.09087 108.288C4.59143 108.609 5.13635 108.823 5.70015 108.919L7.67533 109.392C8.24896 109.532 8.95593 109.84 8.98384 110.534C9.00244 110.963 8.72958 111.323 8.59004 111.723C8.47276 112.132 8.4596 112.572 8.55222 112.99C8.64484 113.407 8.83915 113.784 9.11097 114.071C9.66621 114.639 10.3562 114.989 11.0861 115.073C11.8086 115.198 12.5404 115.183 13.2567 115.279C14.3772 115.431 15.4602 115.849 16.4411 116.508C16.6798 116.704 16.9437 116.853 17.2225 116.949C17.6473 117.055 19.8457 116.428 19.9232 115.881Z" fill="#1D334A"/>
<g opacity="0.1">
<path opacity="0.1" d="M19.9232 115.881C20.0442 115.011 20.1217 113.73 20.1434 113.418C20.2337 112.304 20.1281 111.179 19.8333 110.115C19.6969 109.649 19.4271 109.198 19.3775 108.724C19.3279 108.251 19.4209 107.829 19.3186 107.359C19.2199 106.891 19.0439 106.451 18.8007 106.065C18.5575 105.678 18.2519 105.352 17.9016 105.106C17.2256 104.651 16.3512 104.445 15.9698 103.638C15.7155 103.095 15.7745 102.434 15.7962 101.803C15.8272 100.852 15.731 99.8321 15.2163 99.1054C14.5528 98.1696 13.3931 97.9824 12.3667 98.1072C11.3404 98.232 10.3234 98.599 9.29391 98.4962C7.5544 98.3311 6.06914 96.8668 4.33273 96.5695C3.72033 96.4709 3.09809 96.4995 2.49399 96.6539C1.60098 96.8741 0.686259 97.3879 0.270759 98.3494C0.10083 98.8029 0.0288632 99.2993 0.06134 99.7939C0.0938169 100.288 0.229718 100.766 0.456804 101.183C0.937419 102.122 1.6971 102.717 2.50019 103.234C3.30328 103.752 3.92033 104.313 3.51413 105.543C3.37196 105.889 3.28073 106.261 3.24437 106.644C3.25279 106.981 3.33526 107.31 3.48368 107.598C3.6321 107.887 3.84136 108.124 4.09087 108.288C4.59143 108.609 5.13635 108.823 5.70015 108.919L7.67533 109.392C8.24896 109.532 8.95593 109.84 8.98384 110.534C9.00244 110.963 8.72958 111.323 8.59004 111.723C8.47276 112.132 8.4596 112.572 8.55222 112.99C8.64484 113.407 8.83915 113.784 9.11097 114.071C9.66621 114.639 10.3562 114.989 11.0861 115.073C11.8086 115.198 12.5404 115.183 13.2567 115.279C14.3772 115.431 15.4602 115.849 16.4411 116.508C16.6798 116.704 16.9437 116.853 17.2225 116.949C17.6473 117.055 19.8457 116.428 19.9232 115.881Z" fill="black"/>
</g>
<path d="M18.7295 116.688C18.6785 116.682 18.6299 116.659 18.5894 116.623C18.5488 116.586 18.5178 116.536 18.5 116.479C16.0194 108.746 10.1466 102.566 1.94516 99.0723C1.87751 99.0433 1.82229 98.9838 1.79151 98.9069C1.76073 98.8299 1.75689 98.7416 1.78082 98.6613C1.80664 98.5824 1.85706 98.5182 1.92168 98.4821C1.9863 98.4459 2.06019 98.4404 2.12811 98.4668C10.4815 102.027 16.4752 108.343 19.0054 116.251C19.0184 116.291 19.0247 116.333 19.0239 116.375C19.0232 116.417 19.0153 116.458 19.0009 116.497C18.9865 116.536 18.9658 116.57 18.9399 116.599C18.9141 116.628 18.8837 116.651 18.8504 116.666C18.812 116.684 18.7707 116.692 18.7295 116.688Z" fill="white"/>
<path d="M106.297 90.4405L105.73 90.8295L105.051 91.3029L77.8047 110.06C78.0155 109.495 77.8419 108.368 77.3489 107.289C76.7753 106.034 75.9008 105.043 75.2714 105.01L102.335 86.3779L103.64 85.4934C102.825 86.1173 105.469 91.0681 106.297 90.4405Z" fill="#1D334A"/>
<path d="M103.556 85.5374C103.916 85.2695 104.549 86.0659 105.153 87.0751C105.959 88.4183 106.617 90.1946 106.142 90.5469L105.212 91.1891L104.877 91.413C105.352 91.046 104.694 89.2808 103.888 87.9412C103.308 86.9724 102.648 86.231 102.279 86.4145L103.556 85.5374Z" fill="#EBEBEB"/>
<path d="M102.552 86.2275C103.386 85.6072 106.028 90.5837 105.194 91.2039L103.928 92.0774C104.763 91.4571 102.124 86.4844 101.29 87.1046L102.552 86.2275Z" fill="#1D334A"/>
<path d="M100.084 87.9303L101.324 87.0678C102.136 86.4513 104.735 91.2259 104.037 91.9929L103.994 92.0333L102.732 92.8921C103.559 92.2535 100.911 87.3027 100.084 87.9303Z" fill="#EBEBEB"/>
<path d="M75.2715 105.007L71.5351 110.082L75.2715 105.007Z" fill="#FAFAFA"/>
<path d="M71.535 110.089L70.6296 111.323L71.535 110.089Z" fill="#E0E0E0"/>
<path d="M77.2187 106.342C76.6978 105.572 75.997 105.014 75.2777 105.007L71.5351 110.082C71.6853 110.111 71.823 110.199 71.9258 110.332C72.3661 111.029 72.3258 111.374 72.3258 111.374L77.8048 110.053C78.3443 109.073 77.9784 107.476 77.2187 106.342Z" fill="#FFA8A7"/>
<path d="M71.9257 110.339C71.8802 110.266 71.8215 110.206 71.754 110.163C71.6864 110.119 71.6117 110.094 71.535 110.089L70.6296 111.323C70.5988 111.362 70.5794 111.413 70.5745 111.466C70.5695 111.52 70.5791 111.574 70.602 111.621C70.6248 111.668 70.6597 111.704 70.7015 111.726C70.7433 111.748 70.7898 111.753 70.8343 111.741L72.3257 111.374C72.3257 111.374 72.3908 111.04 71.9257 110.339Z" fill="#37474F"/>
<path d="M111.265 87.0091L106.304 90.4442C106.276 90.4624 106.247 90.476 106.217 90.4846C106.555 90.0148 105.925 88.3487 105.16 87.0752C104.601 86.1467 103.938 85.4274 103.563 85.5375L108.741 81.9519C109.876 81.0161 111.37 83.552 111.668 85.365C111.795 86.0513 111.683 86.6568 111.265 87.0091Z" fill="#F28F8F"/>
<path opacity="0.15" d="M111.265 87.0092C111.683 86.6422 111.78 86.0513 111.662 85.3651C111.662 85.2806 111.628 85.1926 111.609 85.1045L77.9784 108.163L70.6451 111.679C70.67 111.706 70.7002 111.727 70.7332 111.737C70.7661 111.748 70.8008 111.75 70.8343 111.741L72.3257 111.374L77.8047 110.053L111.265 87.0092Z" fill="black"/>
<path d="M90.0248 1.81873C89.5597 1.52147 88.9581 1.5655 88.3008 2.01324L22.5713 46.9224C21.7808 47.522 21.1388 48.3591 20.7109 49.3482L18.0628 47.5353C18.6427 46.2324 19.4644 45.7884 20.1806 45.2966L85.9163 0.380113C86.6047 -0.0859706 87.2279 -0.107992 87.6992 0.229644L90.0248 1.81873Z" fill="#455A64"/>
<path d="M18.4349 119.745C17.8551 119.36 17.4861 118.45 17.4861 117.154V51.4033C17.4861 49.9353 17.5729 48.6178 18.0721 47.5352L20.7202 49.3481C20.6519 49.4949 20.5868 49.649 20.5217 49.8068C20.4566 49.9647 20.4256 50.0601 20.3853 50.1738C20.3764 50.1921 20.3701 50.2119 20.3667 50.2326C20.3127 50.3776 20.2651 50.5258 20.224 50.6766C20.1775 50.8308 20.1372 50.9886 20.1031 51.1427C20.072 51.2631 20.0472 51.3857 20.0287 51.5097C19.9275 52.0073 19.8754 52.5172 19.8737 53.0291V118.776C19.8737 120.086 20.2488 121.004 20.8349 121.382L18.4349 119.745Z" fill="#263238"/>
<path d="M88.3007 2.00957L21.9759 47.2637C20.4845 48.2839 19.8705 50.0345 19.8705 52.4016V118.78C19.8705 121.136 21.0798 122.215 22.5713 121.198L88.3069 76.282C89.7984 75.2654 91.0077 72.5276 91.0077 70.1752V4.4244C91.0015 2.07196 89.7798 0.989327 88.3007 2.00957Z" fill="#37474F"/>
<path d="M84.6791 75.6948L26.193 115.661C25.4209 116.189 24.7945 115.627 24.7945 114.405V50.6731C24.7945 49.451 25.4147 48.0344 26.193 47.5059L84.6791 7.54021C85.4512 7.01173 86.0775 7.57324 86.0775 8.79533V72.5276C86.0775 73.7497 85.4388 75.1663 84.6791 75.6948Z" fill="#1D334A"/>
<path opacity="0.1" d="M84.6791 75.6948L26.193 115.661C25.4209 116.189 24.7945 115.627 24.7945 114.405V50.6731C24.7945 49.451 25.4147 48.0344 26.193 47.5059L84.6791 7.54021C85.4512 7.01173 86.0775 7.57324 86.0775 8.79533V72.5276C86.0775 73.7497 85.4388 75.1663 84.6791 75.6948Z" fill="black"/>
<path d="M23.0364 86.2274C23.032 86.5394 22.966 86.8459 22.8438 87.1224C22.7216 87.399 22.5465 87.6379 22.3325 87.8202C21.9449 88.0844 21.6287 87.8018 21.6287 87.1889C21.6331 86.8769 21.699 86.5704 21.8212 86.2939C21.9434 86.0174 22.1185 85.7785 22.3325 85.5962C22.7201 85.3246 23.0364 85.6072 23.0364 86.2274Z" fill="#263238"/>
<path d="M22.3326 75.5443C22.1656 75.6859 22.0289 75.8719 21.9336 76.0873C21.8383 76.3027 21.787 76.5416 21.7838 76.7847V82.4584C21.7838 82.9355 22.0287 83.1557 22.3326 82.9465C22.4988 82.8051 22.6347 82.6196 22.7295 82.4048C22.8242 82.1901 22.8752 81.952 22.8783 81.7098V76.036C22.8783 75.5589 22.6334 75.3387 22.3326 75.5443Z" fill="#263238"/>
<path d="M83.9814 13.867C83.938 13.4707 83.6714 13.3276 83.3613 13.5478L28.7263 50.8674C28.5395 51.012 28.3843 51.207 28.2736 51.4363L27.0736 50.6289C27.1311 50.5112 27.1998 50.4016 27.2782 50.3023L27.3371 50.2325C27.3944 50.1677 27.4579 50.111 27.5263 50.0637L82.1458 12.7294C82.443 12.5449 82.7863 12.4928 83.1132 12.5826C83.2094 12.6039 83.3018 12.6449 83.3861 12.7037C83.4254 12.7305 83.4628 12.7612 83.4977 12.7954C83.5234 12.8157 83.5464 12.8405 83.5659 12.8688C83.5847 12.8855 83.6014 12.9053 83.6156 12.9275C83.648 12.9656 83.677 13.0074 83.7024 13.0523C83.7258 13.0875 83.7476 13.1243 83.7675 13.1624C83.8137 13.2466 83.8521 13.3364 83.8822 13.4303C83.903 13.4813 83.9206 13.5341 83.9349 13.5881C83.9349 13.6285 83.9504 13.6652 83.9597 13.7092C83.97 13.7612 83.9772 13.8139 83.9814 13.867Z" fill="#FAFAFA"/>
<path d="M28.4441 110.416C28.2333 110.416 28.0875 110.218 28.0875 109.873V52.1815C28.0965 51.9223 28.1605 51.6698 28.2736 51.4475L27.0736 50.6292C27.0007 50.7755 26.9463 50.9338 26.9123 51.0989C26.9006 51.1606 26.8923 51.2231 26.8875 51.2861C26.886 51.3166 26.886 51.3473 26.8875 51.3778V109.055C26.8949 109.31 26.9532 109.559 27.0578 109.783C27.1624 110.006 27.3102 110.197 27.4891 110.339C27.7154 110.477 27.9715 110.53 28.224 110.493C28.4013 110.483 28.5738 110.421 28.7263 110.314C28.6403 110.373 28.5437 110.409 28.4441 110.416Z" fill="#E0E0E0"/>
<path d="M83.9876 13.9882C83.9876 13.5038 83.6993 13.3093 83.3489 13.5478L28.7262 50.8712C28.5405 51.0151 28.3859 51.2086 28.275 51.4362C28.164 51.6638 28.0998 51.919 28.0875 52.1814V109.873C28.0875 110.357 28.3759 110.552 28.7262 110.313L83.3489 72.9936C83.5348 72.8491 83.6895 72.655 83.8005 72.4268C83.9114 72.1986 83.9755 71.9427 83.9876 71.6798V13.9882Z" fill="#F0F0F0"/>
<path d="M36.6859 66.986L33.6565 71.5478L31.889 74.2048C31.5073 73.209 31.3218 72.1235 31.3464 71.0303C31.3464 67.9659 32.4658 64.4244 34.2797 61.6903L34.6797 62.5711L36.6859 66.986Z" fill="#1D334A"/>
<path d="M39.2812 57.8331L36.9091 66.3291L35.8269 63.973L34.5866 61.2242C35.284 60.2152 36.1232 59.356 37.0672 58.6846C37.7377 58.1969 38.4966 57.9051 39.2812 57.8331Z" fill="#1D334A"/>
<path d="M41.9913 59.7341L37.5355 65.8079L39.7587 57.8478C40.2359 57.9108 40.6915 58.1172 41.0822 58.4474C41.473 58.7776 41.7859 59.2205 41.9913 59.7341Z" fill="#1D334A"/>
<path d="M42.5835 63.0151C42.5835 67.6503 40.0099 73.1845 36.844 75.3425C34.8781 76.6893 33.1231 76.4435 32.1309 74.7002L37.1169 67.2135L37.1448 67.1732L42.2021 60.281C42.4705 61.1568 42.5998 62.0837 42.5835 63.0151Z" fill="#1D334A"/>
<path opacity="0.7" d="M39.2812 57.8331L36.9091 66.3291L35.8269 63.973L34.5866 61.2242C35.284 60.2152 36.1232 59.356 37.0672 58.6846C37.7377 58.1969 38.4966 57.9051 39.2812 57.8331Z" fill="white"/>
<path opacity="0.3" d="M41.9913 59.7341L37.5355 65.8079L39.7587 57.8478C40.2359 57.9108 40.6915 58.1172 41.0822 58.4474C41.473 58.7776 41.7859 59.2205 41.9913 59.7341Z" fill="black"/>
<path opacity="0.5" d="M42.5835 63.0151C42.5835 67.6503 40.0099 73.1845 36.844 75.3425C34.8781 76.6893 33.1231 76.4435 32.1309 74.7002L37.1169 67.2135L37.1448 67.1732L42.2021 60.281C42.4705 61.1568 42.5998 62.0837 42.5835 63.0151Z" fill="white"/>
<path d="M32.1371 54.0935C32.2323 54.0232 32.3373 53.9735 32.4472 53.9467C32.5276 53.9259 32.6117 53.9416 32.6829 53.9907C32.756 54.0486 32.8089 54.136 32.8317 54.2366C32.8703 54.3838 32.8881 54.5376 32.8844 54.6917C32.8867 54.9158 32.8585 55.1389 32.8007 55.3523C32.7497 55.5431 32.671 55.7219 32.5681 55.8807L32.8968 56.8092C32.9 56.8249 32.9 56.8413 32.8968 56.857C32.8966 56.8876 32.8902 56.9178 32.8782 56.945C32.8701 56.969 32.856 56.9894 32.8379 57.0038L32.4751 57.2496C32.441 57.2753 32.4162 57.2753 32.4007 57.2496C32.3849 57.232 32.3722 57.2108 32.3635 57.1872L32.0534 56.3505L31.8085 56.5193V57.5579C31.8086 57.595 31.8012 57.6315 31.7867 57.6643C31.7761 57.6937 31.759 57.719 31.7371 57.7377L31.3868 57.9763C31.3799 57.9835 31.3711 57.9875 31.3619 57.9875C31.3528 57.9875 31.344 57.9835 31.3371 57.9763C31.3293 57.9659 31.3233 57.9537 31.3196 57.9404C31.3158 57.9272 31.3144 57.9131 31.3154 57.8992V54.7651C31.3148 54.728 31.3223 54.6913 31.3371 54.6587C31.3458 54.628 31.3634 54.602 31.3868 54.5853L32.1371 54.0935ZM31.8271 55.7706L32.1371 55.5651C32.2111 55.5136 32.2746 55.4434 32.3232 55.3596C32.3737 55.2601 32.3985 55.1453 32.3945 55.0293C32.3945 54.8935 32.3697 54.8165 32.3232 54.7981C32.2911 54.7903 32.2579 54.7905 32.2259 54.7987C32.1939 54.807 32.1636 54.823 32.1371 54.8458L31.8271 55.0513V55.7706Z" fill="#455A64"/>
<path d="M34.6611 54.9889C34.6682 54.9824 34.6769 54.9788 34.6859 54.9788C34.6949 54.9788 34.7036 54.9824 34.7107 54.9889C34.7186 54.9994 34.7245 55.0116 34.7283 55.0248C34.732 55.0381 34.7334 55.0521 34.7324 55.066V55.5835C34.7323 55.6204 34.7248 55.6569 34.7107 55.6899C34.7002 55.7193 34.6831 55.7447 34.6611 55.7633L33.3991 56.6257C33.3923 56.6329 33.3834 56.6369 33.3743 56.6369C33.3651 56.6369 33.3563 56.6329 33.3495 56.6257C33.3411 56.6157 33.3348 56.6036 33.331 56.5902C33.3273 56.5768 33.3262 56.5626 33.3278 56.5487V53.4145C33.3279 53.3775 33.3354 53.3411 33.3495 53.3081C33.36 53.2787 33.3771 53.2533 33.3991 53.2347L34.6394 52.3869C34.6465 52.3804 34.6552 52.3768 34.6642 52.3768C34.6732 52.3768 34.6819 52.3804 34.689 52.3869C34.6969 52.3974 34.7028 52.4096 34.7066 52.4228C34.7103 52.4361 34.7117 52.4501 34.7107 52.464V52.9815C34.7105 53.0185 34.7031 53.0549 34.689 53.0879C34.6785 53.1173 34.6614 53.1427 34.6394 53.1613L33.8208 53.7191V54.2439L34.5805 53.7228C34.5873 53.7156 34.5961 53.7116 34.6053 53.7116C34.6144 53.7116 34.6233 53.7156 34.6301 53.7228C34.6385 53.7328 34.6448 53.745 34.6485 53.7583C34.6523 53.7717 34.6534 53.7859 34.6518 53.7999V54.3137C34.652 54.3507 34.6445 54.3872 34.6301 54.4201C34.6204 54.4501 34.6031 54.4757 34.5805 54.4935L33.8208 55.033V55.5761L34.6611 54.9889Z" fill="#455A64"/>
<path d="M36.0037 51.4511C36.0988 51.3821 36.204 51.3348 36.3138 51.3116C36.3944 51.2928 36.478 51.3126 36.5463 51.3667C36.6182 51.431 36.6704 51.5211 36.6952 51.6236C36.7376 51.7763 36.7586 51.9363 36.7572 52.097C36.7588 52.2773 36.7421 52.4572 36.7076 52.6328C36.6739 52.7912 36.6239 52.944 36.5587 53.0879C36.4945 53.2213 36.4164 53.3446 36.3262 53.4549C36.2349 53.5663 36.1304 53.6615 36.0161 53.7375L35.6781 53.9687V54.9596C35.6768 54.9964 35.6695 55.0325 35.6564 55.066C35.6465 55.0969 35.6279 55.1229 35.6037 55.1394L35.2564 55.3779C35.2496 55.3852 35.2408 55.3892 35.2316 55.3892C35.2225 55.3892 35.2136 55.3852 35.2068 55.3779C35.1988 55.3676 35.1927 55.3555 35.189 55.3422C35.1852 55.3289 35.1839 55.3148 35.1851 55.3009V52.1667C35.1845 52.1297 35.192 52.093 35.2068 52.0603C35.2154 52.0296 35.233 52.0036 35.2564 51.9869L36.0037 51.4511ZM35.6657 53.198L35.9758 52.9741C36.0582 52.9185 36.1258 52.8369 36.1713 52.7384C36.2167 52.6399 36.2382 52.5284 36.2332 52.4163C36.2332 52.2805 36.2115 52.1998 36.1618 52.1704C36.1306 52.1584 36.0974 52.1555 36.065 52.1619C36.0327 52.1683 36.0021 52.1838 35.9758 52.2071L35.6657 52.431V53.198Z" fill="#455A64"/>
<path d="M37.0673 51.9905C37.0737 51.8025 37.0955 51.6157 37.1324 51.4327C37.1693 51.25 37.2234 51.0727 37.2936 50.9042C37.3637 50.7409 37.4501 50.5881 37.551 50.4491C37.6488 50.312 37.7664 50.1965 37.8983 50.1078C38.0024 50.0291 38.1221 49.9836 38.2455 49.9757C38.3381 49.972 38.4285 50.0086 38.4998 50.0785C38.5777 50.1612 38.6346 50.268 38.6641 50.3868C38.7039 50.5378 38.7258 50.6947 38.7293 50.8528C38.7293 50.9886 38.7293 51.1354 38.7293 51.2859C38.7293 51.4364 38.7293 51.5832 38.7293 51.7189C38.7225 51.9057 38.7007 52.0913 38.6641 52.2731C38.6271 52.4575 38.5719 52.6361 38.4998 52.8052C38.4319 52.9692 38.3464 53.1222 38.2455 53.2603C38.1462 53.3956 38.0289 53.5109 37.8983 53.6016C37.7939 53.68 37.6744 53.7254 37.551 53.7338C37.4568 53.7392 37.3644 53.701 37.2936 53.6273C37.217 53.544 37.1612 53.4374 37.1324 53.319C37.0926 53.168 37.0707 53.0111 37.0673 52.853C37.0673 52.7208 37.0673 52.5814 37.0673 52.4309C37.0673 52.2805 37.0673 52.13 37.0673 51.9905ZM38.2362 52.0309C38.2362 51.9685 38.2362 51.9024 38.2362 51.8327C38.2362 51.763 38.2362 51.6859 38.2362 51.6125C38.2362 51.5391 38.2362 51.4657 38.2362 51.396C38.2362 51.3263 38.2362 51.2675 38.2362 51.2162C38.2345 51.1465 38.2251 51.0774 38.2083 51.0106C38.1972 50.9604 38.1746 50.9148 38.1432 50.8785C38.116 50.8464 38.0793 50.828 38.0409 50.8271C37.9903 50.8314 37.9413 50.8503 37.8983 50.8822C37.8433 50.9186 37.7949 50.9672 37.7556 51.0253C37.7131 51.0807 37.6785 51.1439 37.6533 51.2125C37.6251 51.283 37.6032 51.3568 37.5882 51.4327C37.5728 51.5123 37.5635 51.5933 37.5603 51.6749C37.5603 51.7336 37.5603 51.7997 37.5603 51.8694C37.5603 51.9391 37.5603 52.0089 37.5603 52.0859C37.5603 52.163 37.5603 52.2327 37.5603 52.3025C37.5603 52.3722 37.5603 52.4346 37.5603 52.4933C37.5569 52.6153 37.5898 52.7348 37.6533 52.8309C37.706 52.9007 37.7866 52.9007 37.8983 52.8309C38.0079 52.7568 38.094 52.642 38.1432 52.5043C38.1984 52.3544 38.2309 52.1941 38.2393 52.0309H38.2362Z" fill="#455A64"/>
<path d="M39.9696 48.7426C40.065 48.6729 40.1699 48.6232 40.2797 48.5958C40.3598 48.5757 40.4433 48.59 40.5153 48.6362C40.5878 48.6957 40.6413 48.7823 40.6672 48.8821C40.7042 49.0309 40.7209 49.1858 40.7169 49.3408C40.7185 49.5646 40.6913 49.7873 40.6362 50.0014C40.5835 50.1909 40.5038 50.3684 40.4006 50.5262L40.7293 51.4547C40.7318 51.4705 40.7318 51.4867 40.7293 51.5024C40.729 51.5331 40.7226 51.5633 40.7107 51.5905C40.7033 51.6149 40.689 51.6357 40.6703 51.6492L40.3076 51.8988C40.2734 51.9208 40.2486 51.9245 40.2331 51.8988C40.218 51.8804 40.2055 51.8594 40.1959 51.8364L39.9014 50.9996L39.6564 51.1648V52.2034C39.657 52.2405 39.6495 52.2771 39.6347 52.3098C39.625 52.3408 39.6078 52.3676 39.5851 52.3869L39.2347 52.6217C39.2315 52.6257 39.2277 52.6289 39.2234 52.6311C39.2191 52.6333 39.2145 52.6344 39.2099 52.6344C39.2053 52.6344 39.2007 52.6333 39.1964 52.6311C39.1921 52.6289 39.1883 52.6257 39.1851 52.6217C39.1767 52.6117 39.1704 52.5996 39.1666 52.5862C39.1629 52.5729 39.1618 52.5586 39.1634 52.5447V49.4105C39.1632 49.3735 39.1706 49.337 39.1851 49.3041C39.1957 49.2748 39.2129 49.2494 39.2347 49.2307L39.9696 48.7426ZM39.6595 50.4161L39.9696 50.2106C40.0434 50.1604 40.107 50.0915 40.1556 50.0087C40.2057 49.9077 40.2305 49.7919 40.2269 49.6748C40.2269 49.539 40.2021 49.4619 40.1556 49.4436C40.1233 49.4365 40.0901 49.4374 40.0581 49.4463C40.0261 49.4551 39.9959 49.4717 39.9696 49.495L39.6595 49.7005V50.4161Z" fill="#455A64"/>
<path d="M42.5122 47.0031C42.5193 46.9966 42.528 46.993 42.537 46.993C42.546 46.993 42.5547 46.9966 42.5618 47.0031C42.5699 47.0141 42.576 47.027 42.5797 47.0408C42.5835 47.0547 42.5847 47.0694 42.5835 47.0839V47.5977C42.5833 47.6347 42.5759 47.6711 42.5618 47.7041C42.5513 47.7335 42.5341 47.7589 42.5122 47.7775L42.044 48.0968V50.585C42.0446 50.6221 42.0371 50.6588 42.0223 50.6914C42.0136 50.7221 41.996 50.7481 41.9727 50.7648L41.6223 51.0034C41.6154 51.0106 41.6066 51.0146 41.5975 51.0146C41.5883 51.0146 41.5795 51.0106 41.5727 51.0034C41.5643 50.9934 41.558 50.9812 41.5542 50.9679C41.5504 50.9545 41.5493 50.9403 41.5509 50.9263V48.4271L41.0827 48.7464C41.0759 48.7536 41.0671 48.7576 41.0579 48.7576C41.0488 48.7576 41.0399 48.7536 41.0331 48.7464C41.0253 48.7359 41.0193 48.7237 41.0156 48.7105C41.0118 48.6972 41.0104 48.6832 41.0114 48.6693V48.1555C41.0112 48.1173 41.0187 48.0796 41.0331 48.0454C41.0436 48.016 41.0608 47.9906 41.0827 47.972L42.5122 47.0031Z" fill="#455A64"/>
<path d="M44.9865 45.315L79.8389 21.5007V24.7853L44.9865 48.5996V45.315Z" fill="#1D334A"/>
<g opacity="0.3">
<path opacity="0.3" d="M44.7727 55.6607C44.7212 55.661 44.6706 55.6453 44.6259 55.615C44.5812 55.5847 44.5442 55.5409 44.5184 55.4882C44.4819 55.407 44.4724 55.3125 44.492 55.2235C44.5115 55.1344 44.5586 55.0573 44.6238 55.0074L65.0546 41.0616C65.1206 41.0381 65.1913 41.0413 65.2556 41.0706C65.3199 41.0999 65.374 41.1538 65.4096 41.2236C65.4451 41.2935 65.46 41.3754 65.4519 41.4563C65.4438 41.5373 65.4131 41.6128 65.3647 41.6708L44.937 55.6166C44.8867 55.649 44.8298 55.6642 44.7727 55.6607Z" fill="#455A64"/>
<path opacity="0.3" d="M44.7726 58.9451C44.7212 58.9455 44.6705 58.9297 44.6259 58.8994C44.5812 58.8691 44.5441 58.8254 44.5184 58.7726C44.4819 58.6914 44.4724 58.5969 44.4919 58.5079C44.5115 58.4189 44.5585 58.3417 44.6238 58.2918L65.0546 44.346C65.1205 44.3225 65.1913 44.3257 65.2555 44.355C65.3198 44.3844 65.374 44.4382 65.4096 44.5081C65.4451 44.5779 65.46 44.6598 65.4519 44.7408C65.4437 44.8217 65.413 44.8972 65.3647 44.9552L44.937 58.901C44.8867 58.9334 44.8298 58.9486 44.7726 58.9451Z" fill="#455A64"/>
<path opacity="0.3" d="M44.7726 62.2296C44.7212 62.23 44.6705 62.2142 44.6259 62.1839C44.5812 62.1537 44.5441 62.1099 44.5184 62.0571C44.4819 61.9759 44.4724 61.8815 44.4919 61.7924C44.5115 61.7034 44.5585 61.6263 44.6238 61.5764L65.0546 47.6306C65.1205 47.6071 65.1913 47.6102 65.2555 47.6396C65.3198 47.6689 65.374 47.7228 65.4096 47.7926C65.4451 47.8625 65.46 47.9443 65.4519 48.0253C65.4437 48.1063 65.413 48.1817 65.3647 48.2398L44.937 62.1856C44.8867 62.2179 44.8298 62.2332 44.7726 62.2296Z" fill="#455A64"/>
<path opacity="0.3" d="M44.7726 65.5143C44.7212 65.5147 44.6705 65.4989 44.6259 65.4686C44.5812 65.4383 44.5441 65.3946 44.5184 65.3418C44.4819 65.2606 44.4724 65.1661 44.4919 65.0771C44.5115 64.9881 44.5585 64.9109 44.6238 64.861L65.0546 50.9152C65.0874 50.8743 65.1278 50.8429 65.1725 50.8234C65.2173 50.804 65.2652 50.797 65.3127 50.803C65.3601 50.8091 65.4057 50.828 65.4459 50.8583C65.4861 50.8886 65.5199 50.9294 65.5446 50.9777C65.5694 51.026 65.5843 51.0803 65.5884 51.1365C65.5925 51.1928 65.5855 51.2494 65.5681 51.3019C65.5507 51.3545 65.5233 51.4015 65.488 51.4395C65.4527 51.4775 65.4105 51.5053 65.3647 51.5208L44.937 65.4666C44.887 65.5002 44.8301 65.5167 44.7726 65.5143Z" fill="#455A64"/>
<path opacity="0.3" d="M44.7726 68.8027C44.7184 68.8009 44.6656 68.7824 44.6193 68.7489C44.5731 68.7154 44.5351 68.6681 44.5091 68.6118C44.4725 68.5306 44.4631 68.4362 44.4826 68.3471C44.5022 68.2581 44.5492 68.181 44.6145 68.1311L65.0453 54.1853C65.1107 54.1632 65.1804 54.1671 65.2437 54.1965C65.307 54.2259 65.3604 54.2791 65.3956 54.3479C65.4309 54.4168 65.446 54.4974 65.4388 54.5774C65.4315 54.6575 65.4022 54.7324 65.3553 54.7908L44.9277 68.7366C44.882 68.7748 44.8284 68.7976 44.7726 68.8027Z" fill="#455A64"/>
</g>
<path d="M68.1398 37.6814L70.7692 35.8868C70.946 35.7657 71.0793 35.8647 71.0793 36.107V39.6998C71.0746 39.8299 71.044 39.9568 70.9902 40.0703C70.9363 40.1838 70.8606 40.2806 70.7692 40.3531L68.1398 42.1514C67.9631 42.2725 67.8297 42.1734 67.8297 41.9312V38.3383C67.835 38.2079 67.8657 38.0807 67.9195 37.9667C67.9733 37.8527 68.0487 37.755 68.1398 37.6814Z" fill="#1D334A"/>
<path d="M72.4994 34.7052L75.1288 32.9106C75.3056 32.7895 75.4389 32.8849 75.4389 33.1271V36.72C75.4341 36.8506 75.4036 36.978 75.3498 37.092C75.2959 37.2061 75.2203 37.3037 75.1288 37.3769L72.4994 39.1715C72.3227 39.2926 72.1893 39.1972 72.1893 38.955V35.3621C72.1941 35.2316 72.2246 35.1042 72.2785 34.9901C72.3323 34.876 72.408 34.7784 72.4994 34.7052Z" fill="#1D334A"/>
<path d="M76.859 31.7252L79.4854 29.9306C79.6621 29.8095 79.7954 29.9086 79.7954 30.1508V33.7473C79.7904 33.8778 79.7598 34.0051 79.706 34.1192C79.6522 34.2332 79.5766 34.3308 79.4854 34.4043L76.859 36.2025C76.6823 36.3236 76.549 36.2246 76.549 35.9823V32.3895C76.553 32.2577 76.5832 32.1289 76.637 32.0135C76.6909 31.8982 76.7669 31.7994 76.859 31.7252Z" fill="#1D334A"/>
<path d="M68.1398 43.6561L70.7692 41.8578C70.946 41.7367 71.0793 41.8358 71.0793 42.078V45.6709C71.0746 45.8015 71.044 45.9289 70.9902 46.043C70.9363 46.157 70.8607 46.2546 70.7692 46.3278L68.1398 48.1224C67.9631 48.2435 67.8297 48.1445 67.8297 47.9022V44.313C67.8345 44.1825 67.865 44.0551 67.9189 43.941C67.9727 43.8269 68.0484 43.7294 68.1398 43.6561Z" fill="#1D334A"/>
<path d="M72.4994 40.6614L75.1288 38.8668C75.3056 38.7457 75.4389 38.8411 75.4389 39.0833V42.6762C75.4341 42.8067 75.4036 42.9341 75.3498 43.0482C75.2959 43.1623 75.2203 43.2599 75.1288 43.3331L72.4994 45.124C72.3227 45.2451 72.1893 45.1497 72.1893 44.9075V41.3146C72.1946 41.1847 72.2253 41.058 72.2791 40.9446C72.333 40.8312 72.4084 40.7342 72.4994 40.6614Z" fill="#1D334A"/>
<path d="M76.859 37.685L79.4854 35.8868C79.6621 35.7657 79.7954 35.8647 79.7954 36.107V39.6998C79.7904 39.8298 79.7598 39.9566 79.7059 40.0701C79.6521 40.1835 79.5765 40.2804 79.4854 40.3531L76.859 42.1514C76.6823 42.2725 76.549 42.1734 76.549 41.9312V38.3383C76.5539 38.2083 76.5846 38.0815 76.6384 37.9681C76.6923 37.8546 76.7678 37.7577 76.859 37.685Z" fill="#1D334A"/>
<path d="M68.1398 49.5976L70.7692 47.7994C70.946 47.6783 71.0793 47.7774 71.0793 48.0196V51.6124C71.0746 51.743 71.044 51.8704 70.9902 51.9845C70.9363 52.0986 70.8607 52.1961 70.7692 52.2694L68.1398 54.064C67.9631 54.1851 67.8297 54.086 67.8297 53.8474V50.2619C67.8335 50.1301 67.8636 50.0012 67.9175 49.8858C67.9714 49.7703 68.0476 49.6716 68.1398 49.5976Z" fill="#1D334A"/>
<path d="M72.4994 46.6177L75.1288 44.8231C75.3056 44.702 75.4389 44.8011 75.4389 45.0397V48.6325C75.4341 48.7631 75.4036 48.8905 75.3498 49.0046C75.2959 49.1187 75.2203 49.2162 75.1288 49.2895L72.4994 51.0877C72.3227 51.2088 72.1893 51.1098 72.1893 50.8675V47.2747C72.1941 47.1441 72.2246 47.0167 72.2785 46.9026C72.3323 46.7886 72.408 46.691 72.4994 46.6177Z" fill="#1D334A"/>
<path d="M76.859 43.6561L79.4854 41.8578C79.6621 41.7367 79.7954 41.8358 79.7954 42.078V45.6709C79.7904 45.8014 79.7598 45.9287 79.706 46.0427C79.6522 46.1568 79.5766 46.2544 79.4854 46.3278L76.859 48.1224C76.6823 48.2435 76.549 48.1445 76.549 47.9022V44.313C76.5539 44.1825 76.5846 44.0552 76.6384 43.9412C76.6922 43.8272 76.7678 43.7296 76.859 43.6561Z" fill="#1D334A"/>
<path d="M31.7681 101.975L65.4173 78.983V80.6235L31.7681 103.619V101.975Z" fill="#455A64"/>
<path d="M31.7681 100.335V90.4774L34.7324 92.5032L37.5882 86.2422L40.9928 88.569L42.5835 86.3744L44.9866 88.0148L48.4842 81.831L51.2718 83.2109L54.602 74.8764L56.9306 79.6657L60.112 74.2085L61.2965 76.8692L65.4173 69.1293V77.3389L31.7681 100.335Z" fill="#1D334A"/>
<path d="M31.7681 89.5635L34.534 91.2994L37.4022 84.9871L40.8254 87.3285L42.3634 85.2036L44.7664 86.8477L48.2082 80.8878L50.9958 82.2676L54.602 73.2359L57.005 78.161L60.1864 72.7038L61.3492 75.3681L65.4173 67.72V60.9159L61.1631 68.7659L59.4081 65.0226L57.005 69.9513L54.602 68.3072L52.1989 73.2359L49.7958 71.5918L46.1897 78.983L43.7866 76.5205L41.4052 80.6088L37.6471 78.161L34.6084 84.209L31.7681 82.2676V89.5635Z" fill="#1D334A"/>
<path opacity="0.3" d="M31.7681 89.5635L34.534 91.2994L37.4022 84.9871L40.8254 87.3285L42.3634 85.2036L44.7664 86.8477L48.2082 80.8878L50.9958 82.2676L54.602 73.2359L57.005 78.161L60.1864 72.7038L61.3492 75.3681L65.4173 67.72V60.9159L61.1631 68.7659L59.4081 65.0226L57.005 69.9513L54.602 68.3072L52.1989 73.2359L49.7958 71.5918L46.1897 78.983L43.7866 76.5205L41.4052 80.6088L37.6471 78.161L34.6084 84.209L31.7681 82.2676V89.5635Z" fill="black"/>
<g opacity="0.3">
<path opacity="0.3" d="M67.8204 59.6241C67.7599 59.6144 67.7032 59.5838 67.6573 59.5361C67.6115 59.4884 67.5785 59.4257 67.5626 59.356C67.5467 59.2862 67.5486 59.2125 67.568 59.144C67.5873 59.0755 67.6234 59.0152 67.6715 58.9709L79.69 50.7575C79.756 50.734 79.8267 50.7372 79.891 50.7665C79.9552 50.7959 80.0094 50.8497 80.045 50.9196C80.0805 50.9894 80.0954 51.0713 80.0873 51.1523C80.0792 51.2332 80.0485 51.3087 80.0001 51.3667L67.9816 59.5764C67.9329 59.6105 67.8769 59.6271 67.8204 59.6241Z" fill="#455A64"/>
<path opacity="0.3" d="M67.8204 62.9085C67.7599 62.8988 67.7032 62.8682 67.6573 62.8205C67.6115 62.7728 67.5786 62.7102 67.5627 62.6404C67.5468 62.5707 67.5486 62.4969 67.568 62.4284C67.5874 62.3599 67.6234 62.2997 67.6716 62.2553L79.69 54.0419C79.756 54.0184 79.8267 54.0216 79.891 54.051C79.9553 54.0803 80.0095 54.1341 80.045 54.204C80.0806 54.2738 80.0955 54.3557 80.0873 54.4367C80.0792 54.5177 80.0485 54.5931 80.0001 54.6512L67.9816 62.8608C67.9329 62.8949 67.8769 62.9115 67.8204 62.9085Z" fill="#455A64"/>
<path opacity="0.3" d="M67.8204 66.1931C67.7599 66.1834 67.7032 66.1528 67.6573 66.1051C67.6115 66.0574 67.5786 65.9947 67.5627 65.925C67.5468 65.8552 67.5486 65.7815 67.568 65.7129C67.5874 65.6444 67.6234 65.5842 67.6716 65.5398L79.69 57.3265C79.756 57.303 79.8267 57.3062 79.891 57.3355C79.9553 57.3648 80.0095 57.4187 80.045 57.4885C80.0806 57.5584 80.0955 57.6403 80.0873 57.7212C80.0792 57.8022 80.0485 57.8777 80.0001 57.9357L67.9816 66.1454C67.9329 66.1795 67.8769 66.196 67.8204 66.1931Z" fill="#455A64"/>
<path opacity="0.3" d="M67.8204 69.4778C67.7599 69.4681 67.7032 69.4375 67.6573 69.3898C67.6115 69.3421 67.5786 69.2794 67.5627 69.2097C67.5468 69.1399 67.5486 69.0662 67.568 68.9977C67.5874 68.9291 67.6234 68.8689 67.6716 68.8245L79.69 60.6149C79.7583 60.5727 79.8374 60.5621 79.9119 60.5852C79.9864 60.6083 80.051 60.6633 80.0931 60.7396C80.1297 60.8208 80.1391 60.9153 80.1196 61.0043C80.1 61.0934 80.053 61.1705 79.9877 61.2204L67.9692 69.4301C67.9241 69.4615 67.8727 69.478 67.8204 69.4778Z" fill="#455A64"/>
<path opacity="0.3" d="M67.8204 72.7625C67.7599 72.7528 67.7032 72.7221 67.6573 72.6744C67.6115 72.6267 67.5786 72.5641 67.5627 72.4943C67.5468 72.4246 67.5486 72.3508 67.568 72.2823C67.5874 72.2138 67.6234 72.1536 67.6716 72.1092L79.69 63.8995C79.7583 63.8574 79.8374 63.8468 79.9119 63.8699C79.9864 63.8929 80.051 63.948 80.0931 64.0243C80.1297 64.1055 80.1391 64.2 80.1196 64.289C80.1 64.378 80.053 64.4552 79.9877 64.5051L67.9692 72.7147C67.9241 72.7462 67.8727 72.7627 67.8204 72.7625Z" fill="#455A64"/>
<path opacity="0.3" d="M67.8204 76.047C67.7599 76.0373 67.7032 76.0067 67.6573 75.959C67.6115 75.9113 67.5786 75.8486 67.5627 75.7789C67.5468 75.7091 67.5486 75.6354 67.568 75.5669C67.5874 75.4984 67.6234 75.4381 67.6716 75.3938L79.69 67.1841C79.7583 67.1419 79.8374 67.1313 79.9119 67.1544C79.9864 67.1775 80.051 67.2325 80.0931 67.3089C80.1297 67.3901 80.1391 67.4845 80.1196 67.5736C80.1 67.6626 80.053 67.7397 79.9877 67.7896L67.9692 75.9993C67.9241 76.0307 67.8727 76.0472 67.8204 76.047Z" fill="#455A64"/>
<path opacity="0.3" d="M67.8204 79.3316C67.7599 79.3219 67.7032 79.2913 67.6573 79.2436C67.6115 79.1959 67.5786 79.1333 67.5627 79.0635C67.5468 78.9938 67.5486 78.92 67.568 78.8515C67.5874 78.783 67.6234 78.7228 67.6716 78.6784L79.69 70.4687C79.7554 70.4466 79.8251 70.4505 79.8884 70.4799C79.9518 70.5093 80.0051 70.5625 80.0404 70.6314C80.0756 70.7002 80.0908 70.7808 80.0835 70.8609C80.0762 70.9409 80.0469 71.0159 80.0001 71.0743L67.9816 79.2839C67.9329 79.318 67.8769 79.3346 67.8204 79.3316Z" fill="#455A64"/>
</g>
<path d="M31.4394 127.672V128.432C31.4444 128.563 31.475 128.691 31.5288 128.805C31.5826 128.92 31.6581 129.018 31.7495 129.092L67.9506 153.828C68.0506 153.888 68.1611 153.919 68.2731 153.919C68.3851 153.919 68.4955 153.888 68.5955 153.828L94.5394 136.139C94.6308 136.064 94.7063 135.966 94.7601 135.852C94.8139 135.737 94.8445 135.609 94.8495 135.478V134.707C94.8447 134.576 94.8142 134.448 94.7604 134.334C94.7066 134.219 94.6309 134.121 94.5394 134.047L58.3383 109.289C58.2388 109.23 58.1289 109.199 58.0174 109.199C57.9059 109.199 57.7959 109.23 57.6965 109.289L31.7619 127.012C31.6682 127.084 31.5903 127.182 31.5343 127.296C31.4783 127.411 31.4458 127.54 31.4394 127.672Z" fill="#1D334A"/>
<path opacity="0.5" d="M94.5829 134.062C94.7162 134.183 94.7007 134.359 94.5395 134.469L68.608 152.188C68.5128 152.248 68.4061 152.28 68.2979 152.279V153.931C68.4061 153.931 68.5128 153.9 68.608 153.839L94.5395 136.139C94.6308 136.065 94.7063 135.966 94.7601 135.852C94.8139 135.737 94.8445 135.609 94.8495 135.478V134.708C94.8476 134.583 94.8227 134.461 94.7766 134.35C94.7306 134.238 94.6644 134.14 94.5829 134.062Z" fill="black"/>
<path opacity="0.6" d="M31.7123 127.055L31.6843 127.081L31.6409 127.132C31.5563 127.25 31.4996 127.392 31.4766 127.544C31.4752 127.575 31.4752 127.607 31.4766 127.639V128.432C31.4823 128.562 31.5132 128.69 31.5669 128.804C31.6207 128.919 31.6958 129.017 31.7867 129.092L67.9878 153.828C68.0832 153.888 68.1897 153.92 68.2979 153.919V152.286C68.1899 152.288 68.0833 152.258 67.9878 152.198L31.7619 127.452C31.7081 127.42 31.6653 127.367 31.6409 127.301C31.6288 127.266 31.6258 127.227 31.6325 127.19C31.6391 127.153 31.655 127.119 31.6781 127.092C31.688 127.078 31.6995 127.066 31.7123 127.055Z" fill="black"/>
<g opacity="0.3">
<path opacity="0.3" d="M31.4642 127.481C31.4527 127.528 31.4455 127.576 31.4425 127.625C31.4425 127.625 31.4425 127.595 31.4425 127.581C31.4482 127.547 31.4554 127.514 31.4642 127.481Z" fill="black"/>
<path opacity="0.3" d="M94.5394 134.469L68.6079 152.187C68.5127 152.248 68.4061 152.28 68.2978 152.279C68.1897 152.279 68.0831 152.248 67.9878 152.187L31.7866 127.452C31.7315 127.422 31.6881 127.368 31.6657 127.301C31.6551 127.266 31.653 127.228 31.6595 127.191C31.6661 127.154 31.6811 127.12 31.7029 127.092C31.71 127.08 31.7196 127.07 31.7308 127.063L31.7804 127.019L57.7119 109.297C57.8119 109.237 57.9224 109.206 58.0344 109.206C58.1464 109.206 58.2568 109.237 58.3569 109.297L94.558 134.036L94.6014 134.069C94.7161 134.19 94.7006 134.359 94.5394 134.469Z" fill="black"/>
<path opacity="0.15" d="M31.6381 127.133L31.613 127.17C31.6227 127.159 31.6311 127.147 31.6381 127.133Z" fill="black"/>
</g>
<path d="M41.2439 116.71C41.2439 117.4 42.0563 118.127 42.2796 118.739C42.2991 118.789 42.3157 118.841 42.3292 118.894C42.2176 119.33 41.8765 119.628 41.8052 119.925C41.7871 119.99 41.7777 120.058 41.7772 120.127V120.725C41.7848 120.861 41.8004 120.995 41.8238 121.129C41.8058 121.273 41.7778 121.415 41.74 121.554C41.6681 121.79 41.6283 122.038 41.6222 122.288V122.85C41.6112 122.956 41.6286 123.064 41.672 123.158C41.7154 123.252 41.7825 123.328 41.8641 123.375L43.3183 124.365L54.1864 116.937V116.369L52.7322 115.374C52.5079 115.237 52.2548 115.179 52.0035 115.209H51.9074C51.6624 115.209 51.343 115.238 50.912 115.293C50.3696 115.367 49.8226 115.381 49.2779 115.337C49.126 115.337 48.9927 115.315 48.8562 115.315C48.7527 115.314 48.6491 115.32 48.5462 115.334C47.926 115.407 47.2687 115.869 46.0129 115.668H45.9725C45.0826 115.514 44.0284 114.963 43.0206 114.959H42.9214C42.5177 114.963 42.1215 115.089 41.771 115.326C41.3804 115.591 41.2346 115.877 41.2346 116.163C41.2408 116.236 41.2439 116.618 41.2439 116.71ZM42.8935 117.106C42.9549 116.979 43.0452 116.875 43.154 116.805C43.2392 116.749 43.3297 116.705 43.4237 116.673C44.1027 116.495 44.8134 116.626 45.4144 117.04C45.6619 117.19 45.866 117.424 46.0005 117.712C45.9378 117.839 45.8466 117.943 45.7369 118.013C45.2732 118.26 44.7508 118.307 44.2609 118.145C43.9855 118.069 43.7211 117.946 43.4765 117.778C43.2293 117.629 43.0261 117.395 42.8935 117.106Z" fill="#263238"/>
<path d="M52.0035 115.187H51.9074C51.6625 115.187 51.3431 115.216 50.9121 115.271C50.3686 115.345 49.8206 115.36 49.2749 115.316C49.1261 115.316 48.9927 115.293 48.8563 115.293C48.7527 115.292 48.6492 115.298 48.5462 115.312C47.9261 115.385 47.2687 115.848 46.0129 115.646H45.9726C45.0827 115.492 44.0284 114.941 43.0207 114.938H42.9215C42.5177 114.941 42.1215 115.067 41.7711 115.304C40.444 116.211 41.954 117.305 42.2703 118.174C42.5866 119.044 41.9013 119.503 41.7959 119.932C41.6905 120.362 41.9819 120.597 41.7308 121.543C41.4796 122.49 41.6719 122.663 41.8548 122.788L43.3091 123.782L54.1772 116.354L52.7229 115.36C52.5021 115.222 52.2523 115.162 52.0035 115.187ZM43.8548 122.417C43.7584 122.462 43.6546 122.48 43.5513 122.47C43.4481 122.459 43.3483 122.421 43.2595 122.358C43.0703 122.23 43.03 122.046 43.1726 121.951C43.2694 121.905 43.3738 121.887 43.4777 121.897C43.5815 121.907 43.682 121.946 43.7711 122.009C43.9571 122.138 44.0005 122.321 43.8548 122.417ZM45.7369 118.013C45.2732 118.26 44.7509 118.307 44.261 118.145C43.9856 118.069 43.7212 117.946 43.4765 117.778C42.7633 117.29 42.6207 116.596 43.1664 116.233C43.2515 116.175 43.3421 116.13 43.4362 116.097C44.1152 115.922 44.8251 116.053 45.4269 116.464C46.1276 116.945 46.2734 117.635 45.7493 118.002L45.7369 118.013ZM52.2485 116.699C52.1516 116.744 52.0472 116.762 51.9435 116.752C51.8398 116.742 51.7394 116.704 51.6501 116.64C51.4609 116.512 51.4206 116.328 51.5632 116.233C51.6599 116.186 51.7644 116.167 51.8684 116.178C51.9724 116.188 52.0728 116.227 52.1617 116.292C52.3446 116.409 52.3818 116.589 52.2423 116.688L52.2485 116.699Z" fill="#37474F"/>
<path d="M67.2808 149.497L89.8449 134.084C89.9017 134.041 89.949 133.982 89.983 133.913C90.017 133.844 90.0366 133.767 90.0402 133.687V133.39C90.0363 133.31 90.0166 133.233 89.9827 133.164C89.9487 133.095 89.9015 133.037 89.8449 132.994L60.0313 112.614C59.9718 112.578 59.9059 112.56 59.839 112.56C59.7722 112.56 59.7063 112.578 59.6468 112.614L37.0796 128.028C37.0234 128.072 36.9766 128.13 36.9432 128.199C36.9098 128.268 36.8907 128.345 36.8874 128.425V128.722C36.8914 128.801 36.9108 128.878 36.9442 128.947C36.9775 129.015 37.0239 129.074 37.0796 129.118L66.8932 149.49C66.9528 149.527 67.0189 149.547 67.0863 149.549C67.1536 149.55 67.2203 149.532 67.2808 149.497Z" fill="#FAFAFA"/>
<path d="M89.8946 133.03C89.9504 133.1 89.9349 133.192 89.848 133.25L67.2809 148.664C67.2218 148.702 67.1556 148.721 67.0886 148.719V149.545C67.1566 149.547 67.2239 149.528 67.284 149.49L89.848 134.076C89.9052 134.034 89.9528 133.975 89.9868 133.906C90.0208 133.837 90.0402 133.76 90.0434 133.68V133.383C90.0401 133.315 90.0252 133.249 89.9996 133.188C89.974 133.128 89.9383 133.074 89.8946 133.03Z" fill="#F0F0F0"/>
<path d="M37.0393 128.065L36.9866 128.127L36.9649 128.164C36.9433 128.202 36.9246 128.243 36.9091 128.285C36.9004 128.312 36.8941 128.341 36.8905 128.369C36.8889 128.389 36.8889 128.409 36.8905 128.428V128.722C36.8938 128.801 36.9129 128.878 36.9463 128.947C36.9798 129.016 37.0265 129.075 37.0827 129.118L66.8963 149.494C66.9555 149.531 67.0216 149.55 67.0886 149.549V148.727C67.0205 148.728 66.9533 148.709 66.8932 148.672L37.0672 128.3C36.9897 128.237 36.9742 128.142 37.0393 128.065Z" fill="#E0E0E0"/>
<path d="M44.7292 124.343V124.916C44.7401 125.203 44.8293 125.479 44.9834 125.701L58.2794 116.622V116.049C57.8785 115.804 57.4348 115.672 56.9833 115.664H56.9647C56.6605 115.661 56.3592 115.735 56.081 115.881C55.1167 116.398 54.8407 116.563 54.2454 116.857C54.0953 116.92 53.9343 116.94 53.7765 116.913C53.6186 116.886 53.4688 116.814 53.3399 116.703L53.3213 116.684L52.9213 116.251L51.8454 115.069C51.777 114.997 51.6963 114.942 51.6086 114.909C51.5209 114.876 51.4282 114.866 51.3369 114.879H51.309C51.2237 114.881 51.1387 114.89 51.0547 114.908C50.6891 114.977 50.3165 114.977 49.9508 114.908C49.5166 114.859 49.1018 114.671 48.7508 114.365C48.231 113.847 47.5695 113.572 46.8904 113.59H46.8377C46.4068 113.589 45.9817 113.708 45.5974 113.939C44.9524 114.339 44.6672 114.996 44.7943 115.638C44.7528 115.91 44.7738 116.189 44.8551 116.447C44.9364 116.706 45.075 116.933 45.2563 117.106C45.4193 117.282 45.5284 117.517 45.5664 117.774C45.5351 118.042 45.4453 118.295 45.3059 118.508C45.2229 118.607 45.1714 118.737 45.1602 118.875C45.1602 119.011 45.1602 119.363 45.1602 119.448C45.1604 119.503 45.1711 119.557 45.1915 119.607C45.2119 119.656 45.2415 119.7 45.278 119.734L46.5183 121.085L46.9152 121.518L46.9586 121.573C46.9312 121.627 46.9001 121.678 46.8656 121.727L45.2594 123.213C45.1085 123.346 44.9832 123.516 44.8917 123.711C44.8003 123.906 44.7449 124.121 44.7292 124.343ZM48.2795 115.712C48.1913 115.969 48.024 116.178 47.8113 116.295C47.3749 116.543 46.8736 116.577 46.416 116.391C46.22 116.312 46.0396 116.187 45.8858 116.024C45.7707 115.904 45.6823 115.753 45.6284 115.583C45.7183 115.326 45.885 115.117 46.0966 114.996C46.1563 114.958 46.2185 114.926 46.2827 114.901C46.5749 114.781 46.8883 114.752 47.1928 114.816C47.4973 114.88 47.7828 115.036 48.0222 115.268C48.1377 115.388 48.2261 115.541 48.2795 115.712Z" fill="#37474F"/>
<path d="M56.9833 115.664H56.9647C56.6605 115.661 56.3592 115.735 56.081 115.881C55.1167 116.398 54.8407 116.563 54.2453 116.857C54.0953 116.92 53.9343 116.94 53.7765 116.913C53.6186 116.886 53.4688 116.814 53.3399 116.703L53.3213 116.684L52.9213 116.251L51.8454 115.069C51.777 114.997 51.6963 114.942 51.6086 114.909C51.5209 114.876 51.4282 114.866 51.3369 114.879H51.3089C51.2237 114.881 51.1387 114.89 51.0547 114.908C50.6891 114.977 50.3165 114.977 49.9508 114.908C49.5166 114.859 49.1018 114.671 48.7508 114.365C48.231 113.847 47.5695 113.572 46.8904 113.59H46.8377C46.4068 113.589 45.9817 113.708 45.5974 113.939C44.6393 114.537 44.4842 115.697 45.2563 116.534C45.7431 117.062 45.6005 118.075 45.2935 118.508C44.9865 118.941 45.2687 119.176 45.2687 119.176L46.509 120.53L46.9059 120.96C47.216 121.283 46.8563 121.741 46.8563 121.741L45.2501 123.228C44.5555 123.962 44.5928 124.571 44.9555 125.154L58.2515 116.071C57.8606 115.823 57.4268 115.683 56.9833 115.664ZM48.0222 114.699C48.4935 115.213 48.4036 115.928 47.8113 116.295C47.3749 116.543 46.8736 116.577 46.416 116.391C46.22 116.312 46.0395 116.187 45.8858 116.024C45.4113 115.51 45.5044 114.794 46.0966 114.427C46.1569 114.39 46.219 114.357 46.2827 114.328C46.5752 114.209 46.8887 114.18 47.1932 114.245C47.4977 114.31 47.7831 114.466 48.0222 114.699Z" fill="#455A64"/>
<path opacity="0.1" d="M47.3431 132.755L54.4004 137.574C54.4708 137.617 54.5489 137.64 54.6283 137.64C54.7076 137.64 54.7858 137.617 54.8562 137.574L64.5956 130.92C64.7227 130.832 64.7227 130.692 64.5956 130.608L57.5321 125.786C57.4608 125.744 57.3823 125.722 57.3027 125.722C57.2231 125.722 57.1446 125.744 57.0732 125.786L47.3338 132.439C47.3071 132.453 47.2844 132.475 47.2688 132.504C47.2532 132.533 47.2453 132.567 47.2463 132.601C47.2473 132.635 47.2571 132.668 47.2744 132.696C47.2917 132.723 47.3157 132.744 47.3431 132.755Z" fill="#1D334A"/>
<path d="M54.6298 136.263L49.2625 132.597L49.6345 132.344L54.9988 136.014L54.6298 136.263Z" fill="#1D334A"/>
<path d="M54.9182 136.575L55.4546 136.208L55.6189 136.322L55.0825 136.689L54.9182 136.575Z" fill="#455A64"/>
<path d="M55.3337 135.783L51.0392 132.851L51.4113 132.597L55.7027 135.533L55.3337 135.783Z" fill="#1D334A"/>
<path d="M55.622 136.095L56.1585 135.728L56.3228 135.841L55.7864 136.208L55.622 136.095Z" fill="#455A64"/>
<path d="M56.4066 135.053L51.743 131.863L52.1151 131.61L56.7755 134.799L56.4066 135.053Z" fill="#1D334A"/>
<path d="M56.6949 135.361L57.2313 134.994L57.3957 135.108L56.8593 135.475L56.6949 135.361Z" fill="#455A64"/>
<path d="M57.1104 134.568L53.2531 131.933L53.6221 131.68L57.4794 134.319L57.1104 134.568Z" fill="#1D334A"/>
<path d="M57.3988 134.88L57.9352 134.513L58.1026 134.627L57.5631 134.99L57.3988 134.88Z" fill="#455A64"/>
<path d="M58.1864 133.838L56.0345 132.366L56.4034 132.113L58.5554 133.585L58.1864 133.838Z" fill="#1D334A"/>
<path d="M58.4716 134.15L59.0081 133.783L59.1724 133.893L58.636 134.26L58.4716 134.15Z" fill="#455A64"/>
<path d="M58.8903 133.357L56.4469 131.687L56.8159 131.434L59.2592 133.104L58.8903 133.357Z" fill="#1D334A"/>
<path d="M59.1755 133.665L59.7119 133.302L59.8763 133.412L59.3398 133.779L59.1755 133.665Z" fill="#455A64"/>
<path d="M59.9631 132.623L57.0174 130.612L57.3895 130.359L60.3321 132.37L59.9631 132.623Z" fill="#1D334A"/>
<path d="M60.2546 132.931L60.791 132.564L60.9584 132.674L60.4189 133.041L60.2546 132.931Z" fill="#455A64"/>
<path d="M60.667 132.142L58.7507 130.832L59.1197 130.579L61.036 131.889L60.667 132.142Z" fill="#1D334A"/>
<path d="M60.9615 132.45L61.4948 132.083L61.6623 132.194L61.1259 132.561L60.9615 132.45Z" fill="#455A64"/>
<path d="M61.7398 131.408L60.9026 130.836L61.2716 130.583L62.1088 131.155L61.7398 131.408Z" fill="#1D334A"/>
<path d="M54.6298 136.263L49.2625 132.597L49.6345 132.344L54.9988 136.014L54.6298 136.263Z" fill="#1D334A"/>
<path d="M56.4066 135.053L51.743 131.863L52.1151 131.61L56.7755 134.799L56.4066 135.053Z" fill="#1D334A"/>
<path d="M58.1864 133.838L56.0345 132.366L56.4034 132.113L58.5554 133.585L58.1864 133.838Z" fill="#1D334A"/>
<path d="M59.9631 132.623L57.0174 130.612L57.3895 130.359L60.3321 132.37L59.9631 132.623Z" fill="#1D334A"/>
<path d="M61.7398 131.408L60.9026 130.836L61.2716 130.583L62.1088 131.155L61.7398 131.408Z" fill="#1D334A"/>
<path d="M62.0313 131.717L62.5677 131.35L62.7352 131.46L62.1956 131.827L62.0313 131.717Z" fill="#455A64"/>
<path d="M62.4437 130.927L62.0282 130.641L62.3972 130.388L62.8127 130.674L62.4437 130.927Z" fill="#1D334A"/>
<path d="M62.7352 131.232L63.2716 130.869L63.4359 130.979L62.8995 131.346L62.7352 131.232Z" fill="#455A64"/>
<path d="M54.4407 128.802L54.0376 129.078L54.4407 129.353L54.8438 129.078L54.4407 128.802Z" fill="#1D334A"/>
<path opacity="0.25" d="M54.4407 128.802L54.0376 129.078L54.4407 129.353L54.8438 129.078L54.4407 128.802Z" fill="black"/>
<path d="M57.6128 126.711L54.7415 128.678C54.6826 128.718 54.6826 128.78 54.7415 128.821L54.819 128.872C54.8516 128.892 54.8877 128.902 54.9244 128.902C54.9611 128.902 54.9973 128.892 55.0298 128.872L57.9073 126.909C57.9194 126.903 57.9298 126.893 57.9371 126.88C57.9444 126.868 57.9483 126.853 57.9483 126.837C57.9483 126.822 57.9444 126.807 57.9371 126.794C57.9298 126.781 57.9194 126.771 57.9073 126.766L57.8298 126.711C57.7965 126.689 57.7592 126.678 57.7213 126.678C57.6834 126.678 57.6461 126.689 57.6128 126.711Z" fill="#455A64"/>
<path d="M55.1104 129.261L54.7104 129.533L55.1135 129.808L55.5135 129.533L55.1104 129.261Z" fill="#1D334A"/>
<path d="M58.2825 127.169L55.405 129.136C55.3929 129.142 55.3826 129.152 55.3753 129.165C55.368 129.178 55.3641 129.193 55.3641 129.208C55.3641 129.223 55.368 129.239 55.3753 129.251C55.3826 129.264 55.3929 129.274 55.405 129.28L55.4856 129.331C55.5182 129.351 55.5544 129.361 55.5911 129.361C55.6278 129.361 55.6639 129.351 55.6965 129.331L58.5709 127.368C58.6298 127.327 58.6298 127.261 58.5709 127.224L58.4934 127.169C58.4608 127.149 58.4246 127.139 58.3879 127.139C58.3512 127.139 58.3151 127.149 58.2825 127.169Z" fill="#455A64"/>
<path d="M54.6298 136.263L49.2625 132.597L49.6345 132.344L54.9988 136.014L54.6298 136.263Z" fill="#1D334A"/>
<path d="M56.4066 135.053L51.743 131.863L52.1151 131.61L56.7755 134.799L56.4066 135.053Z" fill="#1D334A"/>
<path d="M58.1864 133.838L56.0345 132.366L56.4034 132.113L58.5554 133.585L58.1864 133.838Z" fill="#1D334A"/>
<path d="M59.9631 132.623L57.0174 130.612L57.3895 130.359L60.3321 132.37L59.9631 132.623Z" fill="#1D334A"/>
<path d="M54.6298 136.263L49.2625 132.597L49.6345 132.344L54.9988 136.014L54.6298 136.263Z" fill="#1D334A"/>
<path d="M56.4066 135.053L51.743 131.863L52.1151 131.61L56.7755 134.799L56.4066 135.053Z" fill="#1D334A"/>
<path d="M58.1864 133.838L56.0345 132.366L56.4034 132.113L58.5554 133.585L58.1864 133.838Z" fill="#1D334A"/>
<path d="M59.9631 132.623L57.0174 130.612L57.3895 130.359L60.3321 132.37L59.9631 132.623Z" fill="#1D334A"/>
<path d="M61.7398 131.408L60.9026 130.836L61.2716 130.583L62.1088 131.155L61.7398 131.408Z" fill="#1D334A"/>
<path opacity="0.25" d="M54.6298 136.263L49.2625 132.597L49.6345 132.344L54.9988 136.014L54.6298 136.263Z" fill="black"/>
<path opacity="0.25" d="M56.4066 135.053L51.743 131.863L52.1151 131.61L56.7755 134.799L56.4066 135.053Z" fill="black"/>
<path opacity="0.25" d="M58.1864 133.838L56.0345 132.366L56.4034 132.113L58.5554 133.585L58.1864 133.838Z" fill="black"/>
<path opacity="0.25" d="M59.9631 132.623L57.0174 130.612L57.3895 130.359L60.3321 132.37L59.9631 132.623Z" fill="black"/>
<path opacity="0.25" d="M61.7398 131.408L60.9026 130.836L61.2716 130.583L62.1088 131.155L61.7398 131.408Z" fill="black"/>
<path opacity="0.1" d="M57.2593 139.526L66.5615 145.875C66.6553 145.931 66.7588 145.96 66.8639 145.96C66.9689 145.96 67.0725 145.931 67.1662 145.875L76.7568 139.321C76.7929 139.305 76.8242 139.277 76.8462 139.24C76.8683 139.203 76.8802 139.159 76.8802 139.113C76.8802 139.068 76.8683 139.024 76.8462 138.986C76.8242 138.949 76.7929 138.921 76.7568 138.906L67.4546 132.557C67.3614 132.501 67.2583 132.472 67.1538 132.472C67.0492 132.472 66.9462 132.501 66.853 132.557L57.2593 139.115C57.2228 139.129 57.1911 139.157 57.1686 139.194C57.1461 139.231 57.134 139.275 57.134 139.321C57.134 139.366 57.1461 139.41 57.1686 139.447C57.1911 139.484 57.2228 139.512 57.2593 139.526Z" fill="#1D334A"/>
<path d="M58.9026 138.957L58.3724 139.32L58.9026 139.684L59.4329 139.32L58.9026 138.957Z" fill="#1D334A"/>
<path d="M60.9925 137.713L59.2437 138.91C59.1972 138.939 59.1972 138.99 59.2437 139.023L59.3863 139.122C59.4126 139.137 59.4411 139.144 59.4701 139.144C59.499 139.144 59.5276 139.137 59.5538 139.122L61.3026 137.926C61.3491 137.893 61.3491 137.845 61.3026 137.812L61.16 137.713C61.1337 137.699 61.1052 137.691 61.0762 137.691C61.0473 137.691 61.0188 137.699 60.9925 137.713Z" fill="#455A64"/>
<path d="M61.9042 136.906L61.3739 137.265L61.9042 137.629L62.4344 137.265L61.9042 136.906Z" fill="#1D334A"/>
<path opacity="0.25" d="M61.9042 136.906L61.3739 137.265L61.9042 137.629L62.4344 137.265L61.9042 136.906Z" fill="black"/>
<path d="M64.0251 135.665L62.2762 136.873C62.2297 136.906 62.2297 136.954 62.2762 136.987L62.422 137.086C62.4477 137.1 62.4757 137.107 62.5042 137.107C62.5326 137.107 62.5606 137.1 62.5863 137.086L64.3351 135.889C64.3816 135.86 64.3816 135.809 64.3351 135.775L64.1925 135.676C64.167 135.66 64.1387 135.651 64.1098 135.649C64.0809 135.647 64.052 135.653 64.0251 135.665Z" fill="#455A64"/>
<path d="M64.9056 134.851L64.3754 135.214L64.9087 135.574L65.4358 135.214L64.9056 134.851Z" fill="#1D334A"/>
<path opacity="0.4" d="M64.9056 134.851L64.3754 135.214L64.9087 135.574L65.4358 135.214L64.9056 134.851Z" fill="black"/>
<path d="M67.0607 133.621L65.3088 134.814C65.2623 134.847 65.2623 134.898 65.3088 134.928L65.4545 135.027C65.4802 135.041 65.5083 135.049 65.5367 135.049C65.5651 135.049 65.5932 135.041 65.6189 135.027L67.3708 133.83C67.38 133.825 67.3879 133.817 67.3934 133.807C67.3989 133.797 67.4018 133.785 67.4018 133.773C67.4018 133.761 67.3989 133.75 67.3934 133.74C67.3879 133.73 67.38 133.722 67.3708 133.717L67.225 133.621C67.1999 133.605 67.1716 133.596 67.1429 133.596C67.1141 133.596 67.0859 133.605 67.0607 133.621Z" fill="#455A64"/>
<path d="M70.4188 137.482C70.374 137.453 70.3274 137.428 70.2793 137.408L70.1583 137.346C69.8369 137.2 69.5048 137.089 69.1661 137.016L68.8374 136.946C68.6155 136.908 68.3918 136.885 68.1677 136.876C68.0529 136.876 67.9382 136.876 67.8266 136.876C67.715 136.876 67.6467 136.876 67.5537 136.876L67.3305 136.895L67.0018 136.931L66.8126 136.968L66.6948 136.99L66.5274 137.03C66.3258 137.082 66.1336 137.141 65.9475 137.21L65.7491 137.295C65.6689 137.326 65.5902 137.363 65.5134 137.405C65.4367 137.44 65.3622 137.482 65.2902 137.53L65.0762 137.662C63.5259 138.73 63.5259 140.462 65.0762 141.53C66.6266 142.598 69.1692 142.594 70.732 141.53C72.2948 140.466 72.2823 138.733 70.732 137.669C70.6305 137.6 70.5259 137.538 70.4188 137.482ZM70.1087 141.111C69.4731 141.517 68.7626 141.73 68.0405 141.732C68.0064 141.732 67.963 141.732 67.9227 141.732H67.7956H67.6777C66.9823 141.719 66.2996 141.509 65.6871 141.119C64.4654 140.282 64.4654 138.917 65.6871 138.095C65.8264 138.003 65.9703 137.92 66.1181 137.849C66.2328 137.794 66.3537 137.746 66.4747 137.702L66.6607 137.643L66.8157 137.603C66.8792 137.584 66.9433 137.57 67.008 137.559L67.1785 137.53H67.2312L67.4762 137.504H67.5196C67.6053 137.496 67.6913 137.496 67.777 137.504C67.8482 137.498 67.9197 137.498 67.9909 137.504C68.2907 137.508 68.5896 137.543 68.8839 137.61C69.3185 137.699 69.7377 137.873 70.1242 138.124C71.3335 138.928 71.3335 140.278 70.1149 141.111H70.1087Z" fill="#1D334A"/>
<path opacity="0.25" d="M69.1661 137.016L68.8902 137.577C68.5958 137.51 68.2969 137.475 67.9971 137.471C67.9259 137.466 67.8544 137.466 67.7832 137.471C67.6975 137.463 67.6115 137.463 67.5258 137.471H67.4824C67.4018 137.471 67.3181 137.471 67.2375 137.497H67.1848L67.0142 137.526C66.9495 137.537 66.8854 137.552 66.822 137.57L66.6669 137.611L66.4809 137.669C66.36 137.713 66.239 137.761 66.1243 137.816C65.9757 137.885 65.8317 137.968 65.6933 138.062L65.0732 137.64L65.2871 137.508C65.3591 137.46 65.4337 137.419 65.5104 137.383C65.5872 137.341 65.6658 137.304 65.746 137.273L65.9445 137.188C66.1305 137.119 66.3227 137.06 66.5243 137.009L66.6917 136.968L66.8096 136.946L66.9987 136.91L67.3274 136.873L67.5506 136.854C67.6437 136.854 67.7305 136.854 67.8235 136.854C67.9165 136.854 68.0499 136.854 68.1646 136.854C68.3909 136.854 68.6142 136.891 68.8343 136.924L69.1661 137.016Z" fill="black"/>
<path opacity="0.4" d="M70.732 137.673L70.1118 138.091C69.7253 137.84 69.3061 137.666 68.8715 137.577L69.1475 137.016C69.4862 137.089 69.8183 137.2 70.1397 137.346L70.2607 137.409C70.3087 137.429 70.3554 137.453 70.4002 137.482C70.5137 137.538 70.6245 137.602 70.732 137.673Z" fill="black"/>
<path d="M43.9757 129.599C44.0642 129.534 44.1603 129.486 44.2609 129.456C44.3618 129.422 44.4662 129.406 44.571 129.408C44.676 129.409 44.7803 129.428 44.8811 129.463C44.9896 129.505 45.0937 129.561 45.1911 129.632C45.302 129.698 45.3986 129.793 45.4733 129.911C45.497 129.949 45.512 129.995 45.5169 130.042C45.5218 130.09 45.5164 130.138 45.5012 130.182L46.4314 130.458C46.4438 130.461 46.4554 130.467 46.4655 130.476C46.4841 130.476 46.4935 130.498 46.4966 130.513C46.4997 130.527 46.4966 130.538 46.481 130.549L46.1989 130.744C46.1727 130.762 46.1422 130.77 46.1121 130.766H46.0345L45.2066 130.516L45.0144 130.648L45.6097 131.056C45.6314 131.056 45.6438 131.085 45.647 131.103C45.6484 131.112 45.6473 131.121 45.644 131.129C45.6406 131.137 45.6351 131.144 45.6283 131.147L45.3555 131.335C45.3351 131.341 45.3138 131.341 45.2935 131.335C45.2684 131.332 45.2441 131.324 45.2222 131.309L43.4206 130.08C43.4051 130.068 43.3923 130.051 43.3834 130.032C43.382 130.023 43.383 130.014 43.3864 130.006C43.3898 129.998 43.3952 129.992 43.402 129.988L43.9757 129.599ZM44.5958 130.333L44.8346 130.171C44.8811 130.145 44.9168 130.097 44.9338 130.039C44.9338 129.995 44.9059 129.944 44.8284 129.892C44.7639 129.843 44.6883 129.817 44.6113 129.819C44.5437 129.825 44.4781 129.849 44.4191 129.889L44.1834 130.05L44.5958 130.333Z" fill="#455A64"/>
<path d="M47.464 129.272C47.4843 129.266 47.5057 129.266 47.526 129.272C47.5511 129.275 47.5754 129.284 47.5973 129.298L47.8919 129.5C47.9136 129.5 47.926 129.529 47.9291 129.548C47.9306 129.556 47.9295 129.566 47.9262 129.573C47.9228 129.581 47.9173 129.588 47.9105 129.592L46.9183 130.267C46.898 130.274 46.8765 130.274 46.8563 130.267C46.8322 130.265 46.8089 130.256 46.7881 130.241L44.9865 129.008C44.9775 129.004 44.9694 128.998 44.9629 128.99C44.9565 128.981 44.9518 128.971 44.9493 128.961C44.9481 128.952 44.9492 128.944 44.9526 128.936C44.956 128.929 44.9614 128.923 44.9679 128.92L45.9415 128.252C45.9617 128.244 45.9834 128.244 46.0036 128.252C46.0286 128.255 46.053 128.263 46.0749 128.278L46.3694 128.48C46.3864 128.49 46.3996 128.507 46.4067 128.527C46.4086 128.536 46.4077 128.545 46.4043 128.552C46.4008 128.56 46.395 128.565 46.3881 128.568L45.7431 129.008L46.0532 129.214L46.6516 128.806C46.6718 128.799 46.6935 128.799 46.7136 128.806C46.7387 128.809 46.763 128.817 46.7849 128.832L47.0795 129.034C47.0885 129.038 47.0966 129.044 47.1031 129.052C47.1096 129.061 47.1143 129.071 47.1167 129.082C47.1167 129.1 47.1167 129.111 47.0981 129.122L46.4997 129.533L46.8098 129.746L47.464 129.272Z" fill="#455A64"/>
<path d="M47.0144 127.522C47.1023 127.459 47.1973 127.412 47.2966 127.382C47.3978 127.351 47.5022 127.337 47.6066 127.342C47.7117 127.348 47.8158 127.369 47.9167 127.404C48.0305 127.443 48.1398 127.499 48.2423 127.569C48.3327 127.629 48.4152 127.705 48.4873 127.793C48.5365 127.853 48.5671 127.93 48.5741 128.013C48.576 128.089 48.5552 128.163 48.5152 128.222C48.4597 128.3 48.3924 128.365 48.3167 128.413L48.0501 128.597L48.6175 128.986C48.6392 128.986 48.6516 129.015 48.6547 129.034C48.6566 129.042 48.6558 129.051 48.6523 129.058C48.6488 129.066 48.643 129.071 48.6361 129.074L48.3632 129.265C48.3427 129.269 48.3217 129.269 48.3012 129.265C48.2762 129.262 48.252 129.253 48.2299 129.239L46.4284 128.006C46.4201 128.001 46.4127 127.995 46.4068 127.987C46.4009 127.978 46.3966 127.969 46.3943 127.958C46.3943 127.958 46.3943 127.929 46.4098 127.918L47.0144 127.522ZM47.619 128.3L47.8764 128.123C47.9002 128.111 47.9213 128.092 47.938 128.069C47.9547 128.045 47.9665 128.018 47.9725 127.988C47.9725 127.941 47.9353 127.89 47.8609 127.833C47.7926 127.785 47.7143 127.759 47.6346 127.76C47.5649 127.759 47.4963 127.781 47.4361 127.822L47.1787 127.999L47.619 128.3Z" fill="#455A64"/>
<path d="M48.5803 127.445C48.4897 127.382 48.4081 127.303 48.3384 127.21C48.2847 127.14 48.2473 127.056 48.2299 126.964C48.2185 126.879 48.2328 126.792 48.2702 126.718C48.3223 126.62 48.3964 126.541 48.4841 126.49C48.587 126.42 48.6992 126.37 48.8159 126.344C48.9356 126.318 49.0573 126.31 49.1787 126.318C49.3029 126.325 49.4258 126.351 49.5446 126.395C49.6649 126.436 49.7813 126.491 49.8919 126.56L50.1461 126.729L50.388 126.902C50.4779 126.965 50.5594 127.044 50.6298 127.136C50.6867 127.207 50.7264 127.294 50.7446 127.39C50.7559 127.475 50.7416 127.562 50.7043 127.636C50.6504 127.732 50.5768 127.81 50.4903 127.863C50.387 127.932 50.275 127.982 50.1585 128.01C50.039 128.037 49.9171 128.046 49.7957 128.036C49.6715 128.028 49.5486 128.002 49.4299 127.958C49.31 127.916 49.1938 127.861 49.0826 127.793L48.8345 127.628C48.7384 127.562 48.6578 127.503 48.5803 127.445ZM49.9818 127.147L49.8733 127.07L49.7492 126.982L49.6252 126.898L49.5136 126.828C49.4649 126.798 49.414 126.774 49.3616 126.755C49.312 126.737 49.2612 126.725 49.2097 126.718C49.1603 126.711 49.1103 126.711 49.0609 126.718C49.0129 126.728 48.9667 126.748 48.9244 126.777C48.8879 126.799 48.8569 126.832 48.8345 126.872C48.824 126.904 48.824 126.939 48.8345 126.971C48.8448 127.011 48.8629 127.048 48.8872 127.078C48.9191 127.116 48.9544 127.151 48.9927 127.18L49.095 127.258L49.219 127.342L49.3461 127.426L49.4609 127.5C49.558 127.558 49.6629 127.595 49.7709 127.61C49.8699 127.623 49.9697 127.598 50.0562 127.54C50.143 127.481 50.1771 127.415 50.1585 127.346C50.1181 127.26 50.0564 127.191 49.9818 127.147Z" fill="#455A64"/>
<path d="M50.1306 125.393C50.2191 125.329 50.3153 125.281 50.4159 125.25C50.5168 125.217 50.6212 125.201 50.726 125.203C50.831 125.204 50.9353 125.223 51.036 125.258C51.1444 125.3 51.2484 125.357 51.3461 125.426C51.457 125.492 51.5535 125.588 51.6283 125.705C51.652 125.744 51.667 125.789 51.6718 125.837C51.6767 125.884 51.6713 125.932 51.6562 125.977L52.5864 126.252C52.5997 126.255 52.6124 126.261 52.6236 126.27C52.6422 126.27 52.6515 126.292 52.6546 126.307C52.6577 126.322 52.6546 126.333 52.6391 126.344L52.3569 126.538C52.3306 126.556 52.3003 126.564 52.2701 126.56H52.1926L51.3616 126.311L51.1694 126.443L51.7678 126.85C51.7847 126.86 51.7979 126.877 51.805 126.898C51.8064 126.907 51.8054 126.916 51.802 126.924C51.7987 126.932 51.7932 126.938 51.7864 126.942L51.5135 127.129C51.4934 127.137 51.4717 127.137 51.4515 127.129C51.4265 127.127 51.4021 127.118 51.3802 127.104L49.5818 125.863C49.5601 125.863 49.5477 125.834 49.5446 125.815C49.5431 125.807 49.5442 125.798 49.5475 125.79C49.5509 125.782 49.5564 125.775 49.5632 125.771L50.1306 125.393ZM50.7508 126.127L50.9864 125.966C51.0335 125.941 51.0703 125.895 51.0887 125.837C51.0887 125.79 51.0608 125.738 50.9833 125.687C50.9187 125.638 50.8432 125.612 50.7663 125.614C50.6987 125.62 50.633 125.644 50.574 125.683L50.3384 125.845L50.7508 126.127Z" fill="#455A64"/>
<path d="M52.1275 124.028C52.1479 124.022 52.1692 124.022 52.1896 124.028C52.2146 124.03 52.2389 124.039 52.2609 124.054L52.5554 124.256C52.5771 124.256 52.5895 124.285 52.5926 124.303C52.5941 124.312 52.593 124.321 52.5897 124.329C52.5863 124.337 52.5808 124.343 52.574 124.347L52.2051 124.597L53.6376 125.577C53.6459 125.581 53.6533 125.588 53.6592 125.596C53.665 125.604 53.6693 125.614 53.6717 125.625C53.6717 125.625 53.6717 125.654 53.6562 125.665L53.3802 125.852C53.3602 125.86 53.3383 125.86 53.3182 125.852C53.2942 125.852 53.2707 125.845 53.25 125.83L51.8175 124.85L51.4516 125.103C51.4314 125.111 51.4097 125.111 51.3896 125.103C51.3645 125.101 51.3402 125.092 51.3182 125.078L51.0082 124.876C50.9865 124.876 50.9741 124.846 50.971 124.828C50.9679 124.81 50.971 124.799 50.9896 124.788L52.1275 124.028Z" fill="#455A64"/>
<path d="M55.0329 124.266L64.1118 118.064L62.1677 116.736L53.0887 122.938L55.0329 124.266Z" fill="#1D334A"/>
<g opacity="0.3">
<path opacity="0.3" d="M59.5724 125.342C59.5521 125.348 59.5309 125.35 59.51 125.346C59.4892 125.343 59.4691 125.334 59.451 125.322C59.4328 125.309 59.417 125.293 59.4043 125.273C59.3916 125.253 59.3824 125.23 59.3771 125.206C59.3718 125.182 59.3705 125.157 59.3734 125.132C59.3763 125.108 59.3833 125.084 59.394 125.062C59.4046 125.041 59.4188 125.022 59.4355 125.007C59.4523 124.992 59.4714 124.981 59.4918 124.975L67.008 119.837C67.0261 119.825 67.0461 119.817 67.0668 119.814C67.0875 119.81 67.1086 119.812 67.1287 119.819C67.1489 119.825 67.1678 119.836 67.1843 119.851C67.2008 119.866 67.2147 119.885 67.225 119.907C67.2354 119.928 67.2421 119.952 67.2448 119.976C67.2475 120.001 67.246 120.026 67.2405 120.05C67.2351 120.073 67.2257 120.096 67.2129 120.115C67.2001 120.135 67.1843 120.151 67.1661 120.164L59.653 125.301C59.6294 125.323 59.6017 125.336 59.5724 125.342Z" fill="#455A64"/>
<path opacity="0.3" d="M60.8686 126.23C60.8274 126.242 60.7839 126.234 60.7476 126.209C60.7112 126.183 60.685 126.141 60.6748 126.092C60.6645 126.044 60.671 125.992 60.6928 125.949C60.7146 125.906 60.7499 125.875 60.791 125.863L68.3041 120.725C68.3402 120.707 68.3804 120.705 68.4175 120.72C68.4545 120.735 68.4858 120.765 68.5055 120.805C68.5252 120.845 68.532 120.892 68.5246 120.937C68.5172 120.982 68.4962 121.023 68.4654 121.052L60.9492 126.189C60.9263 126.212 60.8982 126.226 60.8686 126.23Z" fill="#455A64"/>
<path opacity="0.3" d="M62.1833 127.118C62.1441 127.125 62.1042 127.114 62.0713 127.088C62.0383 127.062 62.0146 127.022 62.0047 126.977C61.9947 126.932 61.9992 126.884 62.0173 126.842C62.0353 126.8 62.0657 126.768 62.1027 126.751L69.6157 121.613C69.6528 121.588 69.6967 121.581 69.738 121.594C69.7793 121.607 69.8145 121.639 69.8359 121.683C69.8563 121.726 69.8615 121.777 69.8505 121.825C69.8395 121.873 69.8131 121.914 69.777 121.94L62.2608 127.078C62.238 127.098 62.2114 127.112 62.1833 127.118Z" fill="#455A64"/>
<path opacity="0.3" d="M63.4639 128.002C63.4228 128.015 63.3791 128.008 63.3424 127.982C63.3058 127.957 63.2792 127.915 63.2685 127.867C63.2578 127.818 63.2639 127.766 63.2854 127.723C63.3069 127.68 63.3421 127.648 63.3832 127.635L70.8994 122.498C70.9176 122.485 70.9375 122.477 70.9583 122.474C70.979 122.471 71 122.473 71.0202 122.479C71.0403 122.486 71.0592 122.497 71.0757 122.512C71.0923 122.527 71.1061 122.546 71.1165 122.567C71.1269 122.589 71.1336 122.612 71.1363 122.637C71.1389 122.661 71.1375 122.686 71.132 122.71C71.1265 122.734 71.1171 122.756 71.1044 122.776C71.0916 122.796 71.0757 122.812 71.0576 122.824L63.5445 127.962C63.5214 127.984 63.4934 127.998 63.4639 128.002Z" fill="#455A64"/>
<path opacity="0.3" d="M64.76 128.891C64.7318 128.89 64.7043 128.881 64.6799 128.864C64.6555 128.847 64.635 128.824 64.6204 128.795C64.5999 128.751 64.5945 128.699 64.6055 128.651C64.6165 128.602 64.643 128.561 64.6793 128.535L72.1955 123.397C72.2137 123.384 72.2336 123.377 72.2544 123.373C72.2751 123.37 72.2961 123.372 72.3163 123.378C72.3364 123.385 72.3553 123.396 72.3718 123.411C72.3884 123.426 72.4022 123.445 72.4126 123.466C72.423 123.488 72.4297 123.512 72.4323 123.536C72.435 123.561 72.4336 123.586 72.4281 123.609C72.4226 123.633 72.4132 123.656 72.4005 123.675C72.3877 123.695 72.3718 123.711 72.3537 123.723L64.8406 128.861C64.816 128.878 64.7884 128.888 64.76 128.891Z" fill="#455A64"/>
</g>
<g opacity="0.3">
<path opacity="0.3" d="M69.9537 132.432C69.9255 132.431 69.898 132.422 69.8736 132.406C69.8492 132.389 69.8288 132.365 69.8142 132.337C69.8037 132.315 69.7969 132.292 69.7941 132.267C69.7914 132.243 69.7928 132.218 69.7983 132.194C69.8038 132.17 69.8132 132.147 69.826 132.128C69.8389 132.108 69.8549 132.092 69.8731 132.08L77.3893 126.942C77.4259 126.917 77.4693 126.91 77.51 126.924C77.5507 126.937 77.5853 126.968 77.6063 127.012C77.6273 127.055 77.6329 127.106 77.6218 127.155C77.6108 127.203 77.584 127.244 77.5474 127.269L70.0312 132.406C70.0075 132.422 69.9809 132.431 69.9537 132.432Z" fill="#455A64"/>
<path opacity="0.3" d="M71.2498 133.317C71.2295 133.323 71.2083 133.324 71.1874 133.321C71.1666 133.317 71.1466 133.309 71.1284 133.297C71.1103 133.284 71.0944 133.267 71.0817 133.247C71.069 133.228 71.0598 133.205 71.0545 133.181C71.0492 133.157 71.048 133.132 71.0509 133.107C71.0538 133.082 71.0608 133.059 71.0714 133.037C71.0821 133.016 71.0962 132.997 71.113 132.982C71.1298 132.967 71.1489 132.956 71.1692 132.95L78.6854 127.812C78.7035 127.799 78.7235 127.791 78.7442 127.788C78.765 127.785 78.786 127.787 78.8061 127.793C78.8263 127.8 78.8452 127.811 78.8617 127.826C78.8782 127.841 78.8921 127.86 78.9025 127.881C78.9129 127.903 78.9196 127.926 78.9222 127.951C78.9249 127.976 78.9234 128 78.918 128.024C78.9125 128.048 78.9031 128.07 78.8903 128.09C78.8776 128.11 78.8617 128.126 78.8436 128.138L71.3305 133.276C71.3076 133.299 71.2795 133.313 71.2498 133.317Z" fill="#455A64"/>
<path opacity="0.3" d="M72.5459 134.205C72.5182 134.204 72.491 134.195 72.4671 134.178C72.4432 134.161 72.4234 134.138 72.4095 134.109C72.3985 134.088 72.3914 134.064 72.3884 134.04C72.3855 134.015 72.3868 133.99 72.3923 133.966C72.3978 133.942 72.4074 133.919 72.4205 133.9C72.4336 133.88 72.4499 133.864 72.4684 133.852L79.9815 128.714C80.0175 128.697 80.0578 128.695 80.0948 128.71C80.1319 128.724 80.1631 128.754 80.1828 128.794C80.2025 128.834 80.2093 128.881 80.2019 128.927C80.1946 128.972 80.1735 129.013 80.1427 129.041L72.6265 134.179C72.6017 134.195 72.5741 134.204 72.5459 134.205Z" fill="#455A64"/>
<path opacity="0.3" d="M73.8451 135.089C73.8167 135.09 73.7887 135.081 73.7641 135.065C73.7394 135.048 73.7192 135.023 73.7056 134.994C73.6951 134.972 73.6883 134.949 73.6855 134.924C73.6828 134.9 73.6842 134.875 73.6897 134.851C73.6952 134.827 73.7046 134.804 73.7175 134.785C73.7303 134.765 73.7463 134.749 73.7645 134.737L81.2776 129.599C81.2957 129.582 81.3167 129.57 81.339 129.564C81.3614 129.558 81.3846 129.557 81.4072 129.562C81.4297 129.567 81.4511 129.578 81.4699 129.594C81.4886 129.609 81.5043 129.63 81.5159 129.653C81.5275 129.677 81.5347 129.703 81.5371 129.73C81.5395 129.757 81.5369 129.784 81.5296 129.81C81.5223 129.836 81.5104 129.859 81.4948 129.879C81.4791 129.899 81.46 129.915 81.4388 129.926L73.9226 135.063C73.8993 135.08 73.8725 135.089 73.8451 135.089Z" fill="#455A64"/>
<path opacity="0.3" d="M75.1412 135.977C75.113 135.976 75.0855 135.967 75.0611 135.951C75.0367 135.934 75.0163 135.91 75.0017 135.882C74.9912 135.86 74.9844 135.837 74.9816 135.812C74.9789 135.788 74.9803 135.763 74.9858 135.739C74.9913 135.715 75.0007 135.693 75.0136 135.673C75.0264 135.653 75.0424 135.637 75.0606 135.625L82.5737 130.487C82.6107 130.462 82.6547 130.455 82.6959 130.468C82.7372 130.481 82.7724 130.513 82.7938 130.557C82.8043 130.578 82.8111 130.602 82.8139 130.626C82.8166 130.651 82.8152 130.676 82.8097 130.7C82.8042 130.724 82.7948 130.746 82.7819 130.766C82.7691 130.785 82.7531 130.801 82.7349 130.814L75.2218 135.952C75.1968 135.967 75.1693 135.976 75.1412 135.977Z" fill="#455A64"/>
<path opacity="0.3" d="M76.4467 136.873C76.4191 136.873 76.3921 136.864 76.3681 136.848C76.3442 136.832 76.3242 136.809 76.3102 136.781C76.2889 136.737 76.2831 136.685 76.2941 136.636C76.3052 136.587 76.3321 136.546 76.3691 136.52L83.8822 131.382C83.9183 131.365 83.9585 131.363 83.9956 131.378C84.0326 131.392 84.0639 131.422 84.0836 131.462C84.1033 131.502 84.1101 131.549 84.1027 131.595C84.0953 131.64 84.0743 131.681 84.0435 131.709L76.5273 136.847C76.5025 136.863 76.4749 136.872 76.4467 136.873Z" fill="#455A64"/>
</g>
<path d="M113.82 56.3395L106.269 59.4516L106.059 59.859L113.24 73.3313L120.39 69.5146L120.604 69.1072L113.82 56.3395Z" fill="#37474F"/>
<path d="M114.034 55.9321L106.27 59.4516L113.454 72.924L120.604 69.1072L114.034 55.9321Z" fill="#455A64"/>
<path d="M114.093 57.2788L107.497 60.512L113.473 71.5255L119.556 68.0428L114.093 57.2788Z" fill="#F0F0F0"/>
<path opacity="0.15" d="M112.648 58.446L112.279 57.9689C112.074 57.6973 111.476 57.6716 110.939 57.9065L109.913 58.3359C109.38 58.5744 109.11 58.9855 109.314 59.2534L109.683 59.7415L112.648 58.446Z" fill="black"/>
<path d="M111.64 56.611C111.556 56.5252 111.453 56.469 111.344 56.4489C111.234 56.4288 111.122 56.4455 111.02 56.4972L110.626 56.6881C110.626 56.6881 109.826 55.6311 108.868 55.9541C107.91 56.277 108.735 57.4881 108.735 57.4881L108.319 57.701C108.09 57.8184 108.009 58.0459 108.111 58.2148L108.319 58.5194L111.879 56.9083L111.64 56.611Z" fill="#1D334A"/>
<path opacity="0.15" d="M111.64 56.611C111.556 56.5252 111.453 56.469 111.344 56.4489C111.234 56.4288 111.122 56.4455 111.02 56.4972L110.626 56.6881C110.626 56.6881 109.826 55.6311 108.868 55.9541C107.91 56.277 108.735 57.4881 108.735 57.4881L108.319 57.701C108.09 57.8184 108.009 58.0459 108.111 58.2148L108.319 58.5194L111.879 56.9083L111.64 56.611Z" fill="black"/>
<path d="M111.445 57.1175C111.107 57.2533 110.955 57.3303 111.268 57.7487C111.581 58.1671 111.916 58.5745 111.916 58.5745L110.341 59.2901C110.341 59.2901 109.897 58.6882 109.721 58.4533C109.653 58.3329 109.554 58.2416 109.439 58.1933C109.324 58.145 109.199 58.1422 109.082 58.1854L108.877 57.9983L111.386 56.923L111.445 57.1175Z" fill="#1D334A"/>
<path opacity="0.4" d="M111.445 57.1175C111.107 57.2533 110.955 57.3303 111.268 57.7487C111.581 58.1671 111.916 58.5745 111.916 58.5745L110.341 59.2901C110.341 59.2901 109.897 58.6882 109.721 58.4533C109.653 58.3329 109.554 58.2416 109.439 58.1933C109.324 58.145 109.199 58.1422 109.082 58.1854L108.877 57.9983L111.386 56.923L111.445 57.1175Z" fill="black"/>
<path d="M112.753 58.4937L112.384 58.0056C112.18 57.7341 111.581 57.7084 111.045 57.9432L110.018 58.3946C109.485 58.6332 109.215 59.0442 109.42 59.3121L109.786 59.8002L112.753 58.4937Z" fill="#1D334A"/>
<path opacity="0.15" d="M112.753 58.4937L112.384 58.0056C112.18 57.7341 111.581 57.7084 111.045 57.9432L110.018 58.3946C109.485 58.6332 109.215 59.0442 109.42 59.3121L109.786 59.8002L112.753 58.4937Z" fill="black"/>
<path d="M117.559 62.8536C117.559 62.8536 117.665 61.3159 117.249 60.8315C116.834 60.347 115.252 60.6039 114.459 60.281C113.59 59.936 113.798 61.0553 114.235 61.3819C115.159 62.0425 116.961 62.2077 117.559 62.8536Z" fill="#B16668"/>
<path d="M131.64 108.934C131.869 109.036 131.999 109.546 132.102 110.791C132.164 111.561 132.387 112.582 131.392 113.205C131.028 113.427 130.624 113.54 130.215 113.535C129.806 113.53 129.404 113.407 129.044 113.176C128.185 112.545 127.916 111.103 126.908 110.167C126.024 109.348 124.601 108.526 124.117 107.26C123.708 106.214 123.708 104.72 125.175 104.801C126.964 104.9 127.965 106.566 129.187 106.6C129.851 106.618 131.41 108.835 131.64 108.934Z" fill="#263238"/>
<path d="M131.64 108.321V109.576C131.64 110.189 129.435 111.106 128.818 109.704C128.772 109.583 128.533 107.869 128.533 107.869L131.64 108.321Z" fill="#B16668"/>
<path d="M122.195 115.73C122.195 115.73 122.582 115.73 122.738 117.606C122.796 118.321 122.939 119.789 122.738 120.321C122.536 120.853 121.407 121.092 120.167 121.22C119.237 121.32 118.387 121.855 117.519 122.435C116.698 122.982 115.776 123.282 114.834 123.309H114.775C113.968 123.339 113.164 123.174 112.412 122.824C111.823 122.531 111.172 122.061 110.983 121.283C110.955 121.18 110.945 121.071 110.952 120.964C110.978 120.776 111.064 120.607 111.19 120.49C111.317 120.375 111.455 120.28 111.603 120.208C112.452 119.73 113.311 119.272 114.148 118.769C114.986 118.266 115.773 117.778 116.555 117.217C116.942 116.934 117.321 116.637 117.686 116.314C117.845 116.174 118.018 116.039 118.173 115.895C118.257 115.818 118.415 115.481 118.533 115.488L122.195 115.73Z" fill="#263238"/>
<path d="M122.096 114.339C122.096 114.339 122.096 115.282 122.096 115.807C122.096 116.332 121.562 117.15 120.161 117.103C119.175 117.066 118.483 116.758 118.521 115.807V114.435L122.096 114.339Z" fill="#B16668"/>
<path d="M132.26 92.9326C132.032 90.873 131.635 88.8449 131.072 86.8772C131.072 86.8772 131.401 81.6438 131.547 76.6821C131.675 71.599 131.556 66.5114 131.19 61.4445C131.19 61.4445 116.948 59.848 116.713 66.0392C116.477 72.2304 116.756 87.5855 116.756 90.5655C116.756 93.2923 117.038 96.0044 117.457 101.073C117.857 105.932 118.474 114.872 118.474 114.872C120.148 115.928 122.195 114.758 122.195 114.758C122.195 114.758 123.352 102.405 123.646 99.2816C123.852 97.0412 123.659 94.7745 123.079 92.628C123.079 92.628 123.246 90.2499 123.773 84.9872C124.145 81.2695 124.455 76.8325 124.455 76.8325C124.455 76.8325 124.738 82.8659 125.032 85.7872C125.308 88.4956 125.637 89.5783 126.514 94.8887C127.367 100.027 128.353 108.578 128.353 108.578C130.027 109.635 131.68 108.383 131.68 108.383C131.68 108.383 132.713 96.731 132.26 92.9326Z" fill="#37474F"/>
<path d="M124.449 76.8324L125.128 71.6578C125.128 71.6578 127.9 70.6155 129.311 68.6631C129.311 68.6631 128.558 70.9385 125.975 72.1605L124.939 76.5168L124.654 80.5537L124.449 76.8324Z" fill="#263238"/>
<path d="M128.244 40.6797C130.468 40.0448 131.869 41.3183 132.691 44.8928C133.392 47.9572 134.421 54.2989 134.821 56.6697C134.97 57.5468 135.261 58.5524 133.702 59.6607C131.441 61.209 129.107 62.6046 126.713 63.8408L125.86 60.0607L129.305 51.7153L128.244 40.6797Z" fill="#37474F"/>
<path d="M122.111 39.0136L122.775 44.5442L127.382 44.2653L126.979 37.8025L122.111 39.0136Z" fill="#B16668"/>
<path d="M119.091 32.1875C119.091 32.1875 117.966 34.1436 118.086 34.3418C118.207 34.5399 119.017 34.7088 119.017 34.7088L119.091 32.1875Z" fill="#9A4A4D"/>
<path d="M119.463 33.4646C119.192 33.4595 118.927 33.3592 118.704 33.1763C118.48 32.9935 118.308 32.7363 118.208 32.4373C118.108 32.1383 118.085 31.811 118.142 31.4967C118.199 31.1823 118.334 30.8952 118.529 30.6714C118.724 30.4477 118.971 30.2974 119.238 30.2397C119.506 30.1819 119.781 30.2193 120.031 30.347C120.28 30.4747 120.492 30.687 120.639 30.9571C120.786 31.2273 120.863 31.543 120.859 31.8645C120.852 32.2954 120.702 32.7057 120.44 33.0056C120.178 33.3055 119.827 33.4705 119.463 33.4646ZM119.5 30.5764C119.289 30.5728 119.082 30.6433 118.905 30.779C118.728 30.9147 118.589 31.1095 118.506 31.3387C118.422 31.568 118.398 31.8214 118.436 32.067C118.474 32.3126 118.573 32.5392 118.72 32.7183C118.867 32.8974 119.055 33.0209 119.262 33.0732C119.468 33.1255 119.683 33.1042 119.879 33.012C120.075 32.9198 120.243 32.7609 120.363 32.5554C120.483 32.3498 120.548 32.1068 120.552 31.8572C120.555 31.5226 120.446 31.2001 120.249 30.9601C120.052 30.7201 119.783 30.5822 119.5 30.5764Z" fill="#263238"/>
<path d="M122.226 26.7742C119.987 27.288 119.33 28.4367 119.063 32.6241C118.784 36.9987 119.144 38.3823 119.621 38.9805C119.931 39.3842 121.767 39.4906 122.691 39.208C123.848 38.841 126.465 37.8134 127.714 35.6335C129.181 33.0645 129.606 29.5597 128.089 28.0917C125.956 26.0182 123.134 26.5614 122.226 26.7742Z" fill="#B16668"/>
<path d="M122.145 39.3182C121.184 39.443 119.891 39.3182 119.621 38.9769C120.441 38.9707 121.253 38.7827 122.015 38.4227L122.145 39.3182Z" fill="#9A4A4D"/>
<path d="M118.645 28.0882C118.645 28.1433 118.645 28.1983 118.66 28.2497C118.7 28.4497 118.776 28.637 118.883 28.7986C118.99 28.9602 119.126 29.0923 119.28 29.1855C119.508 29.3312 119.76 29.4152 120.018 29.4314C120.111 29.4314 120.765 29.4718 120.79 29.3837C120.667 29.6521 120.586 29.9441 120.548 30.2461C120.546 30.3984 120.577 30.5489 120.638 30.6828C120.7 30.8166 120.789 30.9292 120.899 31.0095C121.038 31.0692 121.172 31.1441 121.299 31.2334C121.507 31.4352 121.426 31.8976 121.516 32.1655C121.544 32.2536 122.055 33.0573 122.08 32.9509C122.08 32.9509 122.471 31.2627 123.674 31.4829C124.877 31.7031 125.026 33.5564 124.248 34.6537C123.469 35.7511 122.759 35.3143 122.759 35.3143C122.759 35.3143 122.759 37.7328 123.652 39.1237C123.652 39.1237 124.679 39.5385 126.582 39.0944C127.751 38.8228 129.423 37.1273 130.139 35.3143C131.658 31.4756 131.807 28.0038 129.736 26.9212C129.451 24.3962 127.131 23.6512 125.308 23.5852C124.127 23.5448 122.936 23.6843 121.761 23.5081C121.202 23.4123 120.649 23.2812 120.102 23.1154C119.763 22.99 119.407 22.9451 119.054 22.9833C118.706 23.0792 118.393 23.3058 118.163 23.6293C117.933 23.9527 117.797 24.3557 117.776 24.7779C117.749 25.2183 117.815 25.6598 117.969 26.0624C118.132 26.4748 118.391 26.8236 118.716 27.068C118.736 27.0804 118.752 27.0996 118.762 27.123C118.769 27.1507 118.769 27.1798 118.762 27.2074C118.685 27.4922 118.646 27.7892 118.645 28.0882Z" fill="#263238"/>
<path d="M129.572 27.2329L130.917 26.3265C130.87 26.2154 130.804 26.1169 130.724 26.0369C130.643 25.9569 130.55 25.8971 130.449 25.8612C130.349 25.8252 130.243 25.8139 130.138 25.8278C130.034 25.8417 129.933 25.8806 129.842 25.9421C129.75 26.0036 129.671 26.0865 129.607 26.1857C129.544 26.2848 129.498 26.3982 129.473 26.5189C129.447 26.6397 129.443 26.7652 129.46 26.888C129.477 27.0107 129.515 27.1281 129.572 27.2329Z" fill="#263238"/>
<path d="M122.046 33.8976L122.111 32.0626C121.906 32.0524 121.705 32.1392 121.554 32.3041C121.402 32.4689 121.312 32.6982 121.303 32.9415C121.295 33.1849 121.368 33.4223 121.508 33.6016C121.647 33.7809 121.841 33.8873 122.046 33.8976Z" fill="#263238"/>
<path d="M118.245 31.4756L122.381 32.1876L122.21 32.5289L118.238 31.8463L118.245 31.4756Z" fill="#263238"/>
<path d="M131.621 43.5864C131.131 41.3147 130.44 40.5734 128.769 40.522C127.907 40.5907 127.05 40.7206 126.201 40.911C126.027 41.8688 123.931 42.5221 121.81 42.012C121.19 42.2285 119.513 42.7643 118.989 42.9918C117.488 43.6341 116.762 45.4801 116.663 51.33C116.663 51.33 116.375 65.2097 116.663 67.6062C120.446 69.3531 124.372 69.2723 126.539 68.7072C131.051 67.5108 131.584 65.2904 131.584 65.2904C131.584 65.2904 131.348 59.7195 131.196 55.4843C131.42 52.7869 131.761 50.7575 131.885 48.6069C131.995 46.927 131.907 45.2371 131.621 43.5864Z" fill="#455A64"/>
<path d="M101.804 47.8215C101.941 47.9353 102.949 48.9225 103.389 49.3996C103.389 49.3996 104.27 44.8782 104.27 44.8745C104.27 44.8709 103.863 44.4268 103.826 44.3754C103.682 44.1918 103.548 43.9968 103.426 43.7919C103.17 43.2956 102.951 42.7737 102.772 42.2322C102.553 41.6434 102.275 41.0877 101.944 40.577C101.622 40.0583 101.298 39.5421 100.973 39.0283C100.92 38.9203 100.84 38.8344 100.744 38.7824C100.661 38.7585 100.574 38.771 100.498 38.8176C100.422 38.8641 100.363 38.9416 100.332 39.0356C100.273 39.2271 100.26 39.4342 100.294 39.6338C100.343 40.035 100.428 40.4287 100.549 40.8082C100.62 41.0321 100.828 41.5863 100.397 41.5422C100.261 41.5051 100.139 41.4192 100.046 41.2963C99.5229 40.718 99.0339 40.0975 98.5828 39.4393C98.4419 39.2102 98.2749 39.0052 98.0867 38.8301C97.9907 38.7453 97.8794 38.6882 97.7615 38.6634C97.6436 38.6385 97.5224 38.6466 97.4076 38.687C97.2734 38.7747 97.1559 38.8943 97.0625 39.0383C96.9691 39.1823 96.9019 39.3476 96.865 39.5237C96.7011 39.941 96.5963 40.3874 96.5549 40.8449C96.5501 41.1374 96.5814 41.4292 96.6479 41.711C96.9114 42.8272 97.4096 43.8462 98.096 44.6727C98.6306 45.3851 99.2487 46.0031 99.9316 46.5077C100.084 46.6177 100.369 46.8086 100.651 47.0178C101.07 47.3004 101.324 47.4288 101.804 47.8215Z" fill="#B16668"/>
<path d="M110.394 50.1592L103.615 44.2873L102.291 48.1995C102.291 48.1995 106.828 53.3007 109.026 55.5173C109.956 56.4899 110.983 56.2734 111.984 55.6935C113.708 54.6953 118.108 50.6583 118.108 50.6583C118.108 50.6583 120.459 45.814 118.989 42.9955C118.216 43.1726 117.493 43.5764 116.886 44.1699C115.835 45.2158 110.524 50.1409 110.524 50.1409" fill="#B16668"/>
<path d="M119.277 42.8708C118.545 42.8294 117.819 43.037 117.184 43.469C116.412 43.9864 110.524 49.9795 110.524 49.9795L105.758 45.9866C104.44 46.3756 103.553 48.4197 103.429 49.818C103.429 49.818 105.981 52.6145 107.497 54.4311C109.978 57.3928 110.545 57.0221 111.916 56.178C113.286 55.3339 118.307 50.996 118.307 50.996C118.307 50.996 119.841 49.6455 120.133 48.1188C120.936 43.9057 119.277 42.8708 119.277 42.8708Z" fill="#37474F"/>
<path opacity="0.1" d="M110.524 49.9793C109.92 50.5436 109.474 51.3114 109.246 52.1813C109.222 51.7092 109.289 51.2369 109.442 50.8C109.596 50.3632 109.831 49.9734 110.13 49.66L110.524 49.9793Z" fill="black"/>
<path d="M105.758 45.9865L104.567 44.9773C103.953 45.3742 103.423 45.9314 103.017 46.6067C102.633 47.1863 102.38 47.8722 102.282 48.5995L103.42 49.818C103.905 48.3221 104.711 47.0016 105.758 45.9865Z" fill="#263238"/>
<path d="M102.803 48.5702C102.818 48.6182 102.845 48.6598 102.88 48.6898C102.915 48.7198 102.957 48.7368 103 48.7388C103.044 48.7408 103.086 48.7276 103.123 48.701C103.16 48.6743 103.19 48.6353 103.208 48.5888C103.227 48.5423 103.233 48.4905 103.227 48.4398C103.22 48.3891 103.201 48.3417 103.172 48.3037C103.143 48.2657 103.105 48.2386 103.063 48.226C103.021 48.2133 102.977 48.2156 102.936 48.2325C102.908 48.244 102.883 48.2619 102.861 48.2852C102.839 48.3085 102.822 48.3367 102.809 48.3681C102.797 48.3996 102.79 48.4337 102.789 48.4684C102.788 48.5031 102.793 48.5377 102.803 48.5702Z" fill="#1D334A"/>
<path d="M127.079 39.3661L127.11 39.8982C126.594 40.5067 125.928 40.9063 125.209 41.0396C123.066 41.5094 122.316 40.7203 122.316 40.7203L122.26 40.2652C122.26 40.2652 122.055 40.1662 121.708 40.4818C121.178 41.1307 120.682 41.817 120.223 42.5369C120.223 42.5369 120.632 42.3975 121.972 43.0728C123.309 43.688 124.782 43.7526 126.155 43.2562C127.227 42.8342 128.034 41.5827 128.089 41.1203C128.145 40.6579 127.448 39.1753 127.079 39.3661Z" fill="#263238"/>
</svg>
