<svg width="116" height="120" viewBox="0 0 116 120" fill="none" xmlns="http://www.w3.org/2000/svg">
<path fill-rule="evenodd" clip-rule="evenodd" d="M58 0C25.955 0 0 26.85 0 60C0 86.55 16.6025 108.975 39.6575 116.925C42.5575 117.45 43.645 115.65 43.645 114.075C43.645 112.65 43.5725 107.925 43.5725 102.9C29 105.675 25.23 99.225 24.07 95.85C23.4175 94.125 20.59 88.8 18.125 87.375C16.095 86.25 13.195 83.475 18.0525 83.4C22.62 83.325 25.8825 87.75 26.97 89.55C32.19 98.625 40.5275 96.075 43.8625 94.5C44.37 90.6 45.8925 87.975 47.56 86.475C34.655 84.975 21.17 79.8 21.17 56.85C21.17 50.325 23.4175 44.925 27.115 40.725C26.535 39.225 24.505 33.075 27.695 24.825C27.695 24.825 32.5525 23.25 43.645 30.975C48.285 29.625 53.215 28.95 58.145 28.95C63.075 28.95 68.005 29.625 72.645 30.975C83.7375 23.175 88.595 24.825 88.595 24.825C91.785 33.075 89.755 39.225 89.175 40.725C92.8725 44.925 95.12 50.25 95.12 56.85C95.12 79.875 81.5625 84.975 68.6575 86.475C70.76 88.35 72.5725 91.95 72.5725 97.575C72.5725 105.6 72.5 112.05 72.5 114.075C72.5 115.65 73.5875 117.525 76.4875 116.925C88.0014 112.904 98.0064 105.248 105.094 95.0368C112.182 84.8252 115.997 72.5714 116 60C116 26.85 90.045 0 58 0Z" fill="#30C3D7"/>
</svg>
