<svg width="130" height="120" viewBox="0 0 130 120" fill="none" xmlns="http://www.w3.org/2000/svg">
<path fill-rule="evenodd" clip-rule="evenodd" d="M5.41667 14.19C5.41667 11.7527 6.46558 9.41516 8.33266 7.6917C10.1997 5.96824 12.732 5.00001 15.3725 5.00001H114.617C115.925 4.99804 117.221 5.23433 118.431 5.69535C119.64 6.15636 120.739 6.83306 121.665 7.68669C122.591 8.54033 123.325 9.55413 123.826 10.6701C124.327 11.786 124.584 12.9821 124.583 14.19V105.8C124.585 107.008 124.328 108.205 123.828 109.321C123.328 110.438 122.594 111.452 121.669 112.307C120.744 113.161 119.645 113.839 118.436 114.301C117.227 114.763 115.931 115.001 114.622 115H15.3725C14.0646 115 12.7696 114.762 11.5613 114.3C10.3531 113.838 9.2553 113.16 8.33075 112.307C7.40619 111.453 6.67296 110.439 6.17295 109.323C5.67294 108.208 5.41595 107.012 5.41667 105.805V14.19ZM52.585 46.94H68.7212V54.42C71.0504 50.12 77.0087 46.25 85.9625 46.25C103.128 46.25 107.196 54.815 107.196 70.53V99.64H89.8246V74.11C89.8246 65.16 87.4954 60.11 81.5804 60.11C73.3742 60.11 69.9617 65.555 69.9617 74.11V99.64H52.585V46.94ZM22.7933 98.955H40.17V46.25H22.7933V98.95V98.955ZM42.6562 29.06C42.689 30.4334 42.4243 31.7989 41.8775 33.0766C41.3308 34.3542 40.5131 35.5182 39.4725 36.5002C38.4319 37.4822 37.1892 38.2624 35.8175 38.795C34.4457 39.3277 32.9725 39.6021 31.4844 39.6021C29.9962 39.6021 28.523 39.3277 27.1513 38.795C25.7795 38.2624 24.5369 37.4822 23.4962 36.5002C22.4556 35.5182 21.6379 34.3542 21.0912 33.0766C20.5445 31.7989 20.2797 30.4334 20.3125 29.06C20.3768 26.3643 21.5821 23.799 23.6702 21.9134C25.7583 20.0279 28.5633 18.9721 31.4844 18.9721C34.4055 18.9721 37.2104 20.0279 39.2985 21.9134C41.3867 23.799 42.5919 26.3643 42.6562 29.06Z" fill="#30C3D7"/>
</svg>
