<svg width="200" height="160" viewBox="0 0 200 160" fill="none" xmlns="http://www.w3.org/2000/svg">
<path d="M199.811 140.296H0.574615V140.403H199.811V140.296Z" fill="#EBEBEB"/>
<path d="M179.848 147.191H158.701V147.298H179.848V147.191Z" fill="#EBEBEB"/>
<path d="M132.557 145.849H109.183V145.956H132.557V145.849Z" fill="#EBEBEB"/>
<path d="M159.721 145.232H152.074V145.339H159.721V145.232Z" fill="#EBEBEB"/>
<path d="M57.8193 143.934H40.6093V144.041H57.8193V143.934Z" fill="#EBEBEB"/>
<path d="M38.3898 143.934H32.2373V144.041H38.3898V143.934Z" fill="#EBEBEB"/>
<path d="M74.5592 145.742H52.9619V145.849H74.5592V145.742Z" fill="#EBEBEB"/>
<path d="M95.0128 121.184H18.0716C17.4689 121.183 16.8912 120.924 16.4653 120.466C16.0395 120.007 15.8003 119.385 15.8003 118.737V2.42539C15.8056 1.78092 16.047 1.16469 16.4723 0.710571C16.8976 0.256448 17.4723 0.00110402 18.0716 0H95.0128C95.6163 0 96.195 0.257789 96.6217 0.716657C97.0484 1.17552 97.2881 1.79788 97.2881 2.44682V118.737C97.2881 119.386 97.0484 120.008 96.6217 120.467C96.195 120.926 95.6163 121.184 95.0128 121.184ZM18.0716 0.0857032C17.4953 0.0868384 16.9429 0.333841 16.5358 0.772495C16.1286 1.21115 15.8999 1.80561 15.8999 2.42539V118.737C15.8999 119.357 16.1286 119.951 16.5358 120.39C16.9429 120.829 17.4953 121.076 18.0716 121.077H95.0128C95.5895 121.076 96.1423 120.829 96.5501 120.39C96.9579 119.952 97.1875 119.357 97.1885 118.737V2.42539C97.1875 1.80522 96.9579 1.21076 96.5501 0.772233C96.1423 0.333702 95.5895 0.086836 95.0128 0.0857032H18.0716Z" fill="#EBEBEB"/>
<path d="M181.207 121.184H104.261C103.658 121.183 103.08 120.925 102.654 120.466C102.227 120.007 101.987 119.386 101.986 118.737V2.42539C101.992 1.78053 102.235 1.16431 102.661 0.710303C103.087 0.256298 103.662 0.00109198 104.261 0H181.207C181.805 0.0022302 182.379 0.258073 182.803 0.712075C183.228 1.16608 183.469 1.78166 183.474 2.42539V118.737C183.474 119.385 183.235 120.006 182.81 120.464C182.385 120.923 181.809 121.182 181.207 121.184ZM104.261 0.0857032C103.685 0.086836 103.132 0.333702 102.724 0.772233C102.316 1.21076 102.087 1.80522 102.086 2.42539V118.737C102.087 119.357 102.316 119.952 102.724 120.39C103.132 120.829 103.685 121.076 104.261 121.077H181.207C181.783 121.076 182.336 120.829 182.744 120.39C183.152 119.952 183.381 119.357 183.382 118.737V2.42539C183.381 1.80522 183.152 1.21076 182.744 0.772233C182.336 0.333702 181.783 0.086836 181.207 0.0857032H104.261Z" fill="#EBEBEB"/>
<path d="M47.3793 109.177H23.18C22.0533 109.177 21.1398 110.159 21.1398 111.371V112.318C21.1398 113.53 22.0533 114.512 23.18 114.512H47.3793C48.5061 114.512 49.4195 113.53 49.4195 112.318V111.371C49.4195 110.159 48.5061 109.177 47.3793 109.177Z" fill="#EBEBEB"/>
<path d="M28.9858 114.512H25.0051L20.4784 140.296H24.4591L28.9858 114.512Z" fill="#E0E0E0"/>
<path d="M36.9313 114.512H32.9506L30.7231 140.296H34.7039L36.9313 114.512Z" fill="#E0E0E0"/>
<path d="M41.5736 114.512H45.5543L50.085 140.296H46.1042L41.5736 114.512Z" fill="#E0E0E0"/>
<path d="M172.241 6.70642H79.1377V93.9306H172.241V6.70642Z" fill="#E6E6E6"/>
<path d="M175.034 6.70642H80.4407V93.9306H175.034V6.70642Z" fill="#F0F0F0"/>
<path d="M172.241 93.9348H79.1377V95.6232H172.241V93.9348Z" fill="#E6E6E6"/>
<path d="M176.525 93.9348H81.931V95.6232H176.525V93.9348Z" fill="#F0F0F0"/>
<path d="M171.121 91.2223V9.41882L84.3497 9.41882V91.2223H171.121Z" fill="#FAFAFA"/>
<path d="M112.091 91.2223L128.449 9.41882H139.283L122.926 91.2223H112.091Z" fill="white"/>
<path d="M99.4439 91.2223L115.801 9.41882H126.636L110.278 91.2223H99.4439Z" fill="white"/>
<path d="M86.3939 9.64165V86.0801C86.3939 86.2044 86.5373 86.3029 86.7126 86.3029H87.135C87.3103 86.3029 87.4538 86.2044 87.4538 86.0801V9.64165C87.4538 9.51738 87.3103 9.41882 87.135 9.41882H86.7126C86.5373 9.42739 86.3939 9.51738 86.3939 9.64165Z" fill="#F0F0F0"/>
<path d="M139.953 91.2223L156.31 9.41882H160.534L144.177 91.2223H139.953Z" fill="white"/>
<path d="M171.121 91.2223V9.41882H170.623V91.2223H171.121Z" fill="#E6E6E6"/>
<path opacity="0.5" d="M175.959 12.8127H82.8554L82.4928 10.473H175.6L175.959 12.8127Z" fill="#E0E0E0"/>
<path opacity="0.5" d="M175.959 20.843H82.8554L82.4928 18.499H175.6L175.959 20.843Z" fill="#E0E0E0"/>
<path opacity="0.5" d="M175.959 28.8692H82.8554L82.4928 26.5295H175.6L175.959 28.8692Z" fill="#E0E0E0"/>
<path opacity="0.5" d="M175.959 36.8995H82.8554L82.4928 34.5598H175.6L175.959 36.8995Z" fill="#E0E0E0"/>
<path opacity="0.5" d="M175.959 44.9256H82.8554L82.4928 42.5859H175.6L175.959 44.9256Z" fill="#E0E0E0"/>
<path opacity="0.5" d="M175.959 52.956H82.8554L82.4928 50.6163H175.6L175.959 52.956Z" fill="#E0E0E0"/>
<path opacity="0.5" d="M175.959 16.8278H82.8554L82.4928 14.4882H175.6L175.959 16.8278Z" fill="#E0E0E0"/>
<path opacity="0.5" d="M175.959 24.854H82.8554L82.4928 22.5143H175.6L175.959 24.854Z" fill="#E0E0E0"/>
<path opacity="0.5" d="M175.959 32.8841H82.8554L82.4928 30.5444H175.6L175.959 32.8841Z" fill="#E0E0E0"/>
<path opacity="0.5" d="M175.959 40.9102H82.8554L82.4928 38.5706H175.6L175.959 40.9102Z" fill="#E0E0E0"/>
<path opacity="0.5" d="M175.959 48.9408H82.8554L82.4928 46.6011H175.6L175.959 48.9408Z" fill="#E0E0E0"/>
<path opacity="0.5" d="M175.959 56.971H82.8554L82.4928 54.6313H175.6L175.959 56.971Z" fill="#E0E0E0"/>
<path d="M172.241 100.547H159.912V140.296H172.241V100.547Z" fill="#E6E6E6"/>
<path d="M164.73 140.296H172.241V135.732H156.856L164.73 140.296Z" fill="#EBEBEB"/>
<path d="M135.287 100.547H122.958V140.296H135.287V100.547Z" fill="#E6E6E6"/>
<path d="M172.241 100.547H128.736V139.349H172.241V100.547Z" fill="#EBEBEB"/>
<path d="M136.247 140.296H128.736V135.732H144.121L136.247 140.296Z" fill="#EBEBEB"/>
<path d="M166.415 105.021H134.561V125.011H166.415V105.021Z" fill="#FAFAFA"/>
<path d="M166.415 127.046H134.561V136.559H166.415V127.046Z" fill="#FAFAFA"/>
<path d="M153.457 106.04H147.52C147.066 106.039 146.631 105.845 146.311 105.499C145.99 105.154 145.81 104.686 145.81 104.198H155.182C155.182 104.441 155.138 104.681 155.051 104.906C154.964 105.13 154.837 105.334 154.676 105.505C154.516 105.677 154.326 105.812 154.116 105.904C153.907 105.996 153.683 106.042 153.457 106.04Z" fill="#EBEBEB"/>
<path d="M153.457 128.062H147.52C147.066 128.062 146.631 127.868 146.311 127.523C145.99 127.179 145.81 126.711 145.81 126.223H155.182C155.182 126.466 155.138 126.707 155.051 126.931C154.964 127.155 154.836 127.358 154.676 127.529C154.516 127.7 154.325 127.835 154.116 127.927C153.907 128.018 153.683 128.064 153.457 128.062Z" fill="#EBEBEB"/>
<path d="M125.4 100.547H113.072V140.296H125.4V100.547Z" fill="#E6E6E6"/>
<path d="M117.893 140.296H125.4V135.732H110.019L117.893 140.296Z" fill="#EBEBEB"/>
<path d="M88.45 100.547H76.1212V140.296H88.45V100.547Z" fill="#E6E6E6"/>
<path d="M125.404 100.547H81.8991V139.349H125.404V100.547Z" fill="#EBEBEB"/>
<path d="M89.4063 140.296H81.8991V135.732H97.2801L89.4063 140.296Z" fill="#EBEBEB"/>
<path d="M119.579 105.021H87.7248V125.011H119.579V105.021Z" fill="#FAFAFA"/>
<path d="M119.579 127.046H87.7248V136.559H119.579V127.046Z" fill="#FAFAFA"/>
<path d="M106.616 106.04H100.683C100.229 106.039 99.7938 105.845 99.4727 105.499C99.1516 105.154 98.9707 104.686 98.9697 104.198H108.33C108.33 104.686 108.149 105.155 107.828 105.501C107.507 105.846 107.071 106.04 106.616 106.04Z" fill="#EBEBEB"/>
<path d="M106.616 128.062H100.683C100.229 128.062 99.7941 127.868 99.4729 127.524C99.1517 127.179 98.9707 126.711 98.9697 126.223H108.33C108.33 126.465 108.285 126.705 108.199 126.928C108.113 127.151 107.987 127.354 107.828 127.525C107.669 127.696 107.48 127.831 107.272 127.923C107.064 128.015 106.841 128.062 106.616 128.062Z" fill="#EBEBEB"/>
<path d="M82.0266 100.547L172.241 100.547V98.8799L82.0266 98.8799V100.547Z" fill="#F0F0F0"/>
<path d="M82.0266 98.8754H76.1212V100.542H82.0266V98.8754Z" fill="#E0E0E0"/>
<path d="M34.2018 102.792C33.64 87.2199 33.0423 71.7377 34.2696 63.9259L36.2619 62.4089C36.2619 62.4089 35.8236 63.8616 35.5925 87.7213C35.3614 111.581 35.0785 99.2483 35.3215 102.792H34.2018Z" fill="#E6E6E6"/>
<path d="M37.4215 47.5652C40.5017 38.9349 47.6782 30.6003 55.4723 27.1893C58.5326 25.8524 54.1255 55.287 43.028 57.1854C37.6087 58.1109 35.9192 73.0404 35.0067 80.1966C34.6959 66.0985 34.3413 56.1955 37.4215 47.5652Z" fill="#E6E6E6"/>
<path d="M36.764 69.4751C38.9317 65.7813 42.4741 60.6049 47.6503 60.6006C53.5158 60.6006 48.3835 70.9878 41.4859 74.3131C38.1188 75.9328 35.3096 81.075 34.5804 84.2974C34.6441 77.7626 34.5963 73.1689 36.764 69.4751Z" fill="#E6E6E6"/>
<path d="M31.4882 58.3082C27.7186 51.1263 19.3188 43.9015 10.3691 40.6148C6.85856 39.3293 6.51189 60.6008 25.4394 65.6915C31.5559 67.337 34.0066 78.9755 35.2737 84.829C35.1741 73.4605 35.2418 65.4901 31.4882 58.3082Z" fill="#E6E6E6"/>
<path d="M33.5523 75.3373C31.1614 70.7608 24.6185 68.524 18.745 68.9525C16.4418 69.1196 16.1868 78.5126 29.0137 82.1422C32.9028 83.2434 34.4728 90.6096 35.2817 94.3377C35.2139 87.0958 35.9511 79.9182 33.5523 75.3373Z" fill="#E6E6E6"/>
<path d="M33.7993 51.1563C31.9305 44.7543 26.4276 39.0165 21.3789 36.6468C19.3866 35.7169 18.7849 46.3312 29.6273 56.7227C32.9147 59.8766 33.9508 69.0597 34.4887 73.7133C34.7318 65.4044 35.6682 57.5583 33.7993 51.1563Z" fill="#E6E6E6"/>
<path d="M34.7876 109.177C30.8427 109.177 27.5832 108.869 27.36 103.131L26.7025 95.6018H42.8766L42.2191 103.131C41.992 108.869 38.7324 109.177 34.7876 109.177Z" fill="#F0F0F0"/>
<path d="M42.9363 98.7042H26.6428L26.1765 95.1775H43.4026L42.9363 98.7042Z" fill="#F0F0F0"/>
<path d="M100.193 159.648C142.863 159.648 177.453 157.476 177.453 154.797C177.453 152.118 142.863 149.946 100.193 149.946C57.5235 149.946 22.933 152.118 22.933 154.797C22.933 157.476 57.5235 159.648 100.193 159.648Z" fill="#F5F5F5"/>
<path d="M29.4825 18.2675L29.0845 18.2883L29.475 26.9041L29.873 26.8832L29.4825 18.2675Z" fill="#1D334A"/>
<path d="M29.9998 29.7971L29.6018 29.818L29.7936 34.051L30.1916 34.0301L29.9998 29.7971Z" fill="#1D334A"/>
<path d="M154.68 105.723H35.1103C34.927 105.722 34.7511 105.645 34.6196 105.508C34.4881 105.37 34.4112 105.183 34.405 104.986L30.1175 10.2845C30.1131 10.182 30.1282 10.0797 30.1617 9.98366C30.1952 9.88764 30.2465 9.79993 30.3124 9.72583C30.3783 9.65173 30.4576 9.59277 30.5453 9.55253C30.633 9.51229 30.7274 9.4916 30.8228 9.4917H150.401C150.582 9.49139 150.757 9.56585 150.889 9.69975C151.021 9.83365 151.1 10.0168 151.11 10.2116L155.398 104.948C155.399 105.05 155.382 105.151 155.346 105.245C155.311 105.34 155.258 105.426 155.191 105.498C155.124 105.571 155.045 105.628 154.957 105.666C154.869 105.705 154.775 105.724 154.68 105.723Z" fill="#1D334A"/>
<path opacity="0.8" d="M35.7798 103.443L31.6317 11.8185C31.6274 11.7159 31.6424 11.6133 31.6759 11.5171C31.7093 11.4208 31.7605 11.3329 31.8264 11.2584C31.8923 11.184 31.9715 11.1246 32.0592 11.0839C32.1469 11.0432 32.2414 11.022 32.3369 11.0215H149.014C149.196 11.0213 149.37 11.0965 149.502 11.2314C149.633 11.3663 149.711 11.5505 149.719 11.7457L153.867 103.371C153.872 103.473 153.858 103.576 153.824 103.673C153.791 103.769 153.74 103.858 153.674 103.932C153.608 104.007 153.529 104.066 153.441 104.106C153.353 104.147 153.258 104.168 153.162 104.168H36.4851C36.3037 104.167 36.1295 104.091 35.9983 103.957C35.8671 103.822 35.7889 103.638 35.7798 103.443Z" fill="white"/>
<path d="M65.0875 99.047C64.9949 99.0461 64.9061 99.0076 64.8389 98.9393C64.7716 98.8709 64.7309 98.7777 64.7249 98.6784L61.0071 16.5493C61.0001 16.4955 61.0036 16.4407 61.0174 16.3885C61.0313 16.3362 61.0551 16.2876 61.0874 16.2459C61.1197 16.2041 61.1598 16.17 61.205 16.1459C61.2503 16.1217 61.2997 16.108 61.3502 16.1056C61.4007 16.1032 61.4511 16.1122 61.4981 16.1319C61.5452 16.1517 61.5879 16.1818 61.6235 16.2204C61.6591 16.2589 61.6868 16.3051 61.7049 16.3558C61.7229 16.4065 61.7309 16.4608 61.7284 16.515L65.4501 98.6399C65.4522 98.6911 65.445 98.7423 65.4287 98.7905C65.4124 98.8387 65.3875 98.8829 65.3553 98.9207C65.3231 98.9585 65.2842 98.9892 65.241 99.0108C65.1978 99.0325 65.1511 99.0448 65.1034 99.047H65.0875Z" fill="white"/>
<path d="M124.133 99.047C124.041 99.0461 123.952 99.0076 123.885 98.9393C123.817 98.8709 123.777 98.7777 123.771 98.6784L120.053 16.5493C120.046 16.4955 120.049 16.4407 120.063 16.3885C120.077 16.3362 120.101 16.2876 120.133 16.2459C120.165 16.2041 120.206 16.17 120.251 16.1459C120.296 16.1217 120.346 16.108 120.396 16.1056C120.446 16.1032 120.497 16.1122 120.544 16.1319C120.591 16.1517 120.634 16.1818 120.669 16.2204C120.705 16.2589 120.733 16.3051 120.751 16.3558C120.769 16.4065 120.777 16.4608 120.774 16.515L124.5 98.6399C124.502 98.6911 124.495 98.7423 124.478 98.7905C124.462 98.8387 124.437 98.8829 124.405 98.9207C124.373 98.9585 124.334 98.9892 124.291 99.0108C124.248 99.0325 124.201 99.0448 124.153 99.047H124.133Z" fill="white"/>
<path d="M94.6143 99.047C94.5218 99.0461 94.433 99.0076 94.3658 98.9393C94.2985 98.8709 94.2578 98.7777 94.2517 98.6784L90.53 16.5493C90.523 16.4955 90.5265 16.4407 90.5403 16.3885C90.5541 16.3362 90.578 16.2876 90.6103 16.2459C90.6426 16.2041 90.6826 16.17 90.7279 16.1459C90.7732 16.1217 90.8226 16.108 90.8731 16.1056C90.9236 16.1032 90.9739 16.1122 91.021 16.1319C91.0681 16.1517 91.1108 16.1818 91.1464 16.2204C91.182 16.2589 91.2097 16.3051 91.2277 16.3558C91.2458 16.4065 91.2538 16.4608 91.2512 16.515L94.969 98.6399C94.9717 98.6909 94.9649 98.742 94.9491 98.7901C94.9333 98.8383 94.9087 98.8826 94.8768 98.9205C94.8449 98.9584 94.8064 98.9891 94.7634 99.0108C94.7204 99.0325 94.6738 99.0448 94.6263 99.047H94.6143Z" fill="white"/>
<path d="M146.671 25.0124H35.8435C35.793 25.0181 35.7419 25.0123 35.6935 24.9954C35.6452 24.9786 35.6007 24.9509 35.5629 24.9144C35.5252 24.8778 35.495 24.8331 35.4743 24.7832C35.4536 24.7333 35.4429 24.6792 35.4429 24.6246C35.4429 24.5699 35.4536 24.5159 35.4743 24.4659C35.495 24.416 35.5252 24.3713 35.5629 24.3348C35.6007 24.2982 35.6452 24.2706 35.6935 24.2537C35.7419 24.2368 35.793 24.231 35.8435 24.2368H146.671C146.722 24.231 146.773 24.2368 146.821 24.2537C146.869 24.2706 146.914 24.2982 146.952 24.3348C146.989 24.3713 147.02 24.416 147.04 24.4659C147.061 24.5159 147.072 24.5699 147.072 24.6246C147.072 24.6792 147.061 24.7333 147.04 24.7832C147.02 24.8331 146.989 24.8778 146.952 24.9144C146.914 24.9509 146.869 24.9786 146.821 24.9954C146.773 25.0123 146.722 25.0181 146.671 25.0124Z" fill="white"/>
<path d="M39.1827 20.2132C39.4405 20.1021 39.719 20.0575 39.9957 20.0828C40.2725 20.1081 40.5399 20.2026 40.7766 20.3589C41.1751 20.6331 41.4181 21.2159 41.9202 21.3445C42.49 21.4687 42.6654 20.9674 43.0678 20.6803C43.5779 20.316 44.3549 20.4789 44.9247 20.526C46.4362 20.646 47.9465 20.7888 49.4553 20.9545C50.9456 21.1088 52.4519 21.383 53.9382 21.0702C54.4522 20.9631 54.233 20.1189 53.723 20.2132C52.2008 20.5346 50.587 20.1832 49.0609 20.0246C47.5347 19.8661 45.9966 19.7161 44.4585 19.5961C43.9332 19.5264 43.4 19.588 42.9005 19.7761C42.6648 19.8885 42.4532 20.0518 42.2788 20.256C42.2151 20.3246 42.1513 20.466 42.0477 20.4489C41.9441 20.4317 41.8286 20.1789 41.7887 20.1275C41.4421 19.7067 40.9858 19.4077 40.4792 19.2694C39.9725 19.1311 39.4389 19.1598 38.9476 19.3519C38.4655 19.5576 38.6727 20.4017 39.1628 20.2089L39.1827 20.2132Z" fill="white"/>
<path d="M66.0876 21.4987C66.6933 21.0102 67.6058 20.3588 68.1039 21.3358C68.355 21.8243 68.598 22.4114 69.2236 22.3086C69.8492 22.2057 70.2636 21.3701 70.702 20.9759C71.3555 20.3803 72.0169 20.2046 72.782 20.6845C73.3776 21.1476 74.056 21.473 74.7744 21.6401C75.4635 21.7323 76.1627 21.6119 76.7906 21.293C77.1513 21.0724 77.5474 20.927 77.9582 20.8645C78.394 20.9006 78.8276 20.9621 79.2572 21.0487C80.1866 21.0874 81.1166 20.9922 82.0226 20.7659C82.5366 20.6631 82.3175 19.8189 81.8034 19.9089C80.8199 20.1604 79.8027 20.2228 78.7989 20.0931C78.4348 20.0024 78.0597 19.9735 77.6872 20.0074C77.336 20.0745 76.9953 20.1942 76.6751 20.3631C75.8423 20.7531 75.0374 20.9416 74.1647 20.526C73.4873 20.2046 72.9693 19.6089 72.2042 19.4889C71.5689 19.4197 70.9336 19.6213 70.435 20.0503C70.1511 20.2879 69.8847 20.5486 69.638 20.8302C69.5297 20.9822 69.4112 21.1254 69.2834 21.2587C69.0842 21.4173 69.0682 21.4001 68.9487 21.1644C68.6578 20.5774 68.3789 20.0974 67.7254 19.956C66.9483 19.7889 66.2789 20.2431 65.6852 20.7231C65.2867 21.0573 65.6852 21.8158 66.0837 21.4773L66.0876 21.4987Z" fill="white"/>
<path d="M96.6067 21.2586C97.0809 21.0187 97.5631 20.8001 98.0572 20.6116C98.539 20.3833 99.0514 20.2387 99.5754 20.1831C100.034 20.1831 100.436 20.4659 100.874 20.5687C101.211 20.6496 101.564 20.6105 101.879 20.4573C102.165 20.3159 102.46 19.9688 102.771 19.9131C103.082 19.8574 103.425 20.2988 103.731 20.4487C104.042 20.5883 104.383 20.6314 104.716 20.573C105.022 20.5344 105.473 20.363 105.76 20.573C106.047 20.783 106.106 21.1558 106.393 21.34C106.516 21.42 106.656 21.4651 106.8 21.4711C106.943 21.4771 107.086 21.4438 107.214 21.3743C107.501 21.2243 107.656 20.9458 107.895 20.723C108.246 20.4059 108.653 20.5816 109.055 20.6844C109.416 20.7961 109.793 20.8339 110.167 20.7958C110.585 20.7358 111.071 20.4487 111.494 20.5387C112.195 20.6887 112.558 21.4857 113.339 21.0744C113.809 20.8258 113.398 20.0716 112.94 20.3202C112.741 20.423 112.163 19.8917 111.972 19.7888C111.629 19.6462 111.253 19.6222 110.896 19.7203C110.473 19.8714 110.027 19.9368 109.581 19.9131C109.208 19.8093 108.83 19.7263 108.449 19.6646C108.112 19.6337 107.775 19.7341 107.501 19.9474C107.346 20.0716 107.011 20.6244 106.808 20.5773C106.716 20.5773 106.569 20.2302 106.513 20.1488C106.422 20.0172 106.31 19.9041 106.182 19.8145C105.902 19.6463 105.579 19.5802 105.262 19.626C104.907 19.721 104.541 19.7486 104.178 19.7074C103.835 19.6003 103.608 19.2403 103.265 19.1118C102.492 18.8247 102.122 19.506 101.46 19.716C101.034 19.8488 100.595 19.5231 100.193 19.4074C99.7764 19.2896 99.3385 19.2896 98.9219 19.4074C97.9862 19.6806 97.0774 20.0509 96.2083 20.513C95.7381 20.753 96.1485 21.5072 96.6067 21.2672V21.2586Z" fill="white"/>
<path d="M123.763 21.023L125.934 20.3588C126.277 20.2516 126.624 20.1231 126.97 20.0417C127.311 19.9859 127.658 20.0538 127.959 20.2345C128.548 20.4285 129.165 20.504 129.78 20.4573C130.505 20.4573 131.226 20.4573 131.951 20.4273L140.837 20.3116C140.943 20.3116 141.044 20.2665 141.119 20.1861C141.194 20.1058 141.236 19.9968 141.236 19.8831C141.236 19.7695 141.194 19.6605 141.119 19.5801C141.044 19.4998 140.943 19.4546 140.837 19.4546L131.764 19.5746C131.051 19.5746 130.337 19.6003 129.624 19.6046C129.272 19.6188 128.92 19.5944 128.572 19.5317C128.246 19.4546 127.971 19.2575 127.656 19.1632C127.062 18.9875 126.385 19.3303 125.823 19.506L123.559 20.2002C123.507 20.2154 123.458 20.2415 123.415 20.2771C123.372 20.3127 123.336 20.357 123.309 20.4075C123.282 20.4581 123.265 20.5138 123.258 20.5716C123.251 20.6294 123.254 20.6882 123.269 20.7444C123.283 20.8007 123.307 20.8534 123.34 20.8996C123.373 20.9458 123.414 20.9845 123.461 21.0136C123.508 21.0426 123.56 21.0614 123.614 21.0689C123.668 21.0764 123.722 21.0724 123.775 21.0573L123.763 21.023Z" fill="white"/>
<path opacity="0.3" d="M65.745 55.0215L46.5027 56.1356C45.4612 49.1628 44.9481 42.1106 44.9686 35.0484L63.7685 34.2814C64.0672 41.229 64.7271 48.1531 65.745 55.0215Z" fill="#1D334A"/>
<path d="M66.1833 54.0744L46.941 55.1885C45.8394 48.329 45.1738 41.3967 44.9486 34.4398L64.1909 33.3214C64.4948 40.2736 65.1599 47.2021 66.1833 54.0744Z" fill="#1D334A"/>
<path opacity="0.3" d="M89.9801 62.6274L70.6342 61.3718V40.7517L89.9801 42.0073V62.6274Z" fill="#1D334A"/>
<path d="M89.7251 62.1647L70.3832 60.9092L70.6103 40.1691L89.9522 41.4203L89.7251 62.1647Z" fill="white"/>
<path opacity="0.3" d="M108.421 58.5868L127.759 57.9055C128.238 53.1189 126.134 41.0905 124.97 36.814L106.214 38.0995C107.82 45.6842 108.509 52.8233 108.421 58.5868Z" fill="#1D334A"/>
<path d="M108.752 57.9053L127.48 56.8683C127.959 52.086 126.719 44.2485 125.321 36.1324L106.098 37.4437C107.684 45.037 108.84 52.1417 108.752 57.9053Z" fill="#1D334A"/>
<path opacity="0.3" d="M55.3886 90.4639L75.129 88.3213C75.0772 83.4791 72.7621 72.2349 71.3913 68.0226L52.7746 70.388C54.767 77.8956 54.8387 84.7004 55.3886 90.4639Z" fill="#1D334A"/>
<path d="M55.8548 90.1681L74.8859 87.9441C75.121 83.1276 73.4873 75.3501 71.6981 67.3112L52.6192 69.7494C54.1534 77.2741 55.6476 84.4175 55.8548 90.1681Z" fill="#1D334A"/>
<path opacity="0.3" d="M103.381 67.3667L122.595 71.2234C124.038 66.7154 124.408 54.6099 124.129 50.2262L105.373 47.068C105.393 54.7727 104.62 61.826 103.381 67.3667Z" fill="#1D334A"/>
<path d="M103.831 66.7883L122.5 70.1736C123.946 65.6656 124.313 57.811 124.584 49.652L105.349 46.4125C105.373 54.1172 105.086 61.2477 103.831 66.7883Z" fill="white"/>
<path d="M149.062 48.1138C149.46 48.5423 149.763 48.9279 150.094 49.3479C150.425 49.7678 150.743 50.1749 151.054 50.5992C151.684 51.4562 152.281 52.3132 152.851 53.2131C153.421 54.113 153.963 55.0343 154.445 56.0113C154.961 56.992 155.412 58.01 155.796 59.058L155.943 59.4566L155.979 59.5551L156.027 59.7051L156.115 59.9965C156.159 60.185 156.198 60.365 156.234 60.545C156.27 60.725 156.29 60.8878 156.31 61.0549C156.372 61.6667 156.392 62.2826 156.37 62.8975C156.324 64.0103 156.208 65.1184 156.023 66.2142C155.667 68.3235 155.154 70.3985 154.489 72.4191L152.393 71.8963C152.548 69.8823 152.692 67.8254 152.744 65.8457C152.776 64.8857 152.761 63.9245 152.7 62.9661C152.672 62.5449 152.615 62.1266 152.528 61.7148L152.469 61.462L152.393 61.2777L152.166 60.7849C151.347 59.0752 150.394 57.4438 149.317 55.9085C148.775 55.1157 148.205 54.3401 147.631 53.5688C147.344 53.1788 147.049 52.7974 146.755 52.4203L145.878 51.3276L149.062 48.1138Z" fill="#B65B52"/>
<path d="M152.648 71.052L151.198 72.7275L154.035 74.5273C154.035 74.5273 155.015 73.126 154.632 71.6905L152.648 71.052Z" fill="#B55B52"/>
<path d="M149.309 75.2044L152.07 76.2456L154.031 74.5273L151.194 72.7275L149.309 75.2044Z" fill="#B55B52"/>
<path d="M157.262 82.0692L139.024 77.784C139.934 71.1561 141.266 64.603 143.009 58.1709L161.251 62.456C159.58 68.9079 158.248 75.456 157.262 82.0692Z" fill="#1D334A"/>
<path d="M160.138 63.3995L142.246 57.6708L136.919 76.912L154.811 82.6407L160.138 63.3995Z" fill="white"/>
<path d="M138.725 35.2582C138.725 35.5067 138.582 35.6867 138.431 35.6867C138.279 35.6867 138.168 35.4767 138.179 35.2282C138.191 34.9797 138.323 34.7997 138.474 34.7997C138.626 34.7997 138.737 35.0097 138.725 35.2582Z" fill="#263238"/>
<path d="M138.602 35.7039C138.293 36.4519 137.891 37.1511 137.406 37.7821C137.559 37.9106 137.736 38.0013 137.924 38.048C138.113 38.0946 138.309 38.0961 138.498 38.0521L138.602 35.7039Z" fill="#A02724"/>
<path d="M139.642 33.9173C139.675 33.9099 139.705 33.8902 139.726 33.8616C139.751 33.8342 139.765 33.7973 139.765 33.7587C139.765 33.7202 139.751 33.6832 139.726 33.6559C139.561 33.511 139.367 33.4102 139.159 33.3617C138.951 33.3133 138.736 33.3187 138.53 33.3773C138.513 33.3832 138.497 33.3926 138.484 33.405C138.47 33.4175 138.459 33.4327 138.451 33.4498C138.442 33.4669 138.438 33.4856 138.436 33.5048C138.435 33.524 138.437 33.5433 138.442 33.5616C138.448 33.5799 138.457 33.5969 138.468 33.6116C138.48 33.6263 138.494 33.6384 138.51 33.6471C138.526 33.6559 138.543 33.6612 138.561 33.6627C138.579 33.6642 138.597 33.6619 138.614 33.6559C138.778 33.6092 138.951 33.6058 139.116 33.6461C139.282 33.6864 139.436 33.7691 139.566 33.8873C139.588 33.9044 139.615 33.9148 139.642 33.9173Z" fill="#263238"/>
<path d="M145.659 38.8235C145.221 41.0818 144.938 44.2056 146.384 45.7097C146.384 45.7097 145.786 47.998 141.885 47.998C137.602 47.998 139.849 45.9925 139.849 45.9925C141.638 45.3969 141.65 43.2158 141.264 41.4631L145.659 38.8235Z" fill="#B55B52"/>
<path d="M136.586 151.806C136.219 151.806 135.864 151.75 135.745 151.574C135.714 151.527 135.697 151.471 135.697 151.414C135.697 151.356 135.714 151.3 135.745 151.253C135.768 151.21 135.799 151.173 135.836 151.143C135.873 151.114 135.915 151.093 135.96 151.082C136.438 150.944 137.434 151.557 137.474 151.583C137.487 151.59 137.497 151.601 137.504 151.615C137.51 151.629 137.512 151.645 137.51 151.66C137.506 151.674 137.499 151.687 137.49 151.698C137.48 151.708 137.468 151.716 137.454 151.72C137.167 151.775 136.877 151.804 136.586 151.806ZM136.139 151.206C136.096 151.201 136.052 151.201 136.008 151.206C135.952 151.22 135.903 151.257 135.872 151.309C135.824 151.399 135.84 151.446 135.872 151.471C136.004 151.669 136.729 151.673 137.263 151.591C136.915 151.385 136.534 151.254 136.139 151.206Z" fill="#1D334A"/>
<path d="M137.454 151.72H137.426C137.08 151.553 136.402 150.884 136.458 150.537C136.458 150.456 136.53 150.353 136.713 150.332C136.784 150.32 136.856 150.325 136.925 150.346C136.994 150.368 137.058 150.405 137.112 150.456C137.47 150.777 137.538 151.609 137.542 151.643C137.541 151.669 137.531 151.693 137.514 151.711C137.505 151.717 137.495 151.721 137.485 151.722C137.475 151.724 137.464 151.723 137.454 151.72ZM136.769 150.469H136.725C136.605 150.469 136.598 150.533 136.594 150.55C136.558 150.76 137.02 151.283 137.371 151.51C137.341 151.162 137.213 150.831 137.004 150.563C136.939 150.502 136.855 150.469 136.769 150.469Z" fill="#1D334A"/>
<path d="M140.726 151.647H137.857L137.657 144.508H140.526L140.726 151.647Z" fill="#B55B52"/>
<path d="M137.761 151.292H140.893C140.95 151.291 141.005 151.312 141.049 151.35C141.094 151.388 141.124 151.442 141.136 151.501L141.67 154.24C141.683 154.307 141.682 154.376 141.667 154.443C141.652 154.509 141.623 154.571 141.582 154.624C141.542 154.677 141.49 154.719 141.432 154.747C141.375 154.776 141.311 154.79 141.248 154.788C140.12 154.788 138.49 154.698 137.068 154.698C135.41 154.698 134.362 154.797 132.414 154.797C131.238 154.797 130.927 153.511 131.421 153.4C133.669 152.873 135.115 152.817 137.068 151.531C137.273 151.383 137.514 151.3 137.761 151.292Z" fill="#263238"/>
<path d="M147.536 46.0783C150.285 46.1126 154.13 53.6116 154.13 53.6116L149.867 58.2781C147.987 57.2009 146.469 55.5182 145.523 53.4659C143.898 49.9007 144.726 46.0483 147.536 46.0783Z" fill="#1D334A"/>
<path opacity="0.3" d="M147.536 46.0783C150.285 46.1126 154.13 53.6116 154.13 53.6116L149.867 58.2781C147.987 57.2009 146.469 55.5182 145.523 53.4659C143.898 49.9007 144.726 46.0483 147.536 46.0783Z" fill="black"/>
<path d="M134.494 49.4978C133.868 52.8274 133.418 59.6708 134.96 73.2161H150.293C150.413 71.0221 149.424 61.4448 150.735 51.1605C150.818 50.5038 150.773 49.8359 150.603 49.1988C150.434 48.5616 150.144 47.9691 149.751 47.4584C149.359 46.9476 148.872 46.5298 148.322 46.2311C147.772 45.9324 147.171 45.7593 146.555 45.7226H146.384C144.213 45.5897 142.036 45.5897 139.865 45.7226C139.148 45.7955 138.438 45.9069 137.809 46.0269C136.996 46.1815 136.246 46.5951 135.655 47.214C135.064 47.8329 134.659 48.6286 134.494 49.4978Z" fill="#1D334A"/>
<path opacity="0.2" d="M134.494 49.4978C133.868 52.8274 133.418 59.6708 134.96 73.2161H150.293C150.413 71.0221 149.424 61.4448 150.735 51.1605C150.818 50.5038 150.773 49.8359 150.603 49.1988C150.434 48.5616 150.144 47.9691 149.751 47.4584C149.359 46.9476 148.872 46.5298 148.322 46.2311C147.772 45.9324 147.171 45.7593 146.555 45.7226H146.384C144.213 45.5897 142.036 45.5897 139.865 45.7226C139.148 45.7955 138.438 45.9069 137.809 46.0269C136.996 46.1815 136.246 46.5951 135.655 47.214C135.064 47.8329 134.659 48.6286 134.494 49.4978Z" fill="black"/>
<path opacity="0.2" d="M138.02 56.3582L135.956 54.8499C133.964 55.5483 133.86 57.6309 133.964 60.6391C135.677 60.1763 137.65 58.428 138.02 56.3582Z" fill="black"/>
<path opacity="0.2" d="M137.657 144.508L137.761 148.189H140.63L140.526 144.508H137.657Z" fill="black"/>
<path d="M146.456 35.0697C146.129 38.1122 146.081 39.9119 144.571 41.416C142.3 43.6743 138.869 42.1273 138.343 39.0506C137.869 36.2824 138.482 31.7659 141.319 30.6732C141.939 30.4258 142.607 30.3546 143.259 30.4666C143.911 30.5785 144.525 30.8697 145.042 31.312C145.559 31.7543 145.96 32.3327 146.208 32.9911C146.456 33.6494 146.541 34.3654 146.456 35.0697Z" fill="#B55B52"/>
<path d="M140.415 36.3724C139.534 36.5866 139.136 34.3541 140.016 33.497C139.219 33.0685 138.068 32.4472 137.685 31.513C137.243 30.4417 138.438 29.1562 139.471 29.2119C139.136 28.4963 139.869 26.5851 141.973 27.305C144.077 28.0249 145.065 29.139 145.065 29.139C145.065 29.139 145.758 26.6622 147.221 28.6634C148.516 30.4374 148.018 31.9587 148.018 31.9587C148.018 31.9587 149.946 33.9256 149.448 35.3868C149.17 36.2416 148.6 36.9509 147.854 37.3708C147.854 37.3708 148.145 40.7989 145.802 41.656C143.459 42.513 141.981 40.7989 142.18 39.7962C140.666 39.8519 139.12 37.7093 140.415 36.3724Z" fill="#263238"/>
<path d="M141.435 36.1453C141.329 36.8998 140.999 37.5972 140.495 38.1337C139.821 38.8321 139.2 38.3308 139.148 37.4266C139.1 36.6124 139.395 35.284 140.184 34.9069C140.973 34.5298 141.543 35.2369 141.435 36.1453Z" fill="#B55B52"/>
<path d="M165.064 147.756L162.514 148.742L159.98 141.684L162.53 140.703L165.064 147.756Z" fill="#B55B52"/>
<path d="M161.383 149.187C161.096 149.432 160.785 149.616 160.586 149.565C160.535 149.546 160.492 149.512 160.46 149.466C160.429 149.42 160.412 149.364 160.41 149.307C160.404 149.258 160.408 149.208 160.42 149.16C160.432 149.113 160.453 149.068 160.482 149.029C160.781 148.6 161.913 148.42 161.96 148.416C161.974 148.414 161.988 148.416 162.001 148.422C162.014 148.428 162.025 148.438 162.032 148.45C162.039 148.463 162.043 148.478 162.043 148.493C162.043 148.508 162.039 148.523 162.032 148.536C161.833 148.772 161.616 148.99 161.383 149.187ZM160.689 149.016C160.652 149.044 160.619 149.078 160.594 149.119C160.559 149.166 160.544 149.226 160.55 149.286C160.55 149.389 160.602 149.415 160.629 149.423C160.845 149.492 161.426 149.016 161.793 148.596C161.403 148.657 161.028 148.8 160.689 149.016Z" fill="#1D334A"/>
<path d="M162.016 148.545C162.008 148.548 162 148.548 161.992 148.545C161.626 148.643 160.709 148.571 160.554 148.258C160.518 148.185 160.502 148.069 160.637 147.928C160.686 147.877 160.743 147.838 160.806 147.812C160.869 147.786 160.937 147.775 161.004 147.778C161.47 147.778 162 148.399 162.024 148.425C162.03 148.435 162.033 148.447 162.033 148.459C162.033 148.471 162.03 148.483 162.024 148.493C162.026 148.502 162.027 148.511 162.025 148.52C162.024 148.529 162.021 148.537 162.016 148.545ZM160.761 148.018C160.749 148.025 160.738 148.036 160.729 148.048C160.641 148.138 160.665 148.185 160.673 148.202C160.765 148.386 161.426 148.493 161.833 148.442C161.612 148.183 161.32 148.006 161 147.936C160.914 147.931 160.829 147.96 160.761 148.018Z" fill="#1D334A"/>
<path d="M162.028 147.987L164.491 145.905C164.536 145.867 164.592 145.847 164.65 145.847C164.708 145.847 164.764 145.867 164.809 145.905L166.925 147.619C166.976 147.659 167.016 147.711 167.045 147.771C167.073 147.831 167.087 147.897 167.087 147.964C167.087 148.031 167.073 148.097 167.045 148.157C167.016 148.217 166.976 148.269 166.925 148.309C166.025 149.042 164.287 150.55 163.228 151.561C161.988 152.748 162.953 151.956 161.498 153.348C160.618 154.205 159.542 153.502 159.837 153.07C161.167 151.09 161.45 149.912 161.626 148.647C161.675 148.379 161.819 148.142 162.028 147.987Z" fill="#263238"/>
<path d="M120.145 57.1511L119.025 54.5586L115.977 56.5855C115.977 56.5855 116.981 58.7923 119.061 58.5523L120.145 57.1511Z" fill="#B55B52"/>
<path d="M116.16 53.8558L115.478 54.4857C115.374 54.5821 115.29 54.7011 115.231 54.8349C115.172 54.9687 115.14 55.1143 115.137 55.2622C115.134 55.4102 115.16 55.5571 115.214 55.6936C115.267 55.83 115.346 55.9528 115.447 56.0541L115.977 56.5854L119.025 54.5585L117.196 53.7015C117.027 53.6199 116.84 53.5911 116.657 53.6184C116.474 53.6457 116.302 53.728 116.16 53.8558Z" fill="#B55B52"/>
<path opacity="0.2" d="M159.98 141.684L161.287 145.322L163.837 144.341L162.53 140.703L159.98 141.684Z" fill="black"/>
<path d="M140.399 73.2159C140.399 73.2159 145.181 96.8999 147.014 105.693C149.006 115.317 159.562 144.589 159.562 144.589L164.192 141.89C164.192 141.89 159.239 118.926 155.621 106.4C154.306 96.0472 150.293 73.2159 150.293 73.2159H140.399Z" fill="#263238"/>
<path d="M158.259 143.124C158.235 143.124 159.207 145.056 159.207 145.056L164.937 142.743L164.483 140.861L158.259 143.124Z" fill="#1D334A"/>
<path opacity="0.3" d="M143.228 84.1945C146.838 84.713 147.245 98.3869 147.177 106.413C147.129 106.16 147.073 105.92 147.03 105.693C146.029 100.889 144.153 91.6421 142.646 84.2374C142.835 84.1766 143.034 84.1619 143.228 84.1945Z" fill="black"/>
<path d="M134.96 73.2159C134.96 73.2159 133.74 96.27 133.94 105.672C134.147 115.455 136.701 147.478 136.701 147.478H141.559C141.559 147.478 142.355 116.025 142.682 106.422C143.045 95.9486 145.041 73.2159 145.041 73.2159H134.96Z" fill="#263238"/>
<path d="M135.793 145.395C135.769 145.395 136.04 147.564 136.04 147.564H141.949L142.132 145.631L135.793 145.395Z" fill="#1D334A"/>
<path d="M139.092 51.0919C138.429 52.3605 137.69 53.5815 136.88 54.7471C136.077 55.8972 135.214 56.9974 134.294 58.0424C133.386 59.0837 132.426 60.0693 131.441 61.0034C130.457 61.9376 129.429 62.8289 128.505 63.6474L128.178 63.9388L127.907 64.0416C127.247 64.2947 126.542 64.3783 125.847 64.2859C125.276 64.218 124.716 64.0711 124.181 63.8488C123.284 63.4408 122.441 62.9062 121.675 62.259C120.967 61.6675 120.301 61.02 119.682 60.3221C119.379 59.9836 119.093 59.6279 118.81 59.2722C118.527 58.9166 118.264 58.5566 117.989 58.1495L119.563 56.5683C120.172 57.0568 120.83 57.5882 121.487 58.0424C122.122 58.5086 122.779 58.9377 123.456 59.3279C124.057 59.6846 124.695 59.9637 125.357 60.1593C125.602 60.2307 125.856 60.2639 126.11 60.2578C126.243 60.2593 126.374 60.2207 126.488 60.1464L125.895 60.5406C126.867 59.5636 127.747 58.6895 128.624 57.7682C129.501 56.8468 130.326 55.9127 131.119 54.9485C131.911 53.9844 132.669 52.9902 133.366 51.9489C134.063 50.9076 134.709 49.8621 135.318 48.7908L139.092 51.0919Z" fill="#B65B52"/>
<path d="M141.132 50.4448C140.857 54.8799 136.127 58.5866 136.127 58.5866L129.991 54.9656C129.991 54.9656 132.25 49.7421 135.295 47.2738C139.06 44.2442 141.339 47.0681 141.132 50.4448Z" fill="#1D334A"/>
<path opacity="0.2" d="M141.132 50.4448C140.857 54.8799 136.127 58.5866 136.127 58.5866L129.991 54.9656C129.991 54.9656 132.25 49.7421 135.295 47.2738C139.06 44.2442 141.339 47.0681 141.132 50.4448Z" fill="black"/>
</svg>
