<svg width="185" height="157" viewBox="0 0 185 157" fill="none" xmlns="http://www.w3.org/2000/svg">
<path d="M27.2862 141.227C63.3071 161.22 121.712 161.22 157.733 141.227C193.754 121.234 193.754 88.8187 157.733 68.8216C121.712 48.8245 63.3236 48.8289 27.2862 68.8216C-8.75119 88.8144 -8.71824 121.234 27.2862 141.227Z" fill="#F5F5F5"/>
<path d="M17.2451 108.44L5.53607 101.259V74.5758L17.2451 81.7608V108.44Z" fill="#E0E0E0"/>
<path d="M17.2451 81.7606L33.9747 71.4995V98.1784L17.2451 108.439V81.7606Z" fill="#EBEBEB"/>
<path d="M33.9747 71.4995L17.2451 81.7606L5.53607 74.5757L22.2657 64.3146L33.9747 71.4995Z" fill="#F5F5F5"/>
<path d="M18.9214 82.7847L32.3025 74.5758L32.6114 74.764V84.6488L19.2261 92.8576L18.9172 92.6695L18.9214 82.7847Z" fill="#E0E0E0"/>
<path d="M19.2261 82.9771L32.6114 74.7638V84.6486L19.2261 92.8575V82.9771Z" fill="#F5F5F5"/>
<path d="M24.4732 81.4325L26.7508 80.0366C27.0432 79.8528 27.2821 79.936 27.2821 80.2204C27.2609 80.3946 27.2018 80.5612 27.1096 80.707C27.0174 80.8528 26.8946 80.9738 26.7508 81.0605L24.4732 82.4564C24.1767 82.6402 23.9378 82.557 23.9378 82.2726C23.9592 82.0979 24.0187 81.9309 24.1117 81.785C24.2046 81.6392 24.3285 81.5184 24.4732 81.4325Z" fill="#E0E0E0"/>
<path d="M18.6125 95.2904L31.9937 87.0815V96.9663L32.3026 97.1545L18.9173 105.363L18.6125 105.175V95.2904Z" fill="#E0E0E0"/>
<path d="M18.9172 95.4784L32.3026 87.2695V97.1543L18.9172 105.363V95.4784Z" fill="#F5F5F5"/>
<path d="M24.1644 93.9383L26.4625 92.5469C26.759 92.3631 26.9979 92.4462 26.9979 92.7306C26.9766 92.9054 26.917 93.0723 26.8241 93.2182C26.7311 93.3641 26.6073 93.4848 26.4625 93.5708L24.1849 94.9666C23.8884 95.1504 23.6495 95.0673 23.6495 94.7829C23.668 94.6094 23.7242 94.4428 23.8135 94.2963C23.9028 94.1498 24.0229 94.0272 24.1644 93.9383Z" fill="#E0E0E0"/>
<path d="M17.2451 80.2204L5.53607 73.0354V46.3566L17.2451 53.5372V80.2204Z" fill="#E0E0E0"/>
<path d="M17.2451 53.5372L33.9747 43.2761V69.9594L17.2451 80.2205V53.5372Z" fill="#EBEBEB"/>
<path d="M33.9747 43.276L17.2451 53.5371L5.53604 46.3566L22.2656 36.0955L33.9747 43.276Z" fill="#F5F5F5"/>
<path d="M18.9172 54.5654L32.3025 46.3566L32.6114 46.5447V56.4295L19.2261 64.6384L18.9172 64.4459V54.5654Z" fill="#E0E0E0"/>
<path d="M24.4732 53.2092L26.7467 51.8133C27.0432 51.6339 27.2821 51.717 27.2821 52.0015C27.2601 52.176 27.2003 52.3427 27.1074 52.4884C27.0145 52.6342 26.891 52.7551 26.7467 52.8416L24.4732 54.2375C24.1767 54.4169 23.9378 54.3381 23.9378 54.0537C23.9595 53.8785 24.0191 53.7111 24.112 53.5645C24.2049 53.418 24.3286 53.2963 24.4732 53.2092Z" fill="#E0E0E0"/>
<path d="M18.6125 67.0713L31.9937 58.8624V68.7428L32.3026 68.931L18.9173 77.1399L18.6125 76.9517V67.0713Z" fill="#E0E0E0"/>
<path d="M18.9172 67.2594L32.3026 59.0505V68.9309L18.9172 77.1398V67.2594Z" fill="#F5F5F5"/>
<path d="M24.1643 65.7148L26.4625 64.3189C26.7549 64.1395 26.9979 64.2226 26.9979 64.5071C26.9747 64.6812 26.9144 64.8473 26.8216 64.9929C26.7289 65.1385 26.606 65.2597 26.4625 65.3472L24.1643 66.7299C23.8678 66.9093 23.6289 66.8262 23.6289 66.5462C23.6524 66.3733 23.7129 66.2085 23.8057 66.0644C23.8985 65.9202 24.0212 65.8006 24.1643 65.7148Z" fill="#E0E0E0"/>
<path d="M18.9172 54.5654L32.3026 46.3566V56.237L18.9172 64.4459V54.5654Z" fill="#E0E0E0"/>
<path d="M38.9952 51.24L31.6683 46.7461V55.4538L38.9952 59.9433V51.24Z" fill="#E0E0E0"/>
<path d="M23.9378 65.8549V53.5372L26.8084 51.7694L27.2821 52.5132L35.6469 47.3805V58.6699L23.9378 65.8549Z" fill="#EBEBEB"/>
<path d="M23.9378 65.8549L24.7739 55.0774L36.4829 47.8969L35.6469 58.6699L23.9378 65.8549Z" fill="#F5F5F5"/>
<path d="M25.6099 59.4488L19.2261 55.5325V64.2402L25.6099 68.1521V59.4488Z" fill="#EBEBEB"/>
<path d="M25.61 58.6698L38.9953 50.4609V60.3413L25.61 68.5502V58.6698Z" fill="#F5F5F5"/>
<path d="M30.857 57.1253L33.1305 55.7294C33.427 55.55 33.6659 55.6332 33.6659 55.9176C33.6436 56.092 33.5837 56.2586 33.4908 56.4043C33.3979 56.55 33.2746 56.671 33.1305 56.7577L30.857 58.1536C30.5605 58.333 30.3216 58.2499 30.3216 57.9698C30.3433 57.7946 30.4029 57.6272 30.4958 57.4807C30.5887 57.3341 30.7124 57.2125 30.857 57.1253Z" fill="#E0E0E0"/>
<path d="M25.61 58.67L25.1652 58.3987V68.2791L25.61 68.5504V58.67Z" fill="#E0E0E0"/>
<path d="M25.1652 58.3987L38.5464 50.1854L38.9953 50.4611L25.61 58.67L25.1652 58.3987Z" fill="#EBEBEB"/>
<path d="M155.579 92.2754L143.866 85.0905V58.4116L155.579 65.5922V92.2754Z" fill="#E0E0E0"/>
<path d="M155.579 65.5923L172.309 55.3312V82.0144L155.579 92.2755V65.5923Z" fill="#EBEBEB"/>
<path d="M172.309 55.3312L155.579 65.5923L143.866 58.4117L160.6 48.1462L172.309 55.3312Z" fill="#F5F5F5"/>
<path d="M157.251 66.6205L170.637 58.4116L170.946 58.5998L170.941 68.4802L157.56 76.6891L157.251 76.5009V66.6205Z" fill="#E0E0E0"/>
<path d="M157.56 66.8087L170.946 58.5999L170.941 68.4803L157.56 76.6891V66.8087Z" fill="#F5F5F5"/>
<path d="M162.807 65.264L165.081 63.8682C165.377 63.6888 165.616 63.7719 165.616 64.052C165.595 64.2271 165.535 64.3946 165.442 64.5411C165.349 64.6877 165.225 64.8093 165.081 64.8965L162.807 66.2923C162.511 66.4717 162.272 66.3886 162.272 66.1086C162.294 65.9334 162.353 65.7659 162.446 65.6194C162.539 65.4729 162.663 65.3512 162.807 65.264Z" fill="#E0E0E0"/>
<path d="M156.942 79.1266L170.328 70.9133V80.7981L170.637 80.9863L157.251 89.1952L156.942 89.007V79.1266Z" fill="#E0E0E0"/>
<path d="M157.251 79.3147L170.637 71.1058V80.9862L157.251 89.1951V79.3147Z" fill="#F5F5F5"/>
<path d="M162.498 77.77L164.776 76.3742C165.068 76.1948 165.307 76.2779 165.307 76.558C165.285 76.7325 165.226 76.8994 165.134 77.0459C165.042 77.1923 164.919 77.3143 164.776 77.4025L162.498 78.7983C162.202 78.9777 161.963 78.8946 161.963 78.6102C161.985 78.4358 162.045 78.2692 162.138 78.1235C162.231 77.9777 162.354 77.8568 162.498 77.77Z" fill="#E0E0E0"/>
<path d="M44.1722 120.162C44.1722 120.162 44.2175 113.222 40.099 108.019C36.454 103.412 34.5142 100.489 35.6633 99.141C36.8123 97.7933 39.2835 97.4695 42.6154 101.198C45.9473 104.926 46.2068 115.252 45.7455 117.589L44.1722 120.162Z" fill="#1D334A"/>
<path opacity="0.2" d="M44.1722 120.162C44.1722 120.162 44.2175 113.222 40.099 108.019C36.454 103.412 34.5142 100.489 35.6633 99.141C36.8123 97.7933 39.2835 97.4695 42.6154 101.198C45.9473 104.926 46.2068 115.252 45.7455 117.589L44.1722 120.162Z" fill="black"/>
<path d="M44.8641 112.702C44.8172 112.702 44.7717 112.685 44.735 112.654C44.6983 112.623 44.6726 112.58 44.6623 112.531C43.2208 105.368 39.5224 101.408 37.4425 99.6838C37.3994 99.6483 37.3714 99.5962 37.3644 99.5387C37.3575 99.4813 37.3722 99.4233 37.4054 99.3775C37.4395 99.3314 37.4893 99.3015 37.544 99.2941C37.5988 99.2868 37.654 99.3025 37.6978 99.3381C39.8189 101.088 43.5956 105.14 45.0659 112.439C45.072 112.467 45.0727 112.496 45.0681 112.524C45.0634 112.552 45.0535 112.579 45.0389 112.603C45.0244 112.627 45.0054 112.648 44.9831 112.664C44.9609 112.68 44.9358 112.692 44.9094 112.697L44.8641 112.702Z" fill="white"/>
<path d="M44.0157 122.739L42.3395 123.768C42.1607 123.249 41.8591 122.787 41.4639 122.428C41.0686 122.068 40.5929 121.823 40.0825 121.716C38.2498 121.278 36.347 121.352 35.062 119.663C33.777 117.974 35.3421 116.137 35.062 114.894C34.7819 113.651 34.6007 113.292 32.3026 112.05C30.0044 110.807 29.0983 108.746 30.8281 107.35C32.5579 105.954 35.3585 106.978 37.0554 108.225C38.5628 109.319 39.996 109.608 41.6805 109.831C43.365 110.054 46.108 111.048 45.6879 115.204C45.4128 117.778 44.8515 120.307 44.0157 122.739Z" fill="#1D334A"/>
<path d="M37.5826 117.279C37.5387 117.278 37.496 117.263 37.4606 117.236C37.4251 117.208 37.3986 117.17 37.3849 117.125C37.3693 117.07 37.3748 117.01 37.4001 116.958C37.4255 116.907 37.4688 116.868 37.5208 116.85C37.6691 116.802 41.2275 115.603 42.739 116.889C42.7765 116.927 42.7994 116.978 42.8031 117.033C42.8067 117.087 42.791 117.141 42.7589 117.184C42.7268 117.227 42.6807 117.256 42.6297 117.264C42.5787 117.273 42.5266 117.261 42.4836 117.23C41.1492 116.093 37.6814 117.257 37.6443 117.27L37.5826 117.279Z" fill="white"/>
<path d="M44.2011 122.407C44.1509 122.407 44.1025 122.388 44.0652 122.352C44.0279 122.316 44.0044 122.267 43.9992 122.214C43.0808 112.999 32.632 108.628 32.5291 108.584C32.5035 108.574 32.4802 108.558 32.4603 108.538C32.4404 108.518 32.4245 108.495 32.4134 108.468C32.4023 108.442 32.3962 108.413 32.3956 108.384C32.3949 108.355 32.3997 108.326 32.4096 108.299C32.4299 108.246 32.4685 108.204 32.5176 108.18C32.5666 108.156 32.6223 108.154 32.6732 108.173C32.7844 108.221 43.4638 112.684 44.407 122.175C44.4128 122.232 44.397 122.29 44.363 122.335C44.3291 122.38 44.2797 122.409 44.2258 122.416L44.2011 122.407Z" fill="white"/>
<path d="M146.642 116.688C146.687 116.535 148.454 106.873 146.642 100.021C144.995 93.737 142.845 91.4179 139.78 90.9059C136.716 90.3939 135.386 92.7393 137.013 95.9161C138.64 99.0929 142.556 103.307 143.516 110.404C143.928 113.327 144.241 115.865 144.241 115.865L146.642 116.688Z" fill="#1D334A"/>
<path opacity="0.2" d="M146.642 116.688C146.687 116.535 148.454 106.873 146.642 100.021C144.995 93.737 142.845 91.4179 139.78 90.9059C136.716 90.3939 135.386 92.7393 137.013 95.9161C138.64 99.0929 142.556 103.307 143.516 110.404C143.928 113.327 144.241 115.865 144.241 115.865L146.642 116.688Z" fill="black"/>
<path d="M145.608 111.139C145.581 111.138 145.555 111.13 145.53 111.118C145.506 111.105 145.484 111.088 145.466 111.066C145.448 111.045 145.434 111.019 145.425 110.992C145.417 110.965 145.413 110.936 145.415 110.907C145.826 103.084 143.421 96.0999 139.109 92.6737C139.065 92.6389 139.037 92.5871 139.029 92.5297C139.021 92.4722 139.035 92.4139 139.068 92.3674C139.101 92.322 139.15 92.292 139.204 92.2839C139.258 92.2757 139.312 92.29 139.356 92.3237C143.775 95.8243 146.255 102.965 145.822 110.934C145.819 110.991 145.795 111.045 145.755 111.083C145.715 111.122 145.662 111.142 145.608 111.139Z" fill="white"/>
<path d="M151.382 121.72C151.148 119.921 152.12 117.226 154.43 116.587C156.741 115.948 157.77 114.539 156.938 112.999C156.106 111.459 156.3 110.045 158.396 109.406C160.493 108.768 162.33 107.656 161.123 105.302C160.246 103.6 160.052 102.497 162.202 99.1454C163.985 96.3624 162.527 94.7303 160.295 95.0366C158.063 95.3429 156.683 98.1696 155.287 98.6422C153.891 99.1148 153.569 96.5943 151.728 97.7233C149.887 98.8522 149.999 101.745 149.941 103.762C149.883 105.779 149.76 106.234 148.096 105.989C146.432 105.744 144.801 106.033 144.838 110.308C144.867 113.975 146.708 118.517 146.708 118.517L151.382 121.72Z" fill="#1D334A"/>
<path d="M148.462 118.985H148.442C148.387 118.978 148.336 118.949 148.302 118.903C148.267 118.857 148.251 118.798 148.256 118.74C149.418 107.717 158.322 98.4189 160.645 96.533C160.689 96.4976 160.744 96.4821 160.798 96.4899C160.853 96.4977 160.902 96.5281 160.935 96.5746C160.969 96.621 160.983 96.6796 160.976 96.7374C160.969 96.7953 160.94 96.8477 160.896 96.8831C158.602 98.7427 149.813 107.919 148.668 118.788C148.662 118.842 148.638 118.891 148.6 118.928C148.562 118.964 148.513 118.984 148.462 118.985Z" fill="white"/>
<path d="M152.523 107.201C152.482 107.201 152.441 107.188 152.406 107.163C152.372 107.138 152.345 107.102 152.33 107.061C152.312 107.006 152.315 106.946 152.338 106.893C152.361 106.84 152.402 106.798 152.453 106.777C155.773 105.464 159.537 106.085 159.698 106.112C159.751 106.121 159.799 106.153 159.83 106.2C159.862 106.246 159.875 106.304 159.867 106.361C159.857 106.418 159.827 106.468 159.783 106.502C159.74 106.536 159.686 106.551 159.632 106.545C159.595 106.545 155.814 105.915 152.597 107.188C152.573 107.197 152.548 107.201 152.523 107.201Z" fill="white"/>
<path d="M149.566 113.826C149.537 113.826 149.509 113.819 149.482 113.806C149.456 113.793 149.433 113.775 149.414 113.752C148.033 112.044 147.097 109.981 146.7 107.77C146.696 107.742 146.697 107.713 146.703 107.685C146.71 107.657 146.721 107.63 146.737 107.607C146.753 107.584 146.774 107.565 146.797 107.55C146.82 107.535 146.846 107.525 146.873 107.521C146.899 107.516 146.927 107.518 146.953 107.525C146.979 107.531 147.004 107.544 147.026 107.561C147.048 107.578 147.066 107.599 147.08 107.624C147.094 107.649 147.103 107.676 147.107 107.704C147.501 109.829 148.402 111.81 149.723 113.459C149.748 113.491 149.765 113.53 149.771 113.572C149.776 113.614 149.77 113.656 149.754 113.695C149.737 113.733 149.711 113.766 149.678 113.789C149.645 113.813 149.606 113.825 149.566 113.826Z" fill="white"/>
<path d="M44.0157 55.0162V122.744L109.262 82.7233L109.258 21.1523L60.7453 50.9117L59.069 45.779L44.0157 55.0162Z" fill="#1D334A"/>
<path opacity="0.7" d="M44.0157 55.0162V122.744L109.262 82.7233L109.258 21.1523L60.7453 50.9117L59.069 45.779L44.0157 55.0162Z" fill="black"/>
<path d="M44.0157 122.744L47.36 61.1728L112.606 21.1523L109.262 82.7233L44.0157 122.744Z" fill="#E0E0E0"/>
<path d="M44.0157 122.744L49.0321 62.2011L114.278 22.1763L109.262 82.7233L44.0157 122.744Z" fill="#1D334A"/>
<path opacity="0.7" d="M44.0157 122.744L49.0321 62.2011L114.278 22.1763L109.262 82.7233L44.0157 122.744Z" fill="black"/>
<path d="M54.0526 61.1729V128.905L119.299 88.8801V27.3091L70.7822 57.0685L69.1101 51.9357L54.0526 61.1729Z" fill="#1D334A"/>
<path opacity="0.5" d="M54.0526 61.1729V128.905L119.299 88.8801V27.3091L70.7822 57.0685L69.1101 51.9357L54.0526 61.1729Z" fill="black"/>
<path d="M54.0526 128.905L57.3969 67.3296L122.643 27.3091L119.299 88.8801L54.0526 128.905Z" fill="#E0E0E0"/>
<path d="M54.0526 128.905L59.069 68.3579L124.315 28.333L119.299 88.8801L54.0526 128.905Z" fill="#1D334A"/>
<path opacity="0.5" d="M54.0526 128.905L59.069 68.3579L124.315 28.333L119.299 88.8801L54.0526 128.905Z" fill="black"/>
<path d="M109.245 150.455C97.5323 143.27 86.6675 135.46 81.7088 126.297L96.7827 117.051L109.245 150.455Z" fill="#E0E0E0"/>
<path d="M65.7617 68.3578V136.085L131.008 96.065V34.494L82.4913 64.2534L80.8192 59.1207L65.7617 68.3578Z" fill="#1D334A"/>
<path opacity="0.2" d="M65.7617 68.3578V136.085L131.008 96.065V34.494L82.4913 64.2534L80.8192 59.1207L65.7617 68.3578Z" fill="black"/>
<path d="M84.5588 88.3811C84.394 88.3811 84.3693 88.1799 84.3693 88.0617V30.302C84.3825 30.0779 84.4445 29.8602 84.5502 29.6658C84.656 29.4715 84.8027 29.3058 84.9789 29.1818L132.07 0.301947C132.135 0.259211 132.209 0.235077 132.285 0.231934C132.449 0.231934 132.474 0.433219 132.474 0.551364V58.3111C132.461 58.5358 132.399 58.7543 132.294 58.9494C132.188 59.1446 132.041 59.311 131.865 59.4356L84.7729 88.3155C84.7079 88.3562 84.6342 88.3787 84.5588 88.3811Z" fill="white"/>
<path d="M132.26 0.433267C132.263 0.465258 132.263 0.497542 132.26 0.529534V58.2892C132.246 58.4755 132.194 58.6563 132.106 58.8183C132.019 58.9803 131.898 59.1194 131.753 59.2257L84.6617 88.1055L84.5794 88.1449C84.5739 88.1131 84.5739 88.0804 84.5794 88.0486V30.2889C84.5935 30.1034 84.6463 29.9235 84.7339 29.7623C84.8215 29.6011 84.9418 29.4626 85.0859 29.3569L132.178 0.477024C132.204 0.457721 132.233 0.444316 132.264 0.437643L132.26 0.433267ZM132.289 6.99043e-05C132.177 0.00361739 132.067 0.0383175 131.972 0.100713L84.88 28.9806C84.673 29.125 84.5007 29.319 84.377 29.547C84.2533 29.775 84.1815 30.0306 84.1675 30.2933V88.053C84.1675 88.3943 84.3281 88.5912 84.5794 88.5912C84.6916 88.5881 84.801 88.5534 84.8965 88.4906L131.988 59.6107C132.196 59.4673 132.369 59.2735 132.493 59.0453C132.617 58.8172 132.688 58.561 132.701 58.298V0.538287C132.701 0.196979 132.54 -0.00430583 132.289 6.99043e-05Z" fill="#1D334A"/>
<path opacity="0.7" d="M132.26 0.433267C132.263 0.465258 132.263 0.497542 132.26 0.529534V58.2892C132.246 58.4755 132.194 58.6563 132.106 58.8183C132.019 58.9803 131.898 59.1194 131.753 59.2257L84.6617 88.1055L84.5794 88.1449C84.5739 88.1131 84.5739 88.0804 84.5794 88.0486V30.2889C84.5935 30.1034 84.6463 29.9235 84.7339 29.7623C84.8215 29.6011 84.9418 29.4626 85.0859 29.3569L132.178 0.477024C132.204 0.457721 132.233 0.444316 132.264 0.437643L132.26 0.433267ZM132.289 6.99043e-05C132.177 0.00361739 132.067 0.0383175 131.972 0.100713L84.88 28.9806C84.673 29.125 84.5007 29.319 84.377 29.547C84.2533 29.775 84.1815 30.0306 84.1675 30.2933V88.053C84.1675 88.3943 84.3281 88.5912 84.5794 88.5912C84.6916 88.5881 84.801 88.5534 84.8965 88.4906L131.988 59.6107C132.196 59.4673 132.369 59.2735 132.493 59.0453C132.617 58.8172 132.688 58.561 132.701 58.298V0.538287C132.701 0.196979 132.54 -0.00430583 132.289 6.99043e-05Z" fill="white"/>
<path d="M89.1839 32.4943L105.914 22.2332V42.7554L89.1839 53.0165V32.4943Z" fill="#1D334A"/>
<path opacity="0.8" d="M89.1839 32.4943L105.914 22.2332V42.7554L89.1839 53.0165V32.4943Z" fill="white"/>
<path d="M103.405 27.3484V33.5182L102.878 33.8289V31.9429C102.878 30.9015 102.083 30.5471 101.095 31.1509L94.0068 35.5048C93.0225 36.1086 92.2235 37.4432 92.2235 38.4846V40.3706L91.7004 40.7031V34.5465L103.405 27.3484Z" fill="white"/>
<path d="M100.185 43.0571C99.3279 43.5822 98.6319 43.0309 98.6319 41.8188V31.9427L96.4779 33.1855V43.1403C96.4779 44.348 95.7819 45.7657 94.9252 46.2777L93.3684 47.2316V47.8879L101.733 42.7552V42.1032L100.185 43.0571Z" fill="white"/>
<path d="M109.245 21.2223C109.245 21.7911 109.727 21.9531 110.316 21.5942L126.593 11.5957C126.882 11.4218 127.129 11.1792 127.314 10.8869C127.5 10.5946 127.62 10.2606 127.664 9.91103C127.664 9.34656 127.182 9.18028 126.593 9.54346L110.329 19.5201C110.035 19.6937 109.784 19.9382 109.596 20.2339C109.408 20.5296 109.288 20.8682 109.245 21.2223Z" fill="#455A64"/>
<path d="M109.245 27.3484C109.245 27.9172 109.727 28.0835 110.316 27.7203L126.58 17.7436C126.869 17.5697 127.116 17.3271 127.302 17.0348C127.488 16.7426 127.607 16.4086 127.651 16.059C127.651 15.4945 127.169 15.3282 126.58 15.6914L110.316 25.6681C110.028 25.8416 109.781 26.0835 109.596 26.375C109.41 26.6664 109.29 26.9996 109.245 27.3484Z" fill="#455A64"/>
<path d="M109.245 33.5183C109.245 34.0872 109.727 34.2535 110.316 33.8903L126.58 23.9136C126.869 23.7401 127.115 23.4982 127.301 23.2067C127.487 22.9153 127.607 22.5821 127.651 22.2333C127.651 21.6645 127.169 21.4982 126.58 21.8614L110.316 31.8381C110.028 32.0115 109.781 32.2535 109.596 32.5449C109.41 32.8364 109.29 33.1695 109.245 33.5183Z" fill="#455A64"/>
<path d="M109.245 39.6747C109.245 40.2436 109.727 40.4098 110.316 40.0466L126.58 30.07C126.869 29.8965 127.115 29.6546 127.301 29.3631C127.487 29.0716 127.607 28.7385 127.651 28.3897C127.651 27.8208 127.169 27.6546 126.58 28.0177L110.316 37.9944C110.028 38.1679 109.781 38.4098 109.596 38.7013C109.41 38.9928 109.29 39.3259 109.245 39.6747Z" fill="#455A64"/>
<path d="M89.1839 58.1492C89.1839 58.718 89.6617 58.8843 90.2548 58.5211L126.593 36.2049C126.881 36.0319 127.128 35.7901 127.314 35.4986C127.5 35.207 127.62 34.8736 127.664 34.5246C127.664 33.9557 127.182 33.7938 126.593 34.1527L90.2548 56.4689C89.9659 56.6416 89.7187 56.8833 89.5329 57.1749C89.347 57.4665 89.2276 57.8001 89.1839 58.1492Z" fill="#455A64"/>
<path d="M89.1839 64.3059C89.1839 64.8747 89.6617 65.041 90.2548 64.6778L126.593 42.3878C126.882 42.2139 127.129 41.9713 127.314 41.679C127.5 41.3867 127.62 41.0527 127.664 40.7031C127.664 40.1387 127.182 39.9724 126.593 40.3356L90.2548 62.6256C89.9659 62.7983 89.7187 63.04 89.5329 63.3316C89.347 63.6232 89.2276 63.9567 89.1839 64.3059Z" fill="#455A64"/>
<path d="M89.1839 70.4667C89.1839 71.0312 89.6617 71.1975 90.2548 70.8343L126.593 48.5443C126.882 48.3704 127.129 48.1278 127.314 47.8355C127.5 47.5432 127.62 47.2092 127.664 46.8596C127.664 46.2952 127.182 46.1289 126.593 46.4921L90.2548 68.7821C89.9654 68.9552 89.7179 69.1976 89.532 69.49C89.3461 69.7824 89.227 70.1168 89.1839 70.4667Z" fill="#455A64"/>
<path d="M65.7617 136.085L77.4708 81.6994L142.717 41.6746L131.008 96.065L65.7617 136.085Z" fill="#1D334A"/>
<path d="M81.7253 85.9569V126.297L96.7827 117.06V76.7241L81.7253 85.9569Z" fill="#1D334A"/>
<path opacity="0.2" d="M81.7253 85.9569V126.297L96.7827 117.06V76.7241L81.7253 85.9569Z" fill="black"/>
<path d="M109.274 150.193C107.993 149.178 95.646 139.153 89.3693 124.814C82.689 109.569 82.6972 91.7855 82.6972 85.095V84.885L127.458 57.4316C127.458 64.1834 127.458 81.9926 134.167 97.2902C140.299 111.293 152.173 121.19 154.055 122.704L109.274 150.193Z" fill="white"/>
<path d="M127.252 57.8254C127.252 64.8616 127.379 82.3296 133.982 97.3996C139.908 110.921 151.176 120.644 153.685 122.696L109.287 149.93C107.553 148.543 95.6707 138.685 89.5587 124.739C82.8867 109.538 82.8867 91.7899 82.8867 85.1082V85.025L127.235 57.8211L127.252 57.8254ZM127.647 57.0641L82.4748 84.7756C82.4748 91.0723 82.3513 109.367 89.1675 124.923C95.8766 140.19 109.245 150.455 109.245 150.455L154.43 122.739C154.43 122.739 141.045 112.474 134.356 97.2071C127.536 81.6513 127.664 63.3564 127.664 57.0597L127.647 57.0641Z" fill="#1D334A"/>
<path opacity="0.7" d="M127.252 57.8254C127.252 64.8616 127.379 82.3296 133.982 97.3996C139.908 110.921 151.176 120.644 153.685 122.696L109.287 149.93C107.553 148.543 95.6707 138.685 89.5587 124.739C82.8867 109.538 82.8867 91.7899 82.8867 85.1082V85.025L127.235 57.8211L127.252 57.8254ZM127.647 57.0641L82.4748 84.7756C82.4748 91.0723 82.3513 109.367 89.1675 124.923C95.8766 140.19 109.245 150.455 109.245 150.455L154.43 122.739C154.43 122.739 141.045 112.474 134.356 97.2071C127.536 81.6513 127.664 63.3564 127.664 57.0597L127.647 57.0641Z" fill="white"/>
<path d="M122.552 66.3582L108.269 75.1097C107.983 75.2769 107.74 75.5149 107.559 75.8037C107.378 76.0924 107.266 76.4233 107.231 76.7681C107.252 77.3238 107.75 77.4813 108.339 77.1181L122.627 68.3666C122.909 68.201 123.15 67.9661 123.33 67.6815C123.51 67.3968 123.623 67.0706 123.66 66.7301C123.636 66.1525 123.146 65.995 122.552 66.3582Z" fill="#455A64"/>
<path d="M122.857 72.3309L108.574 81.0824C108.292 81.2438 108.052 81.4785 107.878 81.7646C107.704 82.0507 107.6 82.379 107.577 82.7189C107.623 83.2571 108.142 83.4015 108.731 83.0384L123.018 74.2869C123.299 74.1261 123.537 73.8919 123.709 73.6063C123.881 73.3208 123.982 72.9932 124.002 72.6547C123.961 72.1121 123.45 71.9809 122.857 72.3309Z" fill="#455A64"/>
<path d="M123.43 78.1377L109.142 86.8892C108.554 87.2524 108.125 87.9744 108.195 88.4951C108.265 89.0158 108.805 89.1514 109.398 88.7882L123.685 80.0368C124.274 79.6736 124.694 78.956 124.62 78.4353C124.546 77.9145 124.019 77.7745 123.43 78.1377Z" fill="#455A64"/>
<path d="M124.286 83.7691L109.999 92.5206C109.41 92.8838 109.002 93.5926 109.101 94.1002C109.2 94.6078 109.76 94.7216 110.337 94.3584L124.62 85.6069C125.213 85.2437 125.608 84.5392 125.51 84.0316C125.411 83.5241 124.896 83.4059 124.286 83.7691Z" fill="#455A64"/>
<path d="M125.448 89.2125L111.161 97.964C110.572 98.3272 110.189 99.0185 110.337 99.5042C110.485 99.9899 111.049 100.099 111.638 99.7361L125.926 90.9847C126.519 90.6215 126.889 89.9345 126.749 89.4444C126.609 88.9543 126.037 88.8493 125.448 89.2125Z" fill="#455A64"/>
<path d="M126.955 94.459L92.137 115.817C91.548 116.18 91.1897 116.854 91.3503 117.322C91.5109 117.79 92.1246 117.878 92.7136 117.515L127.532 96.1568C128.125 95.7936 128.467 95.1241 128.306 94.6516C128.146 94.179 127.524 94.0959 126.955 94.459Z" fill="#455A64"/>
<path d="M128.788 99.4692L93.9738 120.827C93.3808 121.19 93.0554 121.847 93.2531 122.293C93.4508 122.739 94.0768 122.809 94.6781 122.446L129.496 101.088C130.089 100.725 130.407 100.069 130.209 99.6223C130.011 99.176 129.381 99.1104 128.788 99.4692Z" fill="#455A64"/>
<path d="M131.074 104.243L96.2555 125.601C95.6624 125.964 95.37 126.603 95.6048 127.028C95.8395 127.452 96.5108 127.496 97.1039 127.133L131.897 105.775C132.486 105.416 132.771 104.781 132.536 104.357C132.301 103.932 131.65 103.88 131.074 104.243Z" fill="#455A64"/>
<path d="M133.738 108.759L98.9243 130.112C98.3312 130.476 98.0677 131.101 98.3354 131.5C98.6031 131.898 99.3073 131.937 99.9004 131.57L134.715 110.212C135.308 109.848 135.563 109.231 135.295 108.829C135.028 108.426 134.332 108.396 133.738 108.759Z" fill="#455A64"/>
<path d="M136.778 113.052L101.96 134.405C101.371 134.768 101.136 135.377 101.433 135.757C101.729 136.138 102.458 136.156 103.051 135.792L137.869 114.426C138.458 114.062 138.693 113.463 138.388 113.082C138.084 112.702 137.371 112.675 136.778 113.052Z" fill="#455A64"/>
<path d="M140.135 117.138L105.329 138.492C104.736 138.855 104.505 139.45 104.851 139.805C105.197 140.159 105.93 140.168 106.519 139.805L141.337 118.447C141.93 118.084 142.136 117.497 141.807 117.134C141.477 116.771 140.736 116.78 140.135 117.138Z" fill="#455A64"/>
<path d="M143.841 121.046L109.023 142.4C108.434 142.763 108.241 143.345 108.611 143.69C108.982 144.036 109.74 144.023 110.333 143.66L145.122 122.302C145.711 121.939 145.896 121.37 145.534 121.02C145.172 120.67 144.418 120.683 143.841 121.046Z" fill="#455A64"/>
<path d="M103.092 78.2997L86.6675 88.3639C86.8487 94.6868 87.5283 103.806 90.0159 112.991L106.445 102.926C103.953 93.7417 103.274 84.6182 103.092 78.2997Z" fill="#1D334A"/>
<path opacity="0.8" d="M103.092 78.2997L86.6675 88.3639C86.8487 94.6868 87.5283 103.806 90.0159 112.991L106.445 102.926C103.953 93.7417 103.274 84.6182 103.092 78.2997Z" fill="white"/>
<path d="M93.3643 86.9722C93.3864 86.564 93.3267 86.1555 93.1889 85.7738C93.0512 85.3921 92.8386 85.0458 92.5653 84.7581L86.6675 88.3724C86.7169 90.0439 86.7993 91.9124 86.9435 93.9252C87.7106 94.019 88.4867 93.8666 89.1716 93.4876C91.4903 92.3587 93.3643 89.4313 93.3643 86.9722Z" fill="#1D334A"/>
<path opacity="0.6" d="M93.3643 86.9722C93.3864 86.564 93.3267 86.1555 93.1889 85.7738C93.0512 85.3921 92.8386 85.0458 92.5653 84.7581L86.6675 88.3724C86.7169 90.0439 86.7993 91.9124 86.9435 93.9252C87.7106 94.019 88.4867 93.8666 89.1716 93.4876C91.4903 92.3587 93.3643 89.4313 93.3643 86.9722Z" fill="white"/>
<path d="M105.049 96.8875C103.953 95.4217 101.725 90.8928 100.774 88.9193C100.736 88.8413 100.678 88.777 100.605 88.7347C100.533 88.6925 100.451 88.6741 100.369 88.6821C100.287 88.6901 100.209 88.7241 100.145 88.7797C100.082 88.8352 100.035 88.9098 100.012 88.9937C98.9823 92.7317 98.3849 96.5888 98.2324 100.48C96.8607 99.3231 95.6815 97.9297 94.744 96.3581C94.704 96.2972 94.6485 96.2497 94.5839 96.2212C94.5194 96.1927 94.4486 96.1844 94.3797 96.1973C94.3109 96.2102 94.247 96.2437 94.1955 96.2939C94.144 96.3441 94.1071 96.4088 94.0891 96.4806C92.2934 103.827 93.1954 111.056 93.1954 111.056L106.445 102.926C105.893 100.896 105.436 98.8741 105.049 96.8875Z" fill="#1D334A"/>
<path opacity="0.6" d="M105.049 96.8875C103.953 95.4217 101.725 90.8928 100.774 88.9193C100.736 88.8413 100.678 88.777 100.605 88.7347C100.533 88.6925 100.451 88.6741 100.369 88.6821C100.287 88.6901 100.209 88.7241 100.145 88.7797C100.082 88.8352 100.035 88.9098 100.012 88.9937C98.9823 92.7317 98.3849 96.5888 98.2324 100.48C96.8607 99.3231 95.6815 97.9297 94.744 96.3581C94.704 96.2972 94.6485 96.2497 94.5839 96.2212C94.5194 96.1927 94.4486 96.1844 94.3797 96.1973C94.3109 96.2102 94.247 96.2437 94.1955 96.2939C94.144 96.3441 94.1071 96.4088 94.0891 96.4806C92.2934 103.827 93.1954 111.056 93.1954 111.056L106.445 102.926C105.893 100.896 105.436 98.8741 105.049 96.8875Z" fill="white"/>
</svg>
