<svg width="52" height="50" viewBox="0 0 52 50" fill="none" xmlns="http://www.w3.org/2000/svg">
<path fill-rule="evenodd" clip-rule="evenodd" d="M37.7325 29.9624C37.0868 29.652 33.9213 28.1562 33.332 27.9478C32.7427 27.7416 32.3137 27.6395 31.8825 28.2603C31.4535 28.877 30.2207 30.2728 29.8458 30.6853C29.4688 31.0999 29.094 31.1499 28.4505 30.8416C27.807 30.5291 25.7313 29.877 23.2722 27.7687C21.359 26.127 20.0655 24.0999 19.6907 23.4791C19.3158 22.8603 19.6495 22.5249 19.9723 22.2166C20.2627 21.9395 20.6158 21.4937 20.9387 21.1333C21.2615 20.7708 21.3677 20.5124 21.5822 20.0978C21.7988 19.6853 21.6905 19.3249 21.528 19.0145C21.3677 18.7041 20.0807 15.6562 19.5433 14.4166C19.0212 13.2103 18.4903 13.3749 18.096 13.3541C17.719 13.3374 17.29 13.3333 16.861 13.3333C16.432 13.3333 15.7343 13.4874 15.145 14.1083C14.5535 14.727 12.8917 16.2249 12.8917 19.2729C12.8917 22.3187 15.197 25.2624 15.5198 25.677C15.8427 26.0895 20.059 32.3437 26.5178 35.0249C28.0562 35.6624 29.2543 36.0437 30.1882 36.327C31.7308 36.7999 33.1348 36.7333 34.2442 36.5728C35.4792 36.3958 38.0532 35.0749 38.5905 33.6291C39.1257 32.1833 39.1257 30.9437 38.9653 30.6853C38.805 30.427 38.376 30.2728 37.7303 29.9624H37.7325ZM25.9848 45.3853H25.9762C22.1399 45.386 18.3741 44.3944 15.0735 42.5145L14.2935 42.0687L6.18583 44.1145L8.35033 36.5145L7.84117 35.7353C5.69647 32.4527 4.56147 28.6536 4.56733 24.777C4.57167 13.4228 14.1787 4.18535 25.9935 4.18535C31.7135 4.18535 37.0912 6.33118 41.1342 10.2228C43.1283 12.1324 44.7089 14.4032 45.7844 16.9039C46.86 19.4046 47.4091 22.0855 47.4002 24.7916C47.3958 36.1458 37.7888 45.3853 25.9848 45.3853ZM44.2108 7.2666C41.8236 4.95602 38.9832 3.12397 35.8542 1.8766C32.7252 0.629232 29.3699 -0.00864477 25.9827 -6.7218e-05C11.7823 -6.7218e-05 0.221 11.1145 0.216667 24.7749C0.210087 29.1223 1.39614 33.3945 3.65517 37.1603L0 49.9999L13.6587 46.5541C17.4371 48.5335 21.6712 49.5707 25.974 49.5708H25.9848C40.1852 49.5708 51.7465 38.4562 51.7508 24.7937C51.7613 21.538 51.1003 18.3126 49.8061 15.3042C48.5119 12.2957 46.6101 9.56383 44.2108 7.2666Z" fill="#F8F8F8"/>
</svg>
